<svg id="Current_location-rafiki" data-name="Current location-rafiki" xmlns="http://www.w3.org/2000/svg" width="280.629" height="206.941" viewBox="0 0 280.629 206.941">
  <defs>
    <style>
      .cls-1 {
        fill: #ebebeb;
      }

      .cls-2 {
        fill: #f5f5f5;
      }

      .cls-3 {
        fill: #e6e6e6;
      }

      .cls-4 {
        fill: #f0f0f0;
      }

      .cls-5 {
        fill: #e0e0e0;
      }

      .cls-6 {
        fill: #c2368c;
      }

      .cls-11, .cls-21, .cls-7, .cls-8 {
        fill: #fff;
      }

      .cls-7 {
        opacity: 0.8;
      }

      .cls-19, .cls-8, .cls-9 {
        opacity: 0.2;
      }

      .cls-10, .cls-22 {
        opacity: 0.1;
      }

      .cls-12 {
        fill: none;
        stroke: #c2368c;
        stroke-linecap: round;
        stroke-linejoin: round;
      }

      .cls-13 {
        fill: #263238;
      }

      .cls-14, .cls-18 {
        opacity: 0.3;
      }

      .cls-15 {
        fill: #b65b52;
      }

      .cls-16 {
        fill: #b55b52;
      }

      .cls-17 {
        fill: #a02724;
      }

      .cls-18, .cls-19 {
        isolation: isolate;
      }

      .cls-20 {
        opacity: 0.5;
      }

      .cls-21, .cls-23 {
        opacity: 0.7;
      }
    </style>
  </defs>
  <g id="freepik--background-complete--inject-147" transform="translate(0 0)">
    <rect id="Rectangle_40" data-name="Rectangle 40" class="cls-1" width="18.589" height="0.14" transform="translate(233.921 192.786)"/>
    <rect id="Rectangle_41" data-name="Rectangle 41" class="cls-1" width="4.877" height="0.14" transform="translate(181.022 194.313)"/>
    <rect id="Rectangle_42" data-name="Rectangle 42" class="cls-1" width="10.771" height="0.14" transform="translate(222.589 187.578)"/>
    <rect id="Rectangle_43" data-name="Rectangle 43" class="cls-1" width="24.241" height="0.14" transform="translate(29.444 188.521)"/>
    <rect id="Rectangle_44" data-name="Rectangle 44" class="cls-1" width="3.553" height="0.14" transform="translate(58.685 188.521)"/>
    <rect id="Rectangle_45" data-name="Rectangle 45" class="cls-1" width="52.579" height="0.14" transform="translate(73.789 190.889)"/>
    <path id="Path_434" data-name="Path 434" class="cls-1" d="M149.782,213.724H41.415a3.2,3.2,0,0,1-3.2-3.2V58.177A3.2,3.2,0,0,1,41.415,55H149.782a3.2,3.2,0,0,1,3.2,3.2V210.519A3.2,3.2,0,0,1,149.782,213.724ZM41.415,55.112a3.07,3.07,0,0,0-3.064,3.064V210.519a3.07,3.07,0,0,0,3.064,3.064H149.782a3.07,3.07,0,0,0,3.064-3.064V58.177a3.07,3.07,0,0,0-3.064-3.064Z" transform="translate(-16.764 -55)"/>
    <path id="Path_435" data-name="Path 435" class="cls-1" d="M366.084,213.724H257.7a3.21,3.21,0,0,1-3.2-3.2V58.177A3.21,3.21,0,0,1,257.7,55H366.084a3.2,3.2,0,0,1,3.194,3.177V210.519A3.2,3.2,0,0,1,366.084,213.724ZM257.7,55.112a3.07,3.07,0,0,0-3.064,3.064V210.519a3.07,3.07,0,0,0,3.064,3.064H366.084a3.07,3.07,0,0,0,3.064-3.064V58.177a3.07,3.07,0,0,0-3.064-3.064Z" transform="translate(-111.66 -55)"/>
    <rect id="Rectangle_46" data-name="Rectangle 46" class="cls-1" width="280.629" height="0.14" transform="translate(0 183.756)"/>
    <path id="Path_436" data-name="Path 436" class="cls-2" d="M250.124,311.915V246.287s-15.182,15.4-45.462,12.825c-22.237-1.891-62.227-20.391-81.944-30.095a24.1,24.1,0,0,0-23.012.92c-16.052,9.575-43.716,26.07-46.73,27.838l-4.277,2.5v53.393Z" transform="translate(-21.367 -130.258)"/>
    <path id="Path_437" data-name="Path 437" class="cls-3" d="M112.168,247.793a9.4,9.4,0,0,1-2.862,3.368,79.7,79.7,0,0,1-15.154,9.974S62.4,280.885,48.69,289.32V260.309l4.282-2.5c3.014-1.768,30.678-18.263,46.736-27.838a24,24,0,0,1,11.955-3.368,4.131,4.131,0,0,1,1.768,2.6c.354,1.875-.769,3.716-2.15,5.023s-3.042,2.307-4.3,3.738c-.881,1-1.538,2.492-.847,3.631,1,1.656,3.687,1,5.231,2.166A3.411,3.411,0,0,1,112.168,247.793Z" transform="translate(-21.362 -130.288)"/>
    <path id="Path_438" data-name="Path 438" class="cls-4" d="M47.51,304.227V230.556s17.045,17.287,51.074,14.4c24.965-2.122,69.854-22.888,91.962-33.782a27.041,27.041,0,0,1,25.818,1.033c18.022,10.748,49.076,29.264,52.461,31.245l4.8,2.806V306.2Z" transform="translate(-20.845 -122.295)"/>
    <path id="Path_439" data-name="Path 439" class="cls-5" d="M216.673,260.243A411.194,411.194,0,0,1,163.1,279.034c-1.97.561-4.428,1.762-4.086,3.777.365,2.166,3.368,2.324,5.556,1.97a153.423,153.423,0,0,1,38.62-1.375c3.278.3,7.375,1.493,7.723,4.771.3,2.846-2.571,4.905-5.1,6.247a194.8,194.8,0,0,1-26.132,11.545L47.51,304.818V231.148s17.045,17.287,51.074,14.4c24.965-2.122,69.854-22.888,91.962-33.782a26.843,26.843,0,0,1,5.613-2.032c-1.123,4.933.393,10.524,4.939,12.477,2.677,1.123,5.73.819,8.632,1.123s6.14,1.594,6.976,4.389c.9,2.986-1.358,5.91-3.368,8.3s-4.013,5.613-2.632,8.419c2.245,4.569,10.883,2.857,12.488,7.684C224.39,255.742,220.2,258.711,216.673,260.243Z" transform="translate(-20.845 -122.887)"/>
    <path id="Path_440" data-name="Path 440" class="cls-4" d="M353.782,129.2l11.528-.225.96.41a18.937,18.937,0,0,0,16.361-.746h0l9.648-.185s8.98-3.575,7.616-12.55-14.817-1.218-14.817-1.218,3.884-12.64-9.238-8.823a19.523,19.523,0,0,0-14.172,16.276S344.285,119.452,353.782,129.2Z" transform="translate(-153.974 -76.999)"/>
    <path id="Path_441" data-name="Path 441" class="cls-4" d="M91.717,193.61H60.185a3.594,3.594,0,0,1-1.2-6.982l.146-.05c-4.215-3.513,5.051-10.922,15.092-.662-.786-3.418,8.149-2.183,10.883,2.481C86.093,185.354,94.618,190.658,91.717,193.61Z" transform="translate(-24.826 -110.145)"/>
  </g>
  <g id="freepik--Shadow--inject-147" transform="translate(28.787 194.235)">
    <ellipse id="freepik--path--inject-147" class="cls-2" cx="108.822" cy="6.353" rx="108.822" ry="6.353"/>
  </g>
  <g id="freepik--Sun--inject-147" transform="translate(65.51 15.659)">
    <ellipse id="Ellipse_8" data-name="Ellipse 8" class="cls-6" cx="10.136" cy="10.136" rx="10.136" ry="10.136" transform="translate(0 0)"/>
    <ellipse id="Ellipse_9" data-name="Ellipse 9" class="cls-7" cx="10.136" cy="10.136" rx="10.136" ry="10.136" transform="translate(0 0)"/>
  </g>
  <g id="freepik--Desert--inject-147" transform="translate(26.615 92.043)">
    <path id="Path_442" data-name="Path 442" class="cls-6" d="M248.79,310.724H47.45a3.766,3.766,0,0,1,.427-1.527s97.025-85.625,101.98-89.521l.224-.157a3.031,3.031,0,0,1,3.873.387Z" transform="translate(-47.433 -218.994)"/>
    <path id="Path_443" data-name="Path 443" class="cls-8" d="M248.79,310.724H47.45a3.766,3.766,0,0,1,.427-1.527s97.025-85.625,101.98-89.521l.224-.157a3.031,3.031,0,0,1,3.873.387Z" transform="translate(-47.433 -218.994)"/>
    <path id="Path_444" data-name="Path 444" class="cls-9" d="M156.629,243.946C150,251.529,55.715,308.912,47.42,310.792l.427-1.527,102.205-89.678.982-.438c-1.123,2.021-2.138,6.623.168,9.3C154.429,232.177,163.275,236.364,156.629,243.946Z" transform="translate(-47.42 -219.063)"/>
    <path id="Path_445" data-name="Path 445" class="cls-6" d="M288.721,331.946,82.79,331.918s101.1-60.055,105.842-62.861l.174-.107.685-.393.634-.365a8.222,8.222,0,0,1,4.019-1.083,8.418,8.418,0,0,1,4.849,1.611C217.245,281.489,288.721,331.946,288.721,331.946Z" transform="translate(-62.938 -240.105)"/>
    <g id="Group_7" data-name="Group 7" class="cls-10" transform="translate(19.852 27.005)">
      <path id="Path_446" data-name="Path 446" class="cls-11" d="M288.721,331.946,82.79,331.918s101.1-60.055,105.842-62.861l.174-.107.685-.393.634-.365a8.222,8.222,0,0,1,4.019-1.083,8.418,8.418,0,0,1,4.849,1.611C217.245,281.489,288.721,331.946,288.721,331.946Z" transform="translate(-82.79 -267.11)"/>
    </g>
    <path id="Path_447" data-name="Path 447" class="cls-9" d="M200.626,278.264A11.369,11.369,0,0,1,196.9,284.8c-1.639,1.583-3.435,3.053-4.49,5.54s-.988,6.41.7,7.858c1.05.887,2.385.6,3.446,1.454,1.717,1.369,1.931,5.253.932,7.8a11.993,11.993,0,0,1-4.557,5.3,106,106,0,0,1-46.163,19.644H82.79L188.806,269.43c.241-.14.466-.264.685-.4l.64-.359a8.773,8.773,0,0,1,6.078.1C198.892,269.985,201.232,274.088,200.626,278.264Z" transform="translate(-62.938 -240.572)"/>
  </g>
  <g id="freepik--current-location--inject-147" transform="translate(145.31 14.031)">
    <line id="Line_1" data-name="Line 1" class="cls-12" x2="3.289" transform="translate(34.944 82.342)"/>
    <line id="Line_2" data-name="Line 2" class="cls-12" x2="10.726" transform="translate(20.935 82.342)"/>
    <path id="Path_448" data-name="Path 448" class="cls-6" d="M319.785,209.732H261.01l1.426-16.232H321.2Z" transform="translate(-259.826 -129.797)"/>
    <path id="Path_449" data-name="Path 449" class="cls-13" d="M317.669,207.617H258.9l1.42-16.237h58.769l-1.42,16.237Z" transform="translate(-258.9 -128.867)"/>
    <path id="Path_450" data-name="Path 450" class="cls-11" d="M273.566,200.489a2.037,2.037,0,0,1,2.1-1.841,1.684,1.684,0,0,1,1.409.629l-.561.488a1.038,1.038,0,0,0-.859-.415,1.212,1.212,0,0,0-1.24,1.123.988.988,0,0,0,1.038,1.122,1.246,1.246,0,0,0,.937-.421l.483.488a2,2,0,0,1-1.527.634,1.684,1.684,0,0,1-1.779-1.807Z" transform="translate(-265.333 -132.055)"/>
    <path id="Path_451" data-name="Path 451" class="cls-11" d="M283.164,200.22l-.253,2.739h-.752l.028-.326a1.207,1.207,0,0,1-.881.37c-.685,0-1.122-.387-1.061-1.235l.135-1.549h.791l-.123,1.431c-.039.46.146.662.5.662a.7.7,0,0,0,.69-.735l.124-1.358Z" transform="translate(-268.263 -132.746)"/>
    <path id="Path_452" data-name="Path 452" class="cls-11" d="M288.294,200.149l-.062.735h-.18a.741.741,0,0,0-.763.752l-.112,1.291h-.8l.241-2.739h.758l-.034.365A1.218,1.218,0,0,1,288.294,200.149Z" transform="translate(-270.957 -132.714)"/>
    <path id="Path_453" data-name="Path 453" class="cls-11" d="M292.142,200.149l-.062.735h-.18a.741.741,0,0,0-.791.763L291,202.939h-.8l.241-2.739h.769l-.034.365a1.218,1.218,0,0,1,.965-.415Z" transform="translate(-272.633 -132.714)"/>
    <path id="Path_454" data-name="Path 454" class="cls-11" d="M296.77,201.79H294.7a.662.662,0,0,0,.735.561,1,1,0,0,0,.713-.264l.382.46a1.571,1.571,0,0,1-1.167.443,1.285,1.285,0,0,1-1.437-1.414,1.543,1.543,0,0,1,1.583-1.409,1.229,1.229,0,0,1,1.3,1.42A.345.345,0,0,0,296.77,201.79Zm-2.037-.46h1.347a.561.561,0,0,0-.623-.561.718.718,0,0,0-.752.561Z" transform="translate(-274.263 -132.721)"/>
    <path id="Path_455" data-name="Path 455" class="cls-11" d="M302.705,201.362l-.135,1.566h-.8l.129-1.442c.039-.443-.146-.645-.5-.645a.7.7,0,0,0-.718.735l-.118,1.353h-.8l.241-2.739h.758v.326a1.308,1.308,0,0,1,.937-.365C302.307,200.15,302.761,200.526,302.705,201.362Z" transform="translate(-276.831 -132.715)"/>
    <path id="Path_456" data-name="Path 456" class="cls-11" d="M307.665,202.365a1.2,1.2,0,0,1-.662.174c-.645,0-.993-.331-.937-.982l.1-1.122h-.427l.056-.612h.421l.062-.662h.791l-.056.662h.679l-.051.612h-.685l-.1,1.122a.286.286,0,0,0,.309.359.561.561,0,0,0,.331-.1Z" transform="translate(-279.451 -132.281)"/>
    <path id="Path_457" data-name="Path 457" class="cls-11" d="M312.919,198.76h.825l-.253,2.89h1.785l-.056.668h-2.61Z" transform="translate(-282.465 -132.105)"/>
    <path id="Path_458" data-name="Path 458" class="cls-11" d="M317.784,201.555a1.566,1.566,0,0,1,1.633-1.409,1.268,1.268,0,0,1,1.375,1.409,1.56,1.56,0,0,1-1.622,1.414,1.28,1.28,0,0,1-1.386-1.414Zm2.206,0a.629.629,0,0,0-.629-.758.769.769,0,0,0-.769.758.623.623,0,0,0,.634.758A.763.763,0,0,0,319.99,201.555Z" transform="translate(-284.732 -132.711)"/>
    <path id="Path_459" data-name="Path 459" class="cls-11" d="M323.724,201.554a1.572,1.572,0,0,1,1.65-1.409,1.123,1.123,0,0,1,1.162.7l-.64.331a.623.623,0,0,0-.561-.376.78.78,0,0,0-.786.758.634.634,0,0,0,.651.758.752.752,0,0,0,.651-.376l.561.337a1.4,1.4,0,0,1-1.285.7,1.28,1.28,0,0,1-1.4-1.414Z" transform="translate(-287.338 -132.71)"/>
    <path id="Path_460" data-name="Path 460" class="cls-11" d="M331.7,201.346l-.135,1.56h-.746l.034-.342a.982.982,0,0,1-.87.387c-.64,0-.993-.359-.949-.831s.41-.819,1.246-.819h.629c.034-.342-.151-.561-.561-.561a1.426,1.426,0,0,0-.808.253l-.236-.561a2.245,2.245,0,0,1,1.207-.331C331.327,200.128,331.776,200.515,331.7,201.346Zm-.853.7v-.281h-.561c-.37,0-.5.14-.516.32s.14.331.421.331A.64.64,0,0,0,330.85,202.042Z" transform="translate(-289.67 -132.693)"/>
    <path id="Path_461" data-name="Path 461" class="cls-11" d="M336.5,202.365a1.2,1.2,0,0,1-.662.174c-.645,0-.993-.331-.937-.982l.1-1.122h-.427l.056-.612h.421l.062-.662h.791l-.056.662h.651l-.051.612h-.685l-.1,1.122a.286.286,0,0,0,.309.359.561.561,0,0,0,.331-.1Z" transform="translate(-292.1 -132.281)"/>
    <path id="Path_462" data-name="Path 462" class="cls-11" d="M338.961,198.412a.494.494,0,0,1,.528-.443c.3,0,.483.18.46.427a.505.505,0,0,1-.561.455.4.4,0,0,1-.427-.438Zm0,.819h.791l-.236,2.739h-.8Z" transform="translate(-293.92 -131.757)"/>
    <path id="Path_463" data-name="Path 463" class="cls-11" d="M341.333,201.554a1.56,1.56,0,0,1,1.628-1.409,1.268,1.268,0,0,1,1.381,1.409,1.56,1.56,0,0,1-1.622,1.414,1.274,1.274,0,0,1-1.386-1.414Zm2.206,0a.629.629,0,0,0-.634-.758.775.775,0,0,0-.769.758.629.629,0,0,0,.64.758A.769.769,0,0,0,343.539,201.554Z" transform="translate(-295.063 -132.71)"/>
    <path id="Path_464" data-name="Path 464" class="cls-11" d="M350.361,201.359l-.14,1.566h-.791l.123-1.442c.039-.443-.146-.645-.5-.645a.7.7,0,0,0-.718.735l-.118,1.353h-.8l.241-2.739h.758l-.028.326a1.308,1.308,0,0,1,.937-.365.977.977,0,0,1,1.033,1.212Z" transform="translate(-297.737 -132.712)"/>
    <path id="Path_465" data-name="Path 465" class="cls-6" d="M291.545,209.892h1.179a1.167,1.167,0,0,1,1.313,1.291,1.431,1.431,0,0,1-1.543,1.3H291.32Zm.965,2.093a.859.859,0,0,0,.92-.8.7.7,0,0,0-.78-.8h-.561l-.14,1.605Z" transform="translate(-273.124 -136.985)"/>
    <path id="Path_466" data-name="Path 466" class="cls-6" d="M298.669,212.068h-1.5a.477.477,0,0,0,.561.4.724.724,0,0,0,.516-.191l.281.331a1.123,1.123,0,0,1-.848.32.937.937,0,0,1-1.05-1.021,1.123,1.123,0,0,1,1.151-1.027.892.892,0,0,1,.948,1.033A.782.782,0,0,0,298.669,212.068Zm-1.482-.337h.982a.432.432,0,0,0-.455-.415.522.522,0,0,0-.528.432Z" transform="translate(-275.45 -137.421)"/>
    <path id="Path_467" data-name="Path 467" class="cls-6" d="M300.54,212.745l.224-.415a1.252,1.252,0,0,0,.679.191c.264,0,.37-.067.382-.18.028-.326-1.207,0-1.122-.786.034-.376.393-.645.977-.645a1.5,1.5,0,0,1,.746.174l-.224.41a1.067,1.067,0,0,0-.561-.146c-.258,0-.376.079-.387.185-.028.337,1.2,0,1.122.791-.034.37-.4.634-.993.634a1.588,1.588,0,0,1-.842-.213Z" transform="translate(-277.169 -137.435)"/>
    <path id="Path_468" data-name="Path 468" class="cls-6" d="M306.307,212.068h-1.5a.477.477,0,0,0,.533.4.724.724,0,0,0,.516-.191l.281.331a1.162,1.162,0,0,1-.853.32.932.932,0,0,1-1.044-1.021,1.122,1.122,0,0,1,1.151-1.027.892.892,0,0,1,.949,1.033A.165.165,0,0,1,306.307,212.068Zm-1.482-.337h.96a.432.432,0,0,0-.455-.415.522.522,0,0,0-.505.432Z" transform="translate(-278.789 -137.421)"/>
    <path id="Path_469" data-name="Path 469" class="cls-6" d="M309.925,210.91l-.045.561h-.129a.561.561,0,0,0-.561.561l-.079.937h-.561l.174-1.992h.561v.264A.881.881,0,0,1,309.925,210.91Z" transform="translate(-280.684 -137.436)"/>
    <path id="Path_470" data-name="Path 470" class="cls-6" d="M312.658,212.515a.881.881,0,0,1-.483.123c-.466,0-.718-.241-.679-.713l.073-.819h-.309l.039-.443h.309l.039-.483h.561l-.045.483h.5l-.039.443h-.5l-.067.814a.208.208,0,0,0,.224.258.409.409,0,0,0,.241-.073Z" transform="translate(-281.873 -137.115)"/>
    <path id="Path_471" data-name="Path 471" class="cls-6" d="M314.868,213.678a.824.824,0,0,1-.135.365l-.253.561h-.37l.219-.561a.3.3,0,0,1-.174-.314.376.376,0,0,1,.387-.359.309.309,0,0,1,.326.309Z" transform="translate(-283.123 -138.515)"/>
    <path id="Path_472" data-name="Path 472" class="cls-6" d="M318.161,211.348l.129-1.448h.6l-.129,1.426c-.039.494.157.7.516.7s.595-.2.64-.7l.124-1.426h.595l-.129,1.448a1.184,1.184,0,0,1-1.274,1.184.977.977,0,0,1-1.072-1.184Z" transform="translate(-284.89 -136.993)"/>
    <path id="Path_473" data-name="Path 473" class="cls-6" d="M324.623,211.932h-1.2l-.275.561h-.617l1.386-2.593h.595l.932,2.587h-.629Zm-.146-.455-.326-.993-.494.993Z" transform="translate(-286.817 -136.993)"/>
    <path id="Path_474" data-name="Path 474" class="cls-6" d="M330.233,212l-.039.483h-2l.224-2.587h1.959l-.045.477H328.97l-.051.561h1.2l-.039.466h-1.2l-.056.6Z" transform="translate(-289.3 -136.993)"/>
    <g id="Group_8" data-name="Group 8" class="cls-14" transform="translate(18.196 72.897)">
      <path id="Path_475" data-name="Path 475" d="M291.545,209.892h1.179a1.167,1.167,0,0,1,1.313,1.291,1.431,1.431,0,0,1-1.543,1.3H291.32Zm.965,2.093a.859.859,0,0,0,.92-.8.7.7,0,0,0-.78-.8h-.561l-.14,1.605Z" transform="translate(-291.32 -209.882)"/>
      <path id="Path_476" data-name="Path 476" d="M298.669,212.068h-1.5a.477.477,0,0,0,.561.4.724.724,0,0,0,.516-.191l.281.331a1.123,1.123,0,0,1-.848.32.937.937,0,0,1-1.05-1.021,1.123,1.123,0,0,1,1.151-1.027.892.892,0,0,1,.948,1.033A.782.782,0,0,0,298.669,212.068Zm-1.482-.337h.982a.432.432,0,0,0-.455-.415.522.522,0,0,0-.528.432Z" transform="translate(-293.646 -210.318)"/>
      <path id="Path_477" data-name="Path 477" d="M300.54,212.745l.224-.415a1.252,1.252,0,0,0,.679.191c.264,0,.37-.067.382-.18.028-.326-1.207,0-1.122-.786.034-.376.393-.645.977-.645a1.5,1.5,0,0,1,.746.174l-.224.41a1.067,1.067,0,0,0-.561-.146c-.258,0-.376.079-.387.185-.028.337,1.2,0,1.122.791-.034.37-.4.634-.993.634a1.588,1.588,0,0,1-.842-.213Z" transform="translate(-295.365 -210.332)"/>
      <path id="Path_478" data-name="Path 478" d="M306.307,212.068h-1.5a.477.477,0,0,0,.533.4.724.724,0,0,0,.516-.191l.281.331a1.162,1.162,0,0,1-.853.32.932.932,0,0,1-1.044-1.021,1.122,1.122,0,0,1,1.151-1.027.892.892,0,0,1,.949,1.033A.165.165,0,0,1,306.307,212.068Zm-1.482-.337h.96a.432.432,0,0,0-.455-.415.522.522,0,0,0-.505.432Z" transform="translate(-296.985 -210.318)"/>
      <path id="Path_479" data-name="Path 479" d="M309.925,210.91l-.045.561h-.129a.561.561,0,0,0-.561.561l-.079.937h-.561l.174-1.992h.561v.264A.881.881,0,0,1,309.925,210.91Z" transform="translate(-298.88 -210.333)"/>
      <path id="Path_480" data-name="Path 480" d="M312.658,212.515a.881.881,0,0,1-.483.123c-.466,0-.718-.241-.679-.713l.073-.819h-.309l.039-.443h.309l.039-.483h.561l-.045.483h.5l-.039.443h-.5l-.067.814a.208.208,0,0,0,.224.258.409.409,0,0,0,.241-.073Z" transform="translate(-300.069 -210.013)"/>
      <path id="Path_481" data-name="Path 481" d="M314.868,213.678a.824.824,0,0,1-.135.365l-.253.561h-.37l.219-.561a.3.3,0,0,1-.174-.314.376.376,0,0,1,.387-.359.309.309,0,0,1,.326.309Z" transform="translate(-301.319 -211.412)"/>
      <path id="Path_482" data-name="Path 482" d="M318.161,211.348l.129-1.448h.6l-.129,1.426c-.039.494.157.7.516.7s.595-.2.64-.7l.124-1.426h.595l-.129,1.448a1.184,1.184,0,0,1-1.274,1.184.977.977,0,0,1-1.072-1.184Z" transform="translate(-303.086 -209.89)"/>
      <path id="Path_483" data-name="Path 483" d="M324.623,211.932h-1.2l-.275.561h-.617l1.386-2.593h.595l.932,2.587h-.629Zm-.146-.455-.326-.993-.494.993Z" transform="translate(-305.013 -209.89)"/>
      <path id="Path_484" data-name="Path 484" d="M330.233,212l-.039.483h-2l.224-2.587h1.959l-.045.477H328.97l-.051.561h1.2l-.039.466h-1.2l-.056.6Z" transform="translate(-307.496 -209.89)"/>
    </g>
    <path id="Path_485" data-name="Path 485" class="cls-6" d="M315.418,181.536a5.77,5.77,0,0,1-5.613,5.186,4.681,4.681,0,0,1-4.737-5.186,5.775,5.775,0,0,1,5.641-5.186,4.67,4.67,0,0,1,4.709,5.186Z" transform="translate(-279.144 -122.272)"/>
    <ellipse id="Ellipse_10" data-name="Ellipse 10" class="cls-11" cx="3.362" cy="3.076" rx="3.362" ry="3.076" transform="matrix(0.722, -0.691, 0.691, 0.722, 26.522, 59.506)"/>
    <ellipse id="Ellipse_11" data-name="Ellipse 11" class="cls-6" cx="1.431" cy="1.308" rx="1.431" ry="1.308" transform="translate(29.136 59.427) rotate(-43.75)"/>
    <path id="Path_486" data-name="Path 486" class="cls-6" d="M308.708,80a19.025,19.025,0,0,0-18.583,17.085c-.825,9.435,14.161,33.429,14.161,33.429s19.189-24.011,19.992-33.451A15.379,15.379,0,0,0,308.708,80Zm-2.06,25.257a7.3,7.3,0,0,1-7.38-8.088,9.008,9.008,0,0,1,8.795-8.076,7.3,7.3,0,0,1,7.386,8.093,9.008,9.008,0,0,1-8.8,8.071Z" transform="translate(-272.585 -80)"/>
  </g>
  <g id="freepik--Character--inject-147" transform="translate(50.816 46.529)">
    <g id="freepik--freepik--Character--inject-254--inject-147" transform="translate(10.31 0.577)">
      <path id="Path_487" data-name="Path 487" class="cls-15" d="M147.772,186.192l-1.156,1.336c-.387.466-.775.932-1.123,1.409-.752.943-1.5,1.891-2.245,2.862a41.534,41.534,0,0,0-3.749,5.961l-.3.606-.1.224-.079.309a10.844,10.844,0,0,0-.225,1.532,33.464,33.464,0,0,0-.056,3.519c.067,2.425.258,4.939.46,7.4l-2.756.64a49.264,49.264,0,0,1-2.021-7.588,30.871,30.871,0,0,1-.455-4.058,15.157,15.157,0,0,1,.079-2.245,2.823,2.823,0,0,1,.1-.623c.051-.219.1-.438.157-.668l.112-.359.062-.185.062-.112.191-.488a29.815,29.815,0,0,1,1.779-3.727,35.78,35.78,0,0,1,2.1-3.424c.746-1.123,1.532-2.15,2.363-3.2.41-.516.825-1.016,1.263-1.527s.831-.988,1.358-1.51Z" transform="translate(-119.9 -157.949)"/>
      <path id="Path_488" data-name="Path 488" class="cls-16" d="M137.958,233.02a4.464,4.464,0,0,0,.786,3.474l3.732-2.206-1.908-2.049Z" transform="translate(-121.603 -179.868)"/>
      <path id="Path_489" data-name="Path 489" class="cls-16" d="M143.192,235.89l-3.732,2.2,2.582,2.1,3.631-1.274Z" transform="translate(-122.314 -181.47)"/>
      <path id="Path_490" data-name="Path 490" class="cls-13" d="M175.658,153.23c.2,0,.376.219.387.522s-.129.561-.331.561a.471.471,0,0,1-.387-.522C175.316,153.488,175.462,153.23,175.658,153.23Z" transform="translate(-138.048 -145.203)"/>
      <path id="Path_491" data-name="Path 491" class="cls-17" d="M175.3,158.074a1.734,1.734,0,0,0,1.437-.331,11.1,11.1,0,0,1-1.572-2.542Z" transform="translate(-137.981 -146.068)"/>
      <path id="Path_492" data-name="Path 492" class="cls-13" d="M173.157,150.707a1.392,1.392,0,0,1,1.257-.281h0a.18.18,0,0,0,.224-.118h0a.18.18,0,0,0-.118-.224,1.762,1.762,0,0,0-1.572.342.174.174,0,0,0,0,.247.191.191,0,0,0,.112.073A.2.2,0,0,0,173.157,150.707Z" transform="translate(-136.984 -143.797)"/>
      <path id="Path_493" data-name="Path 493" class="cls-16" d="M164.115,165.227c-.505,2.144-.488,4.816,1.863,5.54,0,0,2.958,2.458-2.677,2.458-5.135,0-5.921-2.806-5.921-2.806,1.9-1.841,1.532-5.663.954-8.419Z" transform="translate(-130.176 -149.051)"/>
      <path id="Path_494" data-name="Path 494" class="cls-6" d="M178.252,407.421a.1.1,0,0,1-.073-.073.084.084,0,0,1,.051-.09c.051-.034,1.358-.786,1.992-.617a.449.449,0,0,1,.281.213.337.337,0,0,1,0,.393c-.157.213-.623.281-1.123.281A6.577,6.577,0,0,1,178.252,407.421Zm1.729-.629a4.064,4.064,0,0,0-1.476.471c.7.1,1.684.1,1.83-.146.045-.028.062-.09,0-.2a.281.281,0,0,0-.18-.129Z" transform="translate(-139.301 -256.374)"/>
      <path id="Path_495" data-name="Path 495" class="cls-6" d="M178.144,406.674a.124.124,0,0,1-.034-.084,2.554,2.554,0,0,1,.561-1.454.646.646,0,0,1,.522-.152c.241.028.337.152.337.253.073.421-.819,1.24-1.274,1.442h-.039A.1.1,0,0,1,178.144,406.674Zm.982-1.521a.477.477,0,0,0-.309.112,2.121,2.121,0,0,0-.483,1.162c.46-.281,1.066-.921,1.021-1.179,0,0,0-.1-.174-.1Z" transform="translate(-139.271 -255.655)"/>
      <path id="Path_496" data-name="Path 496" class="cls-16" d="M170.908,392.34h3.777l-.264,8.733H170.65Z" transform="translate(-135.998 -250.111)"/>
      <path id="Path_497" data-name="Path 497" class="cls-13" d="M174.477,407.39c2.571,1.577,4.49,1.644,7.425,2.29.651.135.241,1.684-1.3,1.684-2.565,0-3.929-.118-6.123-.118-1.875,0-4.019.107-5.5.107a.525.525,0,0,1-.129,0,.561.561,0,0,1-.427-.657l.7-3.368a.331.331,0,0,1,.32-.258h4.12a1.768,1.768,0,0,1,.915.32Z" transform="translate(-135.015 -256.573)"/>
      <path id="Path_498" data-name="Path 498" class="cls-6" d="M150.546,186.846a13.375,13.375,0,0,1-5.714,5.888l-5.613-5.708s5.051-9.171,8.671-9.216C151.6,177.776,152.685,182.485,150.546,186.846Z" transform="translate(-122.208 -155.987)"/>
      <path id="Path_499" data-name="Path 499" class="cls-18" d="M150.546,186.846a13.375,13.375,0,0,1-5.714,5.888l-5.613-5.708s5.051-9.171,8.671-9.216C151.6,177.776,152.685,182.485,150.546,186.846Z" transform="translate(-122.208 -155.987)"/>
      <path id="Path_500" data-name="Path 500" class="cls-6" d="M164.145,177.315c-.825-.146-1.762-.286-2.705-.37a75.379,75.379,0,0,0-8.576,0h-.213a1.823,1.823,0,0,0-.46.039,5.882,5.882,0,0,0-5.051,6.612c1.729,12.578.427,24.3.561,26.98h20.172c2.026-16.568,1.437-24.942.612-29.017A5.41,5.41,0,0,0,164.145,177.315Z" transform="translate(-125.659 -155.554)"/>
      <path id="Path_501" data-name="Path 501" class="cls-19" d="M164.145,177.315c-.825-.146-1.762-.286-2.705-.37a75.379,75.379,0,0,0-8.576,0h-.213a1.823,1.823,0,0,0-.46.039,5.882,5.882,0,0,0-5.051,6.612c1.729,12.578.427,24.3.561,26.98h20.172c2.026-16.568,1.437-24.942.612-29.017A5.41,5.41,0,0,0,164.145,177.315Z" transform="translate(-125.659 -155.554)"/>
      <path id="Path_502" data-name="Path 502" class="cls-19" d="M182.326,204.013c.14-3.682,0-6.23-2.621-7.083L177,198.777C177.483,201.308,180.076,203.446,182.326,204.013Z" transform="translate(-138.784 -164.376)"/>
      <path id="Path_503" data-name="Path 503" class="cls-19" d="M171,392.34l-.135,4.5h3.772l.14-4.5Z" transform="translate(-136.094 -250.111)"/>
      <path id="Path_504" data-name="Path 504" class="cls-16" d="M167.854,154.252a5.442,5.442,0,0,1-.4,1.263,5.1,5.1,0,0,1-3.817,2.885,4.7,4.7,0,0,1-3.974-1.257c-1.987-1.835-2.049-4.041-2.481-7.762A5.051,5.051,0,0,1,163.914,144C167.669,145.339,168.477,150.867,167.854,154.252Z" transform="translate(-130.07 -141.022)"/>
      <path id="Path_505" data-name="Path 505" class="cls-6" d="M147.425,153.421a37.139,37.139,0,0,1-3.845,7.936,3.3,3.3,0,0,1,1.078-.668,1.364,1.364,0,0,1,1.313,0c.2.123.337.314.533.438a1.341,1.341,0,0,0,1.476-.191,3.486,3.486,0,0,0,.848-1.252c.2-.427.758-.225,1.061.14a22.568,22.568,0,0,1-.561-6.774,1.544,1.544,0,0,0-1.313-.415C147.615,152.675,147.559,153.079,147.425,153.421Z" transform="translate(-124.121 -144.934)"/>
      <path id="Path_506" data-name="Path 506" class="cls-9" d="M147.425,153.421a37.139,37.139,0,0,1-3.845,7.936,3.3,3.3,0,0,1,1.078-.668,1.364,1.364,0,0,1,1.313,0c.2.123.337.314.533.438a1.341,1.341,0,0,0,1.476-.191,3.486,3.486,0,0,0,.848-1.252c.2-.427.758-.225,1.061.14a22.568,22.568,0,0,1-.561-6.774,1.544,1.544,0,0,0-1.313-.415C147.615,152.675,147.559,153.079,147.425,153.421Z" transform="translate(-124.121 -144.934)"/>
      <path id="Path_507" data-name="Path 507" class="cls-20" d="M172.527,159.817a5.1,5.1,0,0,1-3.817,2.885,1.594,1.594,0,0,1,.247-.786,22.946,22.946,0,0,0,1.925-3.929,6.887,6.887,0,0,0,.331-3.036c-.034-.219-.432-1.123-.326-1.3.185-.281.7-.1.859.118A57.3,57.3,0,0,1,172.527,159.817Z" transform="translate(-135.147 -145.324)"/>
      <path id="Path_508" data-name="Path 508" class="cls-13" d="M162.913,140.6a2.34,2.34,0,0,0-4.456-.084,4.517,4.517,0,0,0-4.456.129c-6.017,4.221-3.317,7.487-2.486,6.948-1.746,2.9-.034,3.57.7,3.457-.494.157-.92,1.414.079,2.627,2.941,3.564,6.623,3.1,8.57.387.836.612,2.032-.393,2.1-1.426a8.989,8.989,0,0,0-.763-2.975c-.281-.993-.763-2.161.185-2.576.286.387.606,1.123.9,1.493.253-.78.775-2.138.4-2.868C167.212,141.59,162.913,140.6,162.913,140.6Z" transform="translate(-127.021 -138.928)"/>
      <path id="Path_509" data-name="Path 509" class="cls-16" d="M170.617,153.361c1.033.466,1.426,2.088,1.358,3.087-.067,1.123-.881,1.717-1.768.864a4.316,4.316,0,0,1-1.24-2.436C168.827,153.765,169.579,152.9,170.617,153.361Z" transform="translate(-135.252 -145.205)"/>
      <path id="Path_510" data-name="Path 510" class="cls-16" d="M116.934,384.04l3.356,1.2-3.334,8.632-3.356-1.2Z" transform="translate(-110.968 -246.469)"/>
      <path id="Path_511" data-name="Path 511" class="cls-6" d="M120.7,401a.1.1,0,0,1,0-.107.09.09,0,0,1,.1-.045c.062,0,1.549.23,1.942.752a.443.443,0,0,1,.1.342.354.354,0,0,1-.23.314,1.543,1.543,0,0,1-1.05-.466A6.33,6.33,0,0,1,120.7,401Zm.314.073c.483.511,1.246,1.094,1.532,1.01.034,0,.1-.045.1-.168a.264.264,0,0,0-.056-.2.562.562,0,0,0-.123-.129A3.985,3.985,0,0,0,121.012,401.073Z" transform="translate(-114.074 -253.843)"/>
      <path id="Path_512" data-name="Path 512" class="cls-6" d="M120.72,400.315a.079.079,0,0,1,0-.084,2.316,2.316,0,0,1,1.341-.791.668.668,0,0,1,.483.185c.174.174.157.314.107.4-.2.382-1.409.471-1.891.348h0A.062.062,0,0,1,120.72,400.315Zm1.347-.679a2.026,2.026,0,0,0-1.123.617c.561.062,1.409-.067,1.527-.292,0,0,.045-.079-.073-.191a.073.073,0,0,0-.039-.034.461.461,0,0,0-.292-.09Z" transform="translate(-114.086 -253.226)"/>
      <path id="Path_513" data-name="Path 513" class="cls-13" d="M116.066,398.681a10.965,10.965,0,0,0,2.352,5.411c.387.528-1.027,1.386-2.183.337-1.914-1.684-.645-.73-2.245-2.183-1.4-1.24-3.682-3.081-4.866-3.979a.562.562,0,0,1-.112-.112.522.522,0,0,1,.112-.73l2.806-2.1a.348.348,0,0,1,.421,0l3.238,2.548A1.263,1.263,0,0,1,116.066,398.681Z" transform="translate(-108.91 -251.389)"/>
      <path id="Path_514" data-name="Path 514" class="cls-16" d="M214.445,193.075l-.937-2.015-4.007,2.475s1.319,2.7,4.058,2.408l.612-.735a2.009,2.009,0,0,0,.275-2.133Z" transform="translate(-153.043 -161.801)"/>
      <path id="Path_515" data-name="Path 515" class="cls-16" d="M208.879,189.287l-.9.775a1.291,1.291,0,0,0-.135,1.818l.1.1.7.645,4.007-2.475-2.4-1.05a1.308,1.308,0,0,0-1.364.185Z" transform="translate(-152.18 -160.892)"/>
      <path id="Path_516" data-name="Path 516" class="cls-13" d="M208.937,191.338h-4.389a.314.314,0,0,1-.32-.354l.819-9.4a.393.393,0,0,1,.387-.354h4.389a.314.314,0,0,1,.32.354l-.819,9.4A.393.393,0,0,1,208.937,191.338Z" transform="translate(-150.729 -157.488)"/>
      <path id="Path_517" data-name="Path 517" class="cls-6" d="M209.153,191.07H205l.8-9.12h4.153Z" transform="translate(-151.069 -157.804)"/>
      <path id="Path_518" data-name="Path 518" class="cls-13" d="M210.085,181.96h-1.863l-.062-.32h2.026Z" transform="translate(-152.455 -157.668)"/>
      <path id="Path_519" data-name="Path 519" class="cls-19" d="M118.2,384.04l-1.717,4.451,3.351,1.2,1.723-4.451Z" transform="translate(-112.231 -246.469)"/>
      <path id="Path_520" data-name="Path 520" class="cls-6" d="M133.93,237s-5.276,27.928-7.01,40.59C122.161,292.913,115.65,321,115.65,321l6.09,3.3s13.886-35.8,16.507-47.578c2.408-10.754,8.7-39.726,8.7-39.726Z" transform="translate(-111.867 -181.957)"/>
      <path id="Path_521" data-name="Path 521" class="cls-18" d="M161.475,260.941c-1.981,9.059-4.451,20.368-5.764,26.244-.056.281-.129.561-.2.881-.084-9.816.449-26.548,5.2-27.182a1.751,1.751,0,0,1,.763.056Z" transform="translate(-129.354 -192.428)"/>
      <path id="Path_522" data-name="Path 522" class="cls-6" d="M160.53,237s2.627,27.8,3.1,40.618c.432,11.747,1.476,50.221,1.476,50.221H171.5s3.368-39.17,3.631-51.142c.253-11.523-1.341-39.7-1.341-39.7Z" transform="translate(-131.558 -181.957)"/>
      <path id="Path_523" data-name="Path 523" class="cls-13" d="M133.93,237s-5.276,27.928-7.01,40.59C122.161,292.913,115.65,321,115.65,321l6.09,3.3s13.886-35.8,16.507-47.578c2.408-10.754,8.7-39.726,8.7-39.726Z" transform="translate(-111.867 -181.957)"/>
      <path id="Path_524" data-name="Path 524" class="cls-13" d="M160.53,237s2.627,27.8,3.1,40.618c.432,11.747,1.476,50.221,1.476,50.221H171.5s3.368-39.17,3.631-51.142c.253-11.523-1.341-39.7-1.341-39.7Z" transform="translate(-131.558 -181.957)"/>
      <path id="Path_525" data-name="Path 525" class="cls-15" d="M178.268,184.464a46.219,46.219,0,0,0,2.958,3.671c1.044,1.179,2.127,2.324,3.278,3.452s2.312,2.195,3.592,3.368l-.78-.483a.915.915,0,0,0,.5.135,3.452,3.452,0,0,0,.988-.118,11.826,11.826,0,0,0,2.5-1.016,28.421,28.421,0,0,0,2.587-1.577c.864-.561,1.729-1.2,2.531-1.8l2.071,1.936c-.359.5-.707.937-1.078,1.369s-.752.876-1.151,1.285a23.28,23.28,0,0,1-2.621,2.369A14.436,14.436,0,0,1,190.352,199a8.979,8.979,0,0,1-2.195.561,5.9,5.9,0,0,1-2.705-.3l-.359-.124-.432-.359c-1.212-1-2.565-2.094-3.861-3.233s-2.559-2.352-3.755-3.626a46.764,46.764,0,0,1-3.4-4.03C172.593,186.462,177.37,183.19,178.268,184.464Z" transform="translate(-137.245 -158.78)"/>
      <path id="Path_526" data-name="Path 526" class="cls-6" d="M177.355,179.188c4.007,3.02,6.982,9.407,6.982,9.407l-8.077,4.428s-6.219-4.535-6.584-9.957C169.408,178.952,172.4,175.478,177.355,179.188Z" transform="translate(-135.564 -155.901)"/>
      <path id="Path_527" data-name="Path 527" class="cls-19" d="M177.355,179.188c4.007,3.02,6.982,9.407,6.982,9.407l-8.077,4.428s-6.219-4.535-6.584-9.957C169.408,178.952,172.4,175.478,177.355,179.188Z" transform="translate(-135.564 -155.901)"/>
    </g>
    <rect id="Rectangle_47" data-name="Rectangle 47" class="cls-13" width="6.067" height="2.116" rx="1.058" transform="translate(43.705 149.277)"/>
    <rect id="Rectangle_48" data-name="Rectangle 48" class="cls-13" width="6.067" height="2.116" rx="1.058" transform="translate(13.831 142.576) rotate(36.08)"/>
    <path id="Path_528" data-name="Path 528" class="cls-6" d="M125.8,175.437c-4.271,2.919-7.24,7.442-9.154,12.247s-2.851,9.94-3.783,15.025a14.172,14.172,0,0,0,8.851,1.79,8.442,8.442,0,0,1,.129,6.275c-.651,2.043-1.723,3.929-2.559,5.9-2.436,5.792-2.705,12.224-3.721,18.432-2.806,17.169-11.848,30.869-25.026,42.229a13.681,13.681,0,0,0,9.642,6.2c3.833.589,7.734.09,11.6-.067s7.908.045,11.343,1.83c3.188,1.656,5.613,4.552,8.823,6.174,4.6,2.312,10.063,1.684,15.154,1a334.715,334.715,0,0,0-.685-92.422c-.14-1-.427-2.037-.64-3.031a8.838,8.838,0,0,0,11.147-2.043c2.34-2.975-.561-7.773-3.435-10.226l.561.2c-.561,1.072-2.947.415-3.732-.5a8.989,8.989,0,0,1-1.325-3.339,10.181,10.181,0,0,0-11-6.786C134.195,173.085,129.115,173.17,125.8,175.437Z" transform="translate(-90.54 -153.531)"/>
    <path id="Path_529" data-name="Path 529" class="cls-21" d="M203.281,193.711a.562.562,0,0,1-.14.185c-.14-.129-.281-.258-.421-.376Z" transform="translate(-139.758 -162.303)"/>
    <path id="Path_530" data-name="Path 530" class="cls-7" d="M156.937,194.987a8.845,8.845,0,0,1-11.147,2.043c.208.993.5,2.032.64,3.031a334.5,334.5,0,0,1,.685,92.422c-5.1.685-10.568,1.313-15.154-1-3.216-1.616-5.613-4.49-8.823-6.174-3.441-1.79-7.47-2-11.343-1.835s-7.768.634-11.6.067a13.667,13.667,0,0,1-9.654-6.2c13.178-11.354,22.2-25.06,25.026-42.229,1.021-6.2,1.285-12.634,3.727-18.426.825-1.981,1.908-3.856,2.554-5.9a8.524,8.524,0,0,0-.123-6.275h-.213a14.071,14.071,0,0,1-5.512-.477h-.045a13.847,13.847,0,0,1-3.087-1.313c0-.067.028-.129.034-.2A77.849,77.849,0,0,1,116.65,187.7a30.694,30.694,0,0,1,3.957-7.184,21.845,21.845,0,0,1,5.2-5.051c3.306-2.245,8.391-2.352,12.2-1.122a10.187,10.187,0,0,1,11,6.763,8.924,8.924,0,0,0,1.325,3.334c.791.909,2.879,1.493,3.592.685C156.656,187.679,159.165,192.158,156.937,194.987Z" transform="translate(-90.54 -153.544)"/>
    <path id="Path_531" data-name="Path 531" class="cls-22" d="M139.046,210.117a12.141,12.141,0,0,1-5.568-.634h-.045a11.259,11.259,0,0,1-2.89-1.515.786.786,0,0,1-.163,0,77.851,77.851,0,0,1,3.749-14.823,30.7,30.7,0,0,1,3.957-7.184,7.721,7.721,0,0,0-.685,2,41.954,41.954,0,0,0,1.588,22.013A1.213,1.213,0,0,0,139.046,210.117Z" transform="translate(-108.019 -158.986)"/>
    <path id="Path_532" data-name="Path 532" class="cls-22" d="M187.17,215.223c-4.019-4.187-5.192-9.62-5.113-15.423a29.651,29.651,0,0,0,4.108,9.2Z" transform="translate(-130.691 -165.058)"/>
    <path id="Path_533" data-name="Path 533" class="cls-22" d="M113.819,326.782c-1.122,1.555-2.38,3.519-1.577,5.276s3.368,2.1,5.051,1.167,2.75-2.705,3.687-4.411c6.662-12.134,12.045-25.139,14.088-38.833,0,0-7.745,14.649-9.5,18A145.616,145.616,0,0,1,113.819,326.782Z" transform="translate(-99.95 -204.624)"/>
    <path id="Path_534" data-name="Path 534" class="cls-22" d="M159.881,329.165a23.4,23.4,0,0,0-.887,6.948,7.876,7.876,0,0,0,3.109,6.034c1.948,1.308,4.917,1.156,6.342-.707,1.083-1.414,1.066-3.368,1-5.13-.449-12.707-.23-25.649-1.381-38.3C164.881,300.249,161.194,323.564,159.881,329.165Z" transform="translate(-120.559 -208.147)"/>
    <path id="Path_535" data-name="Path 535" class="cls-6" d="M149.111,141.152a4.019,4.019,0,0,0-2.492,2.037,3.609,3.609,0,0,0,0,3.194,3.3,3.3,0,0,0,2.621,1.774h-.185a33.541,33.541,0,0,0,13.47-2.015,6.173,6.173,0,0,0,.949-1.83,4.591,4.591,0,0,0,.241-1.807,7.549,7.549,0,0,0-.713-2.256,1.959,1.959,0,0,0-.634-.752c-1.218-.808-2.806.943-4.159,1.426a9.345,9.345,0,0,1-3.513.292C152.871,141.123,150.868,140.658,149.111,141.152Z" transform="translate(-114.981 -138.508)"/>
    <path id="Path_536" data-name="Path 536" class="cls-6" d="M158.549,138.063a7.4,7.4,0,0,1,5.377.909c.376.236.758.589.73,1.027s-.443.746-.831.954a11.831,11.831,0,0,1-8.789,1,2.874,2.874,0,0,1-1.05-.477c-1.123-.915.645-1.712,1.381-2.155A9.878,9.878,0,0,1,158.549,138.063Z" transform="translate(-118.217 -137.9)"/>
    <path id="Path_537" data-name="Path 537" class="cls-9" d="M158.549,138.063a7.4,7.4,0,0,1,5.377.909c.376.236.758.589.73,1.027s-.443.746-.831.954a11.831,11.831,0,0,1-8.789,1,2.874,2.874,0,0,1-1.05-.477c-1.123-.915.645-1.712,1.381-2.155A9.878,9.878,0,0,1,158.549,138.063Z" transform="translate(-118.217 -137.9)"/>
    <path id="Path_538" data-name="Path 538" class="cls-9" d="M156.989,149.151a9.951,9.951,0,0,1-6.034-.421,2.3,2.3,0,0,1-1.515-1.33,12.482,12.482,0,0,0,7.549,1.751Z" transform="translate(-116.382 -142.068)"/>
    <path id="Path_539" data-name="Path 539" class="cls-9" d="M162.43,150.057a9.984,9.984,0,0,0,5.944-1.122,2.335,2.335,0,0,0,1.347-1.5,12.466,12.466,0,0,1-7.291,2.627Z" transform="translate(-122.081 -142.081)"/>
  </g>
  <g id="freepik--Plant--inject-147" transform="translate(162.944 155.693)">
    <path id="Path_540" data-name="Path 540" class="cls-6" d="M311.715,354.536c-1.5-7.117-7.223-11.433-13.055-15.771,3.547,6.084,7.723,11.657,9.592,18.449a32.913,32.913,0,0,0-9.6-8.98s5.388,10.462,7.448,12.488a27.216,27.216,0,0,0-15.783-8.043c11.292,7.5,15.311,14.525,16.838,18.69A5.124,5.124,0,0,0,312,374.68l11.955-.084a5.158,5.158,0,0,0,4.776-3.368c2.088-5.613,5.73-10.473,11.141-13.246-4.546,1.268-8.374,2.195-11.107,6.045,1.684-5.613,4.591-8.885,9.968-11.259-5,.808-9.923,2.66-11.96,7.3a18.03,18.03,0,0,1,7.431-13.274c-4.277.645-8.385,3.693-9.2,7.942-.146-5.663.46-11.365,3.553-16.108a17.786,17.786,0,0,0-7.751,12.168c-1.33-4.877-1.992-12.011-7.672-18.392a39.809,39.809,0,0,1,2,17.225c-.483-2.969-4.939-10.524-9.193-13.279C305.951,336.329,312.164,347.4,311.715,354.536Z" transform="translate(-290.32 -332.4)"/>
    <path id="Path_541" data-name="Path 541" class="cls-6" d="M307.484,393.45a17.4,17.4,0,0,1,5.4,4.215,11.859,11.859,0,0,0-5.433.258l6.595.887a6.129,6.129,0,0,0-3.772,1.948,11.338,11.338,0,0,1,5.517-.253,7.3,7.3,0,0,0,2.015.275,1.729,1.729,0,0,0,1.577-1.095,2.11,2.11,0,0,0-.359-1.605C316.739,394.163,311.6,393.562,307.484,393.45Z" transform="translate(-297.836 -359.185)"/>
    <path id="Path_542" data-name="Path 542" class="cls-6" d="M360.333,394.87a19.835,19.835,0,0,1-5.472,3.57,14.957,14.957,0,0,1,6.286.387,12.87,12.87,0,0,1-5.613.926,9.149,9.149,0,0,1,3.4,1.51l-7.672.741a2.655,2.655,0,0,1,.2-2.245C352.919,397.272,357.735,395.622,360.333,394.87Z" transform="translate(-316.987 -359.808)"/>
    <g id="Group_9" data-name="Group 9" class="cls-23" transform="translate(0 0)">
      <path id="Path_543" data-name="Path 543" class="cls-11" d="M311.715,354.536c-1.5-7.117-7.223-11.433-13.055-15.771,3.547,6.084,7.723,11.657,9.592,18.449a32.913,32.913,0,0,0-9.6-8.98s5.388,10.462,7.448,12.488a27.216,27.216,0,0,0-15.783-8.043c11.292,7.5,15.311,14.525,16.838,18.69A5.124,5.124,0,0,0,312,374.68l11.955-.084a5.158,5.158,0,0,0,4.776-3.368c2.088-5.613,5.73-10.473,11.141-13.246-4.546,1.268-8.374,2.195-11.107,6.045,1.684-5.613,4.591-8.885,9.968-11.259-5,.808-9.923,2.66-11.96,7.3a18.03,18.03,0,0,1,7.431-13.274c-4.277.645-8.385,3.693-9.2,7.942-.146-5.663.46-11.365,3.553-16.108a17.786,17.786,0,0,0-7.751,12.168c-1.33-4.877-1.992-12.011-7.672-18.392a39.809,39.809,0,0,1,2,17.225c-.483-2.969-4.939-10.524-9.193-13.279C305.951,336.329,312.164,347.4,311.715,354.536Z" transform="translate(-290.32 -332.4)"/>
      <path id="Path_544" data-name="Path 544" class="cls-11" d="M307.484,393.45a17.4,17.4,0,0,1,5.4,4.215,11.859,11.859,0,0,0-5.433.258l6.595.887a6.129,6.129,0,0,0-3.772,1.948,11.338,11.338,0,0,1,5.517-.253,7.3,7.3,0,0,0,2.015.275,1.729,1.729,0,0,0,1.577-1.095,2.11,2.11,0,0,0-.359-1.605C316.739,394.163,311.6,393.562,307.484,393.45Z" transform="translate(-297.836 -359.185)"/>
      <path id="Path_545" data-name="Path 545" class="cls-11" d="M360.333,394.87a19.835,19.835,0,0,1-5.472,3.57,14.957,14.957,0,0,1,6.286.387,12.87,12.87,0,0,1-5.613.926,9.149,9.149,0,0,1,3.4,1.51l-7.672.741a2.655,2.655,0,0,1,.2-2.245C352.919,397.272,357.735,395.622,360.333,394.87Z" transform="translate(-316.987 -359.808)"/>
    </g>
  </g>
</svg>
