<svg xmlns="http://www.w3.org/2000/svg" width="195.612" height="198.741" viewBox="0 0 195.612 198.741">
  <defs>
    <style>
      .cls-1, .cls-21, .cls-22 {
        fill: #c2368c;
      }

      .cls-14, .cls-16, .cls-19, .cls-2, .cls-4, .cls-5, .cls-6 {
        fill: #fff;
      }

      .cls-2 {
        opacity: 0.7;
      }

      .cls-11, .cls-12, .cls-17, .cls-20, .cls-3, .cls-9 {
        fill: none;
      }

      .cls-3 {
        stroke: #c2368c;
      }

      .cls-11, .cls-12, .cls-14, .cls-18, .cls-20, .cls-22, .cls-3, .cls-9 {
        stroke-linecap: round;
        stroke-linejoin: round;
      }

      .cls-5 {
        opacity: 0.5;
      }

      .cls-6 {
        opacity: 0.6;
      }

      .cls-13, .cls-7 {
        fill: #999;
      }

      .cls-8 {
        fill: #737373;
      }

      .cls-11, .cls-13, .cls-14, .cls-15, .cls-17, .cls-18, .cls-19, .cls-20, .cls-21, .cls-22, .cls-9 {
        stroke: #263238;
      }

      .cls-10, .cls-15, .cls-18 {
        fill: #263238;
      }

      .cls-11 {
        stroke-width: 2px;
      }

      .cls-12 {
        stroke: #fff;
      }

      .cls-13, .cls-15, .cls-17, .cls-19, .cls-21 {
        stroke-miterlimit: 10;
      }

      .cls-16 {
        opacity: 0.2;
      }

      .cls-20 {
        stroke-width: 0.75px;
      }
    </style>
  </defs>
  <g id="Medicine-bro" transform="translate(0 0.656)">
    <g id="freepik--background-simple--inject-32" transform="translate(0 5.298)">
      <path id="Path_1062" data-name="Path 1062" class="cls-1" d="M202.135,43.086a44.948,44.948,0,0,0-44.108-2.328c-12.19,5.959-21.674,16.093-33.877,22.056-16.671,8.158-34.976,12.617-51.83,20.432s-32.987,20.063-39.03,37.633c-7.121,20.752-4.62,45.154,6.271,64.126,17.7,30.837,52.818,41.789,86.623,41.389,71.434-.841,108.23-87.357,96.574-149.534C220.213,63.389,214.009,50.469,202.135,43.086Z" transform="translate(-29.274 -36.065)"/>
      <path id="Path_1063" data-name="Path 1063" class="cls-2" d="M202.135,43.086a44.948,44.948,0,0,0-44.108-2.328c-12.19,5.959-21.674,16.093-33.877,22.056-16.671,8.158-34.976,12.617-51.83,20.432s-32.987,20.063-39.03,37.633c-7.121,20.752-4.62,45.154,6.271,64.126,17.7,30.837,52.818,41.789,86.623,41.389,71.434-.841,108.23-87.357,96.574-149.534C220.213,63.389,214.009,50.469,202.135,43.086Z" transform="translate(-29.274 -36.065)"/>
    </g>
    <g id="freepik--Graphics--inject-32" transform="translate(22.313 50.258)">
      <path id="Path_1064" data-name="Path 1064" class="cls-3" d="M105.754,306.063l-3.738.676-.734-4.05-4.442.806.734,4.05-3.734.676.832,4.6,3.734-.676.734,4.05,4.442-.8-.734-4.054,3.738-.676Z" transform="translate(-87.418 -228.991)"/>
      <path id="Path_1065" data-name="Path 1065" class="cls-3" d="M188.293,162.579l-3.583-1.264,1.371-3.881-4.255-1.5-1.371,3.881-3.583-1.264-1.553,4.406,3.578,1.264-1.371,3.885,4.255,1.5,1.375-3.881,3.578,1.264Z" transform="translate(-132.636 -147.545)"/>
      <path id="Path_1066" data-name="Path 1066" class="cls-3" d="M394.163,272.765l-3.356,1.776-1.927-3.64-3.992,2.11,1.927,3.64-3.356,1.776,2.185,4.13L389,280.78l1.927,3.636,3.992-2.11-1.927-3.64,3.356-1.776Z" transform="translate(-248.145 -211.349)"/>
      <ellipse id="Ellipse_13" data-name="Ellipse 13" class="cls-3" cx="2.724" cy="2.724" rx="2.724" ry="2.724" transform="translate(0 61.977)"/>
      <path id="Path_1067" data-name="Path 1067" class="cls-3" d="M179.062,199.751a.721.721,0,1,1-.721-.721A.721.721,0,0,1,179.062,199.751Z" transform="translate(-133.912 -171.464)"/>
      <path id="Path_1068" data-name="Path 1068" class="cls-3" d="M100.381,169.686a2.546,2.546,0,1,1-2.546-2.546,2.546,2.546,0,0,1,2.546,2.546Z" transform="translate(-88.223 -153.766)"/>
      <path id="Path_1069" data-name="Path 1069" class="cls-3" d="M355.164,248.542a1.442,1.442,0,1,1-1.442-1.442,1.442,1.442,0,0,1,1.442,1.442Z" transform="translate(-230.841 -198.141)"/>
      <ellipse id="Ellipse_14" data-name="Ellipse 14" class="cls-3" cx="3.227" cy="3.227" rx="3.227" ry="3.227" transform="translate(106.521 0)"/>
    </g>
    <g id="freepik--Character--inject-32" transform="translate(54.213 30.433)">
      <path id="Path_1070" data-name="Path 1070" class="cls-4" d="M209.2,209.51c.169.254,5.274,1.273,7.922,5.122a36.727,36.727,0,0,1,3.854,7.081,47.335,47.335,0,0,1,6.7,4.806,86.5,86.5,0,0,0,7.063,6.569c2.087,1.513,6.382,4.384,7.463,7.744,0,0-6.44,17.637-8.26,21.536s-6.311,12.172-6.311,12.172l-8.011,34.032H173.148L171.564,296.9s-14.241-2.795-20.192-8.011c0,0-.561-12.906,1.927-24.419s10.948-35.452,16.68-42.764c0,0,9.155-4.379,17.232-5.786,0,0,5.243-4.143,8.674-4.584S209.2,209.51,209.2,209.51Z" transform="translate(-151.217 -157.455)"/>
      <path id="Path_1071" data-name="Path 1071" class="cls-1" d="M197.438,385.469a57.386,57.386,0,0,0,11.923,1.42,21.154,21.154,0,0,0,11.927-3.4,7.669,7.669,0,0,1,2.225-1.291c1.825-.512,3.632.694,5.443,1.255a10.974,10.974,0,0,0,7.067-.481,32.613,32.613,0,0,0,6.284-3.511q-.445,6.142-.289,12.305l2.862.116,7.33-32.252s-12.537,14.562-18.647,18.91l-11.722-3.017a8.189,8.189,0,0,1-3.427,1.38s-1.064,4.09-7.045,4.1-14.557-.792-14.557-.792Z" transform="translate(-176.463 -240.765)"/>
      <path id="Path_1072" data-name="Path 1072" class="cls-5" d="M197.438,385.469a57.386,57.386,0,0,0,11.923,1.42,21.154,21.154,0,0,0,11.927-3.4,7.669,7.669,0,0,1,2.225-1.291c1.825-.512,3.632.694,5.443,1.255a10.974,10.974,0,0,0,7.067-.481,32.613,32.613,0,0,0,6.284-3.511q-.445,6.142-.289,12.305l2.862.116,7.33-32.252s-12.537,14.562-18.647,18.91l-11.722-3.017a8.189,8.189,0,0,1-3.427,1.38s-1.064,4.09-7.045,4.1-14.557-.792-14.557-.792Z" transform="translate(-176.463 -240.765)"/>
      <path id="Path_1073" data-name="Path 1073" class="cls-1" d="M160.186,282.47s-5.443,26.422-5.167,35.5c0,0,7.4-2.074,12.559,0,0,0-8.785-.979-12.568,3.049s7.859,14.611,31.153,12.461c0,0,4.646,1.455,7,.6,0,0-.632,4.21-7.045,4.1-6.386-.254-25.069-.409-34.749-8.794C151.379,329.386,150.16,305.1,160.186,282.47Z" transform="translate(-151.223 -197.945)"/>
      <path id="Path_1074" data-name="Path 1074" class="cls-6" d="M160.186,282.47s-5.443,26.422-5.167,35.5c0,0,7.4-2.074,12.559,0,0,0-8.785-.979-12.568,3.049s7.859,14.611,31.153,12.461c0,0,4.646,1.455,7,.6,0,0-.632,4.21-7.045,4.1-6.386-.254-25.069-.409-34.749-8.794C151.379,329.386,150.16,305.1,160.186,282.47Z" transform="translate(-151.223 -197.945)"/>
      <path id="Path_1075" data-name="Path 1075" class="cls-1" d="M196.24,293.85s1.607,11.7,4.2,14.148,14.686,1.647,19.475,4.286a39.869,39.869,0,0,1,12.661-12.7l-11.055,17.406-9.555-2.256-11.665-1.78-.979,2.252h-1.753S197.375,302.72,196.24,293.85Z" transform="translate(-176.146 -204.26)"/>
      <path id="Path_1076" data-name="Path 1076" class="cls-5" d="M196.24,293.85s1.607,11.7,4.2,14.148,14.686,1.647,19.475,4.286a39.869,39.869,0,0,1,12.661-12.7l-11.055,17.406-9.555-2.256-11.665-1.78-.979,2.252h-1.753S197.375,302.72,196.24,293.85Z" transform="translate(-176.146 -204.26)"/>
      <path id="Path_1077" data-name="Path 1077" class="cls-1" d="M240.515,238.6c5,2.942,5.559,6.257,6.587,8.625-2.6.516-5.287,1.068-7.432,2.621-2.67,1.94-4.117,5.154-5.238,8.273a82.443,82.443,0,0,0-2.67,9.017A30.979,30.979,0,0,1,241.77,256.3c2.4-1.584,5.363-2.862,8.1-1.967-2.3.975-4.9,2.292-5.381,4.74a2.3,2.3,0,0,0,.049,1.228c.409,1.153,1.842,1.464,2.928,2.025a6.891,6.891,0,0,1,3.316,5.955,20.475,20.475,0,0,1-1.366,6.974l-1.914,5.955a29.207,29.207,0,0,1-3.115,7.334,9.853,9.853,0,0,1-6.315,4.526,5.5,5.5,0,0,1-3.262-.369,10.826,10.826,0,0,1-2.15-1.535,22.252,22.252,0,0,0-10.966-4.735c5.171,3.418,7.619,9.626,9.764,15.443a11.371,11.371,0,0,0-4.117-4.166,2.63,2.63,0,0,0-1.5-.472c-1.406.111-1.851,1.9-2.7,3.026a4.91,4.91,0,0,1-4.535,1.6,14.172,14.172,0,0,1-4.691-1.78l-18.919-9.755-1.335,4.005A93.724,93.724,0,0,0,231.828,310.6s15-11.852,20.312-22.359,13.569-32.043,13.569-32.043-3.022-5.723-8.2-8.71c0,0-3.867-1.829-4.682-4.09s-8.082-6.164-8.082-6.164S245.687,239.642,240.515,238.6Z" transform="translate(-174.72 -172.838)"/>
      <path id="Path_1078" data-name="Path 1078" class="cls-6" d="M240.515,238.6c5,2.942,5.559,6.257,6.587,8.625-2.6.516-5.287,1.068-7.432,2.621-2.67,1.94-4.117,5.154-5.238,8.273a82.443,82.443,0,0,0-2.67,9.017A30.979,30.979,0,0,1,241.77,256.3c2.4-1.584,5.363-2.862,8.1-1.967-2.3.975-4.9,2.292-5.381,4.74a2.3,2.3,0,0,0,.049,1.228c.409,1.153,1.842,1.464,2.928,2.025a6.891,6.891,0,0,1,3.316,5.955,20.475,20.475,0,0,1-1.366,6.974l-1.914,5.955a29.207,29.207,0,0,1-3.115,7.334,9.853,9.853,0,0,1-6.315,4.526,5.5,5.5,0,0,1-3.262-.369,10.826,10.826,0,0,1-2.15-1.535,22.252,22.252,0,0,0-10.966-4.735c5.171,3.418,7.619,9.626,9.764,15.443a11.371,11.371,0,0,0-4.117-4.166,2.63,2.63,0,0,0-1.5-.472c-1.406.111-1.851,1.9-2.7,3.026a4.91,4.91,0,0,1-4.535,1.6,14.172,14.172,0,0,1-4.691-1.78l-18.919-9.755-1.335,4.005A93.724,93.724,0,0,0,231.828,310.6s15-11.852,20.312-22.359,13.569-32.043,13.569-32.043-3.022-5.723-8.2-8.71c0,0-3.867-1.829-4.682-4.09s-8.082-6.164-8.082-6.164S245.687,239.642,240.515,238.6Z" transform="translate(-174.72 -172.838)"/>
      <path id="Path_1079" data-name="Path 1079" class="cls-7" d="M254.448,124.942s1.01-11.78-4.068-12.906-7.931-5.786-7.931-5.786l-18.015,5.029-2.795,10.832,1.78,5.483s.374,5.087.445,7.6,0,4.45,1.9,7.5,3.676,6.084,7.793,8.723v6.938s-2.546,7.428-1.139,11.985c0,0,.841.89,3.164-.445s12.261-7.975,15.728-14.909l1.077-17.628a3.974,3.974,0,0,0,4.094-2.163,9.089,9.089,0,0,0,1.037-7.944c-.7-2.421-3.729-.854-3.729-.854Z" transform="translate(-190.242 -100.15)"/>
      <path id="Path_1080" data-name="Path 1080" class="cls-8" d="M248.87,181.47a5.016,5.016,0,0,1,4.041-1.611s2.167-3.422,4.45-2.795c0,0,.7,3.627-2.034,5.056A5.962,5.962,0,0,1,248.87,181.47Z" transform="translate(-205.354 -139.406)"/>
      <path id="Path_1081" data-name="Path 1081" class="cls-9" d="M228.75,114.18s-4.312,5.665-4.063,11.571,1.108,10.094.859,14.651,4.557,12.19,9.484,15.265a10.989,10.989,0,0,0,11.878-.445c4.005-2.67,6.208-7.468,7.014-12.074.08-.445.142-.89.187-1.371" transform="translate(-191.928 -104.551)"/>
      <path id="Path_1082" data-name="Path 1082" class="cls-9" d="M246.44,190.007s.7,6.382,0,8.567c-.77,2.4-1.7,7.984-.89,10.507s15.964-8.082,18.892-15.358c0,0,.4-14.139,1.415-17.673" transform="translate(-203.338 -138.886)"/>
      <path id="Path_1083" data-name="Path 1083" class="cls-9" d="M247,180.267a8.085,8.085,0,0,0,9.715-5.167" transform="translate(-204.316 -138.359)"/>
      <path id="Path_1084" data-name="Path 1084" class="cls-10" d="M248.25,195.3s1.469,4.553,4.637,4.824,11.095-6.079,13.8-13.56V182.82s-2.225,9.791-8.741,11.571-9.564-.485-9.564-.485Z" transform="translate(-205.01 -142.643)"/>
      <path id="Path_1085" data-name="Path 1085" class="cls-9" d="M257.351,177.146c-3.062-.214-4.45,2.795-4.45,2.795a4.531,4.531,0,0,0-4.041,1.611,5.474,5.474,0,0,0,5.648,1.024C257.988,181.365,257.351,177.146,257.351,177.146Z" transform="translate(-205.348 -139.489)"/>
      <path id="Path_1086" data-name="Path 1086" class="cls-9" d="M247.915,147a29.789,29.789,0,0,1-.187,4.228,15.149,15.149,0,0,1-1.233,3.649c-.445,1.077-1.188,2.733-.57,3.867.7,1.286,3.04,0,3.04,0" transform="translate(-203.589 -122.765)"/>
      <path id="Path_1087" data-name="Path 1087" class="cls-9" d="M256.28,171.086a1.661,1.661,0,0,0,2.127-1.366" transform="translate(-209.466 -135.373)"/>
      <path id="Path_1088" data-name="Path 1088" class="cls-11" d="M262,141.769a4.094,4.094,0,0,1,5.652,0" transform="translate(-212.64 -119.234)"/>
      <path id="Path_1089" data-name="Path 1089" class="cls-11" d="M235.81,144.2s-2.087-2.67-4.82,0" transform="translate(-195.431 -120.552)"/>
      <path id="Path_1090" data-name="Path 1090" class="cls-9" d="M287.13,155.035s2.381-5.719,5.487-4.49c2.141.85,2.27,4.544,1.135,7.121s-1.7,5.2-5.487,3.734" transform="translate(-226.587 -124.636)"/>
      <path id="Path_1091" data-name="Path 1091" class="cls-10" d="M249.3,122.066s-2.287-.81-2.71-4.526,1.856-7.437,1.01-10.107-7.508-1.335-9.025-5.99c0,0-5,3.729-14.686,2.928a22.837,22.837,0,0,0-2.4,5.608,34.479,34.479,0,0,0,.036,10.027,1.849,1.849,0,0,0,.062.343c.694,3.623-2.764-4.931-2.67-8.585s-2.109-8.3.761-11.754,13.4-5.483,15.47-7.107,6.106,2.7,10.766,4.295,8.523,3.494,7.935,10.1.031,7.495.058,10.975C253.9,118.283,251.747,117.473,249.3,122.066Z" transform="translate(-188.329 -92.544)"/>
      <path id="Path_1092" data-name="Path 1092" class="cls-10" d="M266.455,151.974c0,.89-.343,1.629-.77,1.629s-.765-.73-.765-1.629.343-1.624.765-1.624S266.455,151.084,266.455,151.974Z" transform="translate(-214.261 -124.624)"/>
      <path id="Path_1093" data-name="Path 1093" class="cls-10" d="M239.911,151.974c0,.89-.343,1.629-.765,1.629s-.766-.73-.766-1.629.343-1.624.766-1.624S239.911,151.084,239.911,151.974Z" transform="translate(-199.532 -124.624)"/>
      <path id="Path_1094" data-name="Path 1094" class="cls-9" d="M262,158.88a6.809,6.809,0,0,0,3.6,1.927" transform="translate(-212.64 -129.358)"/>
      <path id="Path_1095" data-name="Path 1095" class="cls-9" d="M237.68,160.807s2.906-.2,3.56-1.927" transform="translate(-199.144 -129.358)"/>
      <path id="Path_1096" data-name="Path 1096" class="cls-9" d="M252.86,230.28c2.163-1.375,5.025-.859,7.392.116,1.3.539,2.537,1.215,3.832,1.78a14.1,14.1,0,0,0,1.976.7c1.624.423,1.041-1.593.948-2.5-.134-1.3-.227-2.595-.383-3.881a1.171,1.171,0,0,1,.089-.792,1.1,1.1,0,0,1,.632-.387c2.853-.89,5.928-.5,8.9-.445a1.335,1.335,0,0,0,.783-.147c.445-.289.4-.944.276-1.46a18.424,18.424,0,0,0-8.6-10.97" transform="translate(-207.568 -159.003)"/>
      <path id="Path_1097" data-name="Path 1097" class="cls-9" d="M238.422,213.9a26.587,26.587,0,0,0-5.67,2.924,10.935,10.935,0,0,0-1.687,1.522,2.377,2.377,0,0,0-.725,1.473,1.753,1.753,0,0,0,.708,1.335,4.512,4.512,0,0,0,.979.614c.819.387,1.78.766,2.127,1.589a.965.965,0,0,1,.089.556,1.023,1.023,0,0,1-.249.445c-.676.823-1.869,1.46-1.78,2.523.058.823.89,1.335,1.629,1.7s1.6.743,1.856,1.531" transform="translate(-195.07 -159.891)"/>
      <path id="Path_1098" data-name="Path 1098" class="cls-12" d="M222.39,110.424c.289-1.78,2.15-2.928,3.939-3.218s3.627,0,5.43-.156a10.583,10.583,0,0,0,7.592-4.41" transform="translate(-190.659 -98.147)"/>
      <path id="Path_1099" data-name="Path 1099" class="cls-12" d="M226.94,103.512c3.231-1.909,7.77.076,10.921-1.963a9.849,9.849,0,0,0,2.3-2.35" transform="translate(-193.184 -96.238)"/>
      <path id="Path_1100" data-name="Path 1100" class="cls-9" d="M282.645,273c-11.571,2.31-15.888,10.823-15.888,10.823L253.05,305.412" transform="translate(-207.674 -192.689)"/>
      <path id="Path_1101" data-name="Path 1101" class="cls-9" d="M297.57,265.019a13.145,13.145,0,0,1,3.227-2.2" transform="translate(-232.38 -187.04)"/>
      <path id="Path_1102" data-name="Path 1102" class="cls-9" d="M279.39,287.493s1.46-7.8,5.652-13.543" transform="translate(-222.291 -193.216)"/>
      <path id="Path_1103" data-name="Path 1103" class="cls-9" d="M195.9,307.425s-.6-23.885-2.67-27.535" transform="translate(-174.476 -196.513)"/>
      <path id="Path_1104" data-name="Path 1104" class="cls-9" d="M244.226,236.93s6.676,4.005,9.64,7.77,9.969,6.266,11.571,11.349c0,0-9.226,29.07-18.892,39.578s-14.989,14.82-14.989,14.82S208.3,306.406,193.22,293.74l5.394-12.394s15.207,1.923,21.22,4.059,11.722,15.074,11.722,15.074" transform="translate(-174.47 -172.672)"/>
      <path id="Path_1105" data-name="Path 1105" class="cls-9" d="M253.05,345.85s10.645,2.069,14.1,6.916" transform="translate(-207.674 -233.118)"/>
      <path id="Path_1106" data-name="Path 1106" class="cls-9" d="M252.471,357.05l-7.592,33.4H198.394l-1.584-11.674" transform="translate(-176.463 -239.333)"/>
      <path id="Path_1107" data-name="Path 1107" class="cls-9" d="M193.04,301.572c-2.568,5.26-5.955,4.1-5.955,4.1-26.191.992-35.839-8.794-35.839-8.794s-1.335-13.765,3.814-32.341a162.979,162.979,0,0,1,14.793-34.842c4.277-2.844,13.819-5.065,16.511-5.652l.721-.151" transform="translate(-151.09 -165.435)"/>
      <path id="Path_1108" data-name="Path 1108" class="cls-9" d="M230.641,395.924s-1.384-.227-1.032-9.4" transform="translate(-194.633 -255.688)"/>
      <path id="Path_1109" data-name="Path 1109" class="cls-9" d="M176.576,365.315s-6.542-2.305-14.646,3.3" transform="translate(-157.106 -243.66)"/>
      <path id="Path_1110" data-name="Path 1110" class="cls-9" d="M165.23,360.41s8.572-2.55,12.461,1.535" transform="translate(-158.937 -240.762)"/>
      <path id="Path_1111" data-name="Path 1111" class="cls-13" d="M183.68,351.8l1.113.556,4.237-10.583s-4.388-.716-11.34,7.94A9.973,9.973,0,0,1,183.68,351.8Z" transform="translate(-165.852 -230.847)"/>
      <path id="Path_1112" data-name="Path 1112" class="cls-13" d="M229.65,386.52v4.7s5.995,1.78,10.432-.779Z" transform="translate(-194.688 -255.688)"/>
      <path id="Path_1113" data-name="Path 1113" class="cls-10" d="M276.827,240.356a.85.85,0,0,1-.027.258c-.187.734-4.757,17.989-19.386,25.666a.863.863,0,0,1-.414.1.89.89,0,0,1-.414-1.678c13.351-7,18.055-22.955,18.465-24.424Z" transform="translate(-209.372 -174.531)"/>
      <path id="Path_1114" data-name="Path 1114" class="cls-10" d="M225.132,226.7a43.833,43.833,0,0,0-3.672,16.734v1.789a2.994,2.994,0,0,0-.4.04,4.721,4.721,0,0,0-1.384.445v-1.918a43.514,43.514,0,0,1,4.762-19.72l.721-.151a2.377,2.377,0,0,0-.725,1.473,1.753,1.753,0,0,0,.694,1.308Z" transform="translate(-189.155 -165.452)"/>
      <path id="Path_1115" data-name="Path 1115" class="cls-14" d="M261.269,288.37c1.041,1.446.187,3.85-1.914,5.367s-4.646,1.571-5.692.125-.191-3.85,1.909-5.367S260.241,286.924,261.269,288.37Z" transform="translate(-207.766 -200.636)"/>
      <path id="Path_1116" data-name="Path 1116" class="cls-14" d="M258.449,286.827c.739,1.024.134,2.724-1.335,3.8s-3.289,1.113-4.005.089-.134-2.724,1.335-3.8S257.711,285.807,258.449,286.827Z" transform="translate(-207.537 -199.951)"/>
      <path id="Path_1117" data-name="Path 1117" class="cls-15" d="M218.555,294.734a.89.89,0,0,1-1.064-1.424c.076-.062,3.062-2.6,1.753-11.162-.111-.725-.254-1.5-.445-2.314-.565-2.595-1.437-5.879-3.222-8.291a4.45,4.45,0,0,0-3.894-1.976,2.988,2.988,0,0,0-.4.04,4.721,4.721,0,0,0-1.384.445,5.745,5.745,0,0,0-2.813,3.284l-.16.445a65.136,65.136,0,0,0-2.47,8.362c-.712,3.494-.952,7.156.312,9.715a5.563,5.563,0,0,0,3.454,2.924.889.889,0,1,1-.552,1.691,7.343,7.343,0,0,1-4.495-3.827c-1.424-2.879-1.237-6.8-.516-10.5a62.465,62.465,0,0,1,2.59-8.954l.16-.445a7.361,7.361,0,0,1,4.49-4.615,6.307,6.307,0,0,1,1.117-.276c.227-.031.445-.053.676-.067a6.231,6.231,0,0,1,5.314,2.71c1.985,2.67,2.928,6.2,3.529,8.968.209.952.369,1.847.49,2.693C222.436,291.753,218.729,294.61,218.555,294.734Z" transform="translate(-179.405 -189.795)"/>
      <path id="Path_1118" data-name="Path 1118" class="cls-15" d="M213.508,329.366s3.227,1.335,4.045,0,.156-1.963-.961-2.069a32.68,32.68,0,0,0-3.342,0Z" transform="translate(-185.586 -222.798)"/>
      <path id="Path_1119" data-name="Path 1119" class="cls-14" d="M208.825,313.841a.887.887,0,0,1-1.122.57,7.343,7.343,0,0,1-4.495-3.827c-1.424-2.879-1.237-6.8-.516-10.5h1.78c-.712,3.494-.952,7.156.312,9.715a5.563,5.563,0,0,0,3.454,2.924.89.89,0,0,1,.587,1.122Z" transform="translate(-179.422 -207.718)"/>
      <path id="Path_1120" data-name="Path 1120" class="cls-15" d="M231.946,323.648a1.482,1.482,0,0,0-.334,1.162,1.357,1.357,0,0,0,1.442.97,2.554,2.554,0,0,0,1.62-.89c.445-.5,1.989-3.761.561-3.2A8.056,8.056,0,0,0,231.946,323.648Z" transform="translate(-195.768 -219.674)"/>
      <path id="Path_1121" data-name="Path 1121" class="cls-14" d="M237.336,312.646a.89.89,0,0,1-1.064-1.424c.076-.062,3.062-2.6,1.753-11.162h1.78C241.216,309.664,237.509,312.521,237.336,312.646Z" transform="translate(-198.185 -207.706)"/>
      <path id="Path_1122" data-name="Path 1122" class="cls-16" d="M256.89,149.977s5.6-2.911,10.752,0c0,0,.085,4.295-1.86,6.061-.69.628-3.85.734-5.047.628C255.876,156.225,256.89,149.977,256.89,149.977Z" transform="translate(-209.756 -123.699)"/>
      <path id="Path_1123" data-name="Path 1123" class="cls-16" d="M235.7,149.977s-5.6-2.911-10.748,0c0,0-.085,4.295,1.856,6.061.69.628,3.854.734,5.047.628C236.712,156.225,235.7,149.977,235.7,149.977Z" transform="translate(-192.079 -123.699)"/>
      <path id="Path_1124" data-name="Path 1124" class="cls-17" d="M256.89,149.977s5.6-2.911,10.752,0c0,0,.085,4.295-1.86,6.061-.69.628-3.85.734-5.047.628C255.876,156.225,256.89,149.977,256.89,149.977Z" transform="translate(-209.756 -123.699)"/>
      <path id="Path_1125" data-name="Path 1125" class="cls-17" d="M235.7,149.977s-5.6-2.911-10.748,0c0,0-.085,4.295,1.856,6.061.69.628,3.854.734,5.047.628C236.712,156.225,235.7,149.977,235.7,149.977Z" transform="translate(-192.079 -123.699)"/>
      <path id="Path_1126" data-name="Path 1126" class="cls-17" d="M249.1,151.079s1.255-.921,3.516,0" transform="translate(-205.481 -124.801)"/>
      <line id="Line_3" data-name="Line 3" class="cls-17" x2="2.341" y2="1.086" transform="translate(57.887 26.278)"/>
    </g>
    <g id="freepik--Table--inject-32" transform="translate(22.495 177.838)">
      <path id="Path_1127" data-name="Path 1127" class="cls-14" d="M79.82,439.319,96.291,423.76H227.018l9.9,15.559H79.82" transform="translate(-79.82 -423.76)"/>
      <rect id="Rectangle_362" data-name="Rectangle 362" class="cls-18" width="157.095" height="4.188" transform="translate(0 15.559)"/>
    </g>
    <g id="freepik--Notebook--inject-32" transform="translate(38.966 176.098)">
      <path id="Path_1128" data-name="Path 1128" class="cls-19" d="M116.83,446.057V442.83h25.812v3.227H116.83Z" transform="translate(-116.83 -432.603)"/>
      <path id="Path_1129" data-name="Path 1129" class="cls-14" d="M116.83,430.077l15.247-10.227,20.347.481-9.782,9.746Z" transform="translate(-116.83 -419.85)"/>
      <path id="Path_1130" data-name="Path 1130" class="cls-14" d="M174.83,433.9l9.782-9.8V420.93l-9.782,9.746Z" transform="translate(-149.018 -420.449)"/>
      <path id="Path_1131" data-name="Path 1131" class="cls-11" d="M170.691,441s-2.061.409-2.061,2.194a2.519,2.519,0,0,0,1.78,2.31" transform="translate(-145.577 -431.587)"/>
      <path id="Path_1132" data-name="Path 1132" class="cls-11" d="M166.061,441s-2.061.409-2.061,2.194a2.519,2.519,0,0,0,1.78,2.31" transform="translate(-143.007 -431.587)"/>
      <path id="Path_1133" data-name="Path 1133" class="cls-11" d="M161.431,441s-2.061.409-2.061,2.194a2.519,2.519,0,0,0,1.78,2.31" transform="translate(-140.438 -431.587)"/>
      <path id="Path_1134" data-name="Path 1134" class="cls-11" d="M156.8,441s-2.061.409-2.061,2.194a2.519,2.519,0,0,0,1.78,2.31" transform="translate(-137.868 -431.587)"/>
      <path id="Path_1135" data-name="Path 1135" class="cls-11" d="M152.171,441s-2.061.409-2.061,2.194a2.519,2.519,0,0,0,1.78,2.31" transform="translate(-135.299 -431.587)"/>
      <path id="Path_1136" data-name="Path 1136" class="cls-11" d="M147.541,441s-2.061.409-2.061,2.194a2.519,2.519,0,0,0,1.78,2.31" transform="translate(-132.73 -431.587)"/>
      <path id="Path_1137" data-name="Path 1137" class="cls-11" d="M142.911,441s-2.061.409-2.061,2.194a2.519,2.519,0,0,0,1.78,2.31" transform="translate(-130.16 -431.587)"/>
      <path id="Path_1138" data-name="Path 1138" class="cls-11" d="M138.281,441s-2.061.409-2.061,2.194A2.519,2.519,0,0,0,138,445.5" transform="translate(-127.591 -431.587)"/>
      <path id="Path_1139" data-name="Path 1139" class="cls-11" d="M133.081,441s-2.061.409-2.061,2.194a2.519,2.519,0,0,0,1.78,2.31" transform="translate(-124.705 -431.587)"/>
      <path id="Path_1140" data-name="Path 1140" class="cls-11" d="M127.871,441s-2.061.409-2.061,2.194a2.519,2.519,0,0,0,1.78,2.31" transform="translate(-121.814 -431.587)"/>
      <path id="Path_1141" data-name="Path 1141" class="cls-11" d="M122.081,441s-2.061.409-2.061,2.194a2.519,2.519,0,0,0,1.78,2.31" transform="translate(-118.6 -431.587)"/>
      <path id="Path_1142" data-name="Path 1142" class="cls-20" d="M150,425.48a7.454,7.454,0,0,0-3.209,3.494,12.981,12.981,0,0,0,4.775-3.262l-1.54,3.818a4.526,4.526,0,0,0,3.489-2.141.943.943,0,0,0-.445,1.335c1.291-.187,2.114-1.433,2.764-2.563a8.313,8.313,0,0,1,.138,1.909,6.049,6.049,0,0,0,3.186-.4" transform="translate(-133.457 -422.974)"/>
    </g>
    <g id="freepik--Box--inject-32" transform="translate(116.568 155.391)">
      <rect id="Rectangle_363" data-name="Rectangle 363" class="cls-14" width="44.865" height="24.633" transform="translate(7.388 6.863)"/>
      <path id="Path_1143" data-name="Path 1143" class="cls-14" d="M298.414,404.811l-7.214-6.858V373.32l7.214,6.863Z" transform="translate(-291.2 -373.32)"/>
      <path id="Path_1144" data-name="Path 1144" class="cls-14" d="M343.674,380.183l-7.214-6.863H291.6l7.21,6.863Z" transform="translate(-291.422 -373.32)"/>
      <path id="Path_1145" data-name="Path 1145" class="cls-21" d="M354.231,404.328h-3.965V400.18h-5.59v4.148H340.35v5.59h4.326v4.143h5.59v-4.143h3.965Z" transform="translate(-318.476 -388.226)"/>
      <line id="Line_4" data-name="Line 4" class="cls-14" x1="7.214" y1="6.863" transform="translate(22.216)"/>
    </g>
    <g id="freepik--Medicine--inject-32" transform="translate(13.987 0)">
      <circle id="Ellipse_15" data-name="Ellipse 15" class="cls-14" cx="13.4" cy="13.4" r="13.4" transform="translate(8.755 48.083) rotate(-45)"/>
      <path id="Path_1146" data-name="Path 1146" class="cls-4" d="M120.77,122.294a4.29,4.29,0,0,1-2.914,4.063l-5.986,2.016-7.285,2.461a4.281,4.281,0,1,1-2.737-8.113l6.618-2.225,6.649-2.225a4.286,4.286,0,0,1,5.652,4.045Z" transform="translate(-81.918 -76.264)"/>
      <path id="Path_1147" data-name="Path 1147" class="cls-1" d="M132.655,122.289a4.29,4.29,0,0,1-2.914,4.063l-5.986,2.016a12.394,12.394,0,0,0-3.4-7.882L127,118.261a4.286,4.286,0,0,1,5.652,4.045Z" transform="translate(-93.804 -76.259)"/>
      <path id="Path_1148" data-name="Path 1148" class="cls-9" d="M120.77,122.294a4.29,4.29,0,0,1-2.914,4.063l-5.986,2.016-7.285,2.461a4.281,4.281,0,1,1-2.737-8.113l6.618-2.225,6.649-2.225a4.286,4.286,0,0,1,5.652,4.045Z" transform="translate(-81.918 -76.264)"/>
      <path id="Path_1149" data-name="Path 1149" class="cls-9" d="M123.755,131.422a12.132,12.132,0,0,0-3.4-7.882" transform="translate(-93.804 -79.312)"/>
      <path id="Path_1150" data-name="Path 1150" class="cls-12" d="M144.78,124a2.928,2.928,0,0,1,.409,1.567" transform="translate(-107.361 -79.568)"/>
      <path id="Path_1151" data-name="Path 1151" class="cls-12" d="M124.15,122.549l5.34-1.78a3.427,3.427,0,0,1,2.911.325" transform="translate(-95.913 -77.672)"/>
      <ellipse id="Ellipse_16" data-name="Ellipse 16" class="cls-14" cx="13.4" cy="13.4" rx="13.4" ry="13.4" transform="matrix(0.921, -0.39, 0.39, 0.921, 95.969, 10.446)"/>
      <path id="Path_1152" data-name="Path 1152" class="cls-1" d="M308.33,61.96l-11.687-3.912a3.867,3.867,0,0,1-2.434-4.9h0a3.867,3.867,0,0,1,4.9-2.434l11.687,3.907a3.872,3.872,0,0,1,2.434,4.9h0a3.872,3.872,0,0,1-4.9,2.439Z" transform="translate(-190.176 -38.787)"/>
      <line id="Line_5" data-name="Line 5" class="cls-9" y1="4.677" x2="1.958" transform="translate(109.591 14.272)"/>
      <line id="Line_6" data-name="Line 6" class="cls-9" y1="4.664" x2="1.949" transform="translate(116.031 16.426)"/>
      <ellipse id="Ellipse_17" data-name="Ellipse 17" class="cls-10" cx="0.396" cy="0.396" rx="0.396" ry="0.396" transform="translate(110.81 18.433)"/>
      <path id="Path_1153" data-name="Path 1153" class="cls-10" d="M318.342,68.6a.4.4,0,1,1-.4-.4.4.4,0,0,1,.4.4Z" transform="translate(-203.242 -48.601)"/>
      <ellipse id="Ellipse_18" data-name="Ellipse 18" class="cls-10" cx="0.396" cy="0.396" rx="0.396" ry="0.396" transform="translate(112.346 14.908)"/>
      <path id="Path_1154" data-name="Path 1154" class="cls-10" d="M321.662,60.6a.4.4,0,1,1-.4-.4.4.4,0,0,1,.4.4Z" transform="translate(-205.084 -44.161)"/>
      <path id="Path_1155" data-name="Path 1155" class="cls-9" d="M308.33,61.96l-11.687-3.912a3.867,3.867,0,0,1-2.434-4.9h0a3.867,3.867,0,0,1,4.9-2.434l11.687,3.907a3.872,3.872,0,0,1,2.434,4.9h0a3.872,3.872,0,0,1-4.9,2.439Z" transform="translate(-190.176 -38.787)"/>
      <ellipse id="Ellipse_19" data-name="Ellipse 19" class="cls-14" cx="13.4" cy="13.4" rx="13.4" ry="13.4" transform="translate(49.546 3.435)"/>
      <path id="Path_1156" data-name="Path 1156" class="cls-14" d="M200.244,55.64v5.492a2.3,2.3,0,0,1-1.98,2.523H186.87a2.3,2.3,0,0,1-1.98-2.523V55.64a2.3,2.3,0,0,1,1.98-2.523h1.874V49.93h7.566v3.187h1.94A2.3,2.3,0,0,1,200.244,55.64Z" transform="translate(-129.621 -38.462)"/>
      <rect id="Rectangle_364" data-name="Rectangle 364" class="cls-21" width="15.35" height="3.405" transform="translate(55.269 17.81)"/>
      <path id="Path_1157" data-name="Path 1157" class="cls-21" d="M192.909,41.55h5.625a2.394,2.394,0,0,1,2.394,2.394v2.488H190.51V43.944a2.394,2.394,0,0,1,2.4-2.394Z" transform="translate(-132.74 -33.811)"/>
      <line id="Line_7" data-name="Line 7" class="cls-9" y2="4.731" transform="translate(59.591 7.89)"/>
      <line id="Line_8" data-name="Line 8" class="cls-9" y2="4.882" transform="translate(62.052 7.739)"/>
      <line id="Line_9" data-name="Line 9" class="cls-9" y2="4.882" transform="translate(64.513 7.739)"/>
      <line id="Line_10" data-name="Line 10" class="cls-9" y2="4.606" transform="translate(66.974 8.015)"/>
      <ellipse id="Ellipse_20" data-name="Ellipse 20" class="cls-14" cx="13.4" cy="13.4" rx="13.4" ry="13.4" transform="translate(0 98.98) rotate(-80.69)"/>
      <ellipse id="Ellipse_21" data-name="Ellipse 21" class="cls-22" cx="6.182" cy="7.882" rx="6.182" ry="7.882" transform="translate(5.296 90.23) rotate(-64.69)"/>
      <ellipse id="Ellipse_22" data-name="Ellipse 22" class="cls-22" cx="5.799" cy="7.882" rx="5.799" ry="7.882" transform="translate(5.946 88.835) rotate(-64.69)"/>
      <line id="Line_11" data-name="Line 11" class="cls-14" x1="4.864" y2="6.84" transform="translate(12.959 83)"/>
      <path id="Path_1158" data-name="Path 1158" class="cls-12" d="M94.17,208.17a10.5,10.5,0,0,1,1.918.445" transform="translate(-79.275 -126.278)"/>
      <path id="Path_1159" data-name="Path 1159" class="cls-12" d="M83.062,214.649s-2.483-2.719-.058-5.341a3.712,3.712,0,0,1,2.078-1.068" transform="translate(-72.488 -126.317)"/>
      <ellipse id="Ellipse_23" data-name="Ellipse 23" class="cls-14" cx="13.4" cy="13.4" rx="13.4" ry="13.4" transform="translate(141.152 98.987) rotate(-80.69)"/>
      <path id="Path_1160" data-name="Path 1160" class="cls-21" d="M408.376,215.611c-.1.147-.2.3-.311.445-2.007,2.782-5.1,5.376-7.392,5.888v-.036c-2.225-.5-5.22-2.968-7.228-5.665-.111-.147-.218-.3-.32-.445-1.931-2.768-2.746-5.674-.6-6.876,4.37-2.439,8.144,2.79,8.144,2.79s3.783-5.189,8.144-2.755C410.908,210.123,410.192,212.909,408.376,215.611Z" transform="translate(-244.142 -126.336)"/>
      <path id="Path_1161" data-name="Path 1161" class="cls-4" d="M410.712,219.16c-.1.147-.2.3-.311.445h-1.1l-1.264,1.669-.859-4.949-1.335,3.365h-3.155l-1.616,2.693-1.246-5.452-1.607,2.844H395.78c-.111-.147-.218-.3-.32-.445h2.5L400,215.711l1.255,5.5,1.188-1.98h3.115l1.78-4.557.952,5.5.779-1.028Z" transform="translate(-246.478 -129.886)"/>
      <ellipse id="Ellipse_24" data-name="Ellipse 24" class="cls-14" cx="13.4" cy="13.4" rx="13.4" ry="13.4" transform="translate(130.241 34.833)"/>
      <path id="Path_1162" data-name="Path 1162" class="cls-14" d="M376.138,118.451c.129.289-.676.93-1.78,1.433s-2.136.676-2.265.383.672-.93,1.78-1.433S376,118.176,376.138,118.451Z" transform="translate(-233.503 -76.413)"/>
      <path id="Path_1163" data-name="Path 1163" class="cls-14" d="M382.169,130.928l-4.01,1.94-3.6-7.406-2.483-5.118,4.01-1.945,2.421,4.993Z" transform="translate(-233.503 -76.46)"/>
      <path id="Path_1164" data-name="Path 1164" class="cls-22" d="M373.75,125.2l1.74-.806" transform="translate(-234.43 -79.784)"/>
      <path id="Path_1165" data-name="Path 1165" class="cls-22" d="M375.45,128.816l1.74-.806" transform="translate(-235.374 -81.793)"/>
      <path id="Path_1166" data-name="Path 1166" class="cls-14" d="M389.19,148.613l2.069,2.715-1.033-3.218Z" transform="translate(-242.999 -92.948)"/>
      <path id="Path_1167" data-name="Path 1167" class="cls-21" d="M385.266,137.155h0a6.675,6.675,0,0,1-3.44,1.834l-.57.107-3.6-7.406,3.947-2.069Z" transform="translate(-236.6 -82.686)"/>
      <line id="Line_12" data-name="Line 12" class="cls-22" y1="0.757" x2="1.638" transform="translate(141.817 49.653)"/>
      <path id="Path_1168" data-name="Path 1168" class="cls-22" d="M381.38,140.384l1.607-.734" transform="translate(-238.664 -88.253)"/>
      <path id="Path_1169" data-name="Path 1169" class="cls-14" d="M373.618,116.988l-1.268-2.853,1-.565,1.366,2.888Z" transform="translate(-233.653 -73.779)"/>
      <path id="Path_1170" data-name="Path 1170" class="cls-14" d="M373.053,111.958l-.3-.668-5.341,2.39.3.668c.125.285,1.42-.027,2.9-.685S373.178,112.238,373.053,111.958Z" transform="translate(-230.912 -72.514)"/>
      <path id="Path_1171" data-name="Path 1171" class="cls-14" d="M372.738,111.161c-.125-.28-1.424.027-2.9.685s-2.568,1.424-2.443,1.7,1.424-.027,2.9-.69S372.863,111.441,372.738,111.161Z" transform="translate(-230.9 -72.385)"/>
    </g>
  </g>
</svg>
