<svg xmlns="http://www.w3.org/2000/svg" width="242.586" height="224.16" viewBox="0 0 242.586 224.16">
  <defs>
    <style>
      .cls-1 {
        fill: #ebebeb;
      }

      .cls-2 {
        fill: #dbdbdb;
      }

      .cls-3 {
        fill: #c7c7c7;
      }

      .cls-4 {
        fill: #fff;
      }

      .cls-10, .cls-5 {
        fill: #263238;
      }

      .cls-6 {
        fill: #dd6a57;
      }

      .cls-7 {
        fill: #455a64;
      }

      .cls-8 {
        fill: #c2368c;
      }

      .cls-9 {
        fill: #ad6359;
      }

      .cls-10 {
        opacity: 0.1;
      }

      .cls-11 {
        fill: #37474f;
      }

      .cls-12 {
        fill: #a6a6a6;
      }

      .cls-13 {
        fill: #ff99ba;
      }

      .cls-14 {
        fill: #eb9481;
      }
    </style>
  </defs>
  <g id="Health_professional_team-cuate" data-name="Health professional team-cuate" transform="translate(0 0)">
    <g id="freepik--background-complete--inject-54" transform="translate(12.948 0)">
      <path id="Path_217" data-name="Path 217" class="cls-1" d="M72.458,243.18a19.87,19.87,0,0,1-.068,2.574c.037-.569.042-1.142.053-1.711Z" transform="translate(-57.543 -135.665)"/>
      <path id="Path_218" data-name="Path 218" class="cls-1" d="M65.672,268.419c-.121.242.29.447.421.216a54.748,54.748,0,0,0,7-20.762A28.784,28.784,0,0,0,79.2,237.034h.032c3.438-.49,7.07-1.4,9.007-4.538,1.8-2.932,2.106-7.091,2.411-10.413l.058-.053a.142.142,0,0,0-.184-.216,49.606,49.606,0,0,0-7.37,6.791c-1.916,2.232-2.632,4.8-3.685,7.438a53.822,53.822,0,0,0,1.89-14.687.168.168,0,0,0,.047-.184l-.047-.153v-.168a.079.079,0,0,0,0-.037c2.237-2.411,4.1-4.248,4.29-7.659.232-4.211-1.632-7.559-3.3-11.271a.184.184,0,0,0-.332,0c-1.374,2.916-3.09,6.022-3.327,9.291-.258,3.464,1.053,6.949,2.311,10.118a.221.221,0,0,0,.089.095c-.916,9.218-2.969,17.74-7.9,25.61,1.579-13.74-1.785-27.827-7.475-40.9h0c8.075-3.032,5.9-10.85,4.843-17.656a3.208,3.208,0,0,0-.053-.353h0c0-.037,0-.053-.053-.032s-4.259,5.617-5.112,8.749c-.684,2.553-.379,5.364-.19,8.049q-1.706-3.806-3.653-7.486v-.447a.063.063,0,0,0,.032-.1v-.032c.1-2.99.195-5.97-1.053-8.77-1.437-3.227-4.164-5.88-6.712-8.27,0-.042-.174,0-.168.037-.358,3.369-1.053,7.538.421,10.75,1.353,2.964,4.638,4.606,7.017,6.607l.058.032c4.459,10.728,9.191,21.415,10.95,32.938a52.69,52.69,0,0,1-13.129-12.2c2.021-1.885,3.385-3.99,3.222-6.87a18.593,18.593,0,0,0-4.211-10.592h0a.116.116,0,0,0-.089-.047.184.184,0,0,0-.221.247,17.977,17.977,0,0,0-.558,14.74,80.847,80.847,0,0,1-5.338-8.881c1.579-5.906-3.727-9.012-7.291-12.882-.1-.111-.305,0-.226.147.032.053.068.1.1.147-.663,6.143,1.737,10.944,7.37,13.813a.311.311,0,0,0,.116.026,44.746,44.746,0,0,0,9.344,14.287,13.16,13.16,0,0,0-4.5-2.106c-3.2-.742-5.959.605-8.949,1.548l-.079.026h-.047a.247.247,0,0,0-.037.469l.026.026c4.569,2.985,10.913,6.991,15.793,2.3l.326.195a55.9,55.9,0,0,0,8.323,6.38.342.342,0,0,0,.153.047c.142,1.011.268,2.032.358,3.053a61.9,61.9,0,0,1-2.959,24.842,45.472,45.472,0,0,1-8.175-17.693c1.427-5.512-1.642-9.712-5.438-13.592h0a.137.137,0,0,0-.253.047c-.526,2.632-1.358,6.054-.395,8.66s3.469,4.28,5.733,5.57a.152.152,0,0,0,.053,0,38.849,38.849,0,0,0,2.5,8.791,14.771,14.771,0,0,0-4.9-4.943c-2.574-1.5-5.133-1.421-8.028-1.195-.232,0,3.559,10.176,13.255,7.191l.321.39a30.875,30.875,0,0,0,5.048,7.617,75.276,75.276,0,0,1-3.6,8.739Zm-2.027-17.093c-2.674.047-5.512.258-7.9-1.211-2.19-1.363-3.09-3.159-4.69-5.2,2.916.163,5.264-.2,8,1.648a21.331,21.331,0,0,1,4.569,4.764Zm-2.711-10.165c-2.39-1.363-4.69-3.28-5.18-6.075-.411-2.348.063-4.738.163-7.128,1.311,1.716,2.632,3.459,3.764,5.264,1.653,2.632,1.579,4.885,1.369,7.717a.179.179,0,0,0-.116.2Zm-9.691-34.439a14.6,14.6,0,0,1-5.048-4.833c-1.453-2.416-1.232-4.933-1.658-7.575a28.912,28.912,0,0,0,3.769,3.98A9.085,9.085,0,0,1,51.242,206.723Zm7.586,10.365-.1.121a42.6,42.6,0,0,1-1.4-7.854c-.153-2.564.39-5.048.526-7.58a51.369,51.369,0,0,1,1.053,7.723c.058,1.137.168,2.379.211,3.622,0-1.206,0-2.411-.042-3.617a39.082,39.082,0,0,0-1.184-8.191.932.932,0,0,0,0-.121c.863,2.937,2.59,5.543,2.811,8.665a11.845,11.845,0,0,1-1.8,7.086,9.828,9.828,0,0,0,.137-1.248A9.786,9.786,0,0,1,58.828,217.088Zm-1.053-15.7v.137a37.45,37.45,0,0,0-.605,8.07,45.684,45.684,0,0,0,1.442,7.7l-.063.074c-1.053-3-2.443-5.98-2.248-9.239A43.311,43.311,0,0,1,57.775,201.39Zm1.632,14.977a11.487,11.487,0,0,0,1.463-5.917c-.058-3.264-1.748-5.959-2.8-8.949A29.391,29.391,0,0,1,61,208.376c.858,3.522.253,5.627-1.59,7.991Zm3.48,7.728c-2.316,1.227-4.569,2.037-7.307,1.542s-4.964-2.253-7.207-3.743c2.706-.632,5.185-1.874,8.054-1.211C58.912,221.236,60.8,222.763,62.887,224.095ZM60.781,194.32A39.271,39.271,0,0,0,54.2,180.4a27.922,27.922,0,0,1,5.364,7.4c.974,2.153,1,4.322,1.211,6.5Zm.079,1.706A110.156,110.156,0,0,0,54.143,180.6a44.551,44.551,0,0,1,6.791,14.84c.037.258.079.526.126.779Zm-5.191-7.175c-1.079-2.722-1.269-5.791-1.779-8.639A142.973,142.973,0,0,1,60.8,195.936C58.875,193.736,56.722,191.562,55.67,188.851Zm5.127,7.291c-2.179-1.758-4.817-3.364-5.964-6-1.206-2.769-1.053-7.07-1.053-10.107.39,3.011.674,6.317,1.853,9.112,1.09,2.648,3.222,4.854,5.154,6.991Zm5.643,3.253h0c.474-3.811,2.543-6.843,3.9-10.328a30.327,30.327,0,0,1-1.133,8.218c-.778,2.827-2.241,5.374-3.425,8.043a49.074,49.074,0,0,1,.526-5.106s0-.032-.032,0a30.79,30.79,0,0,0-.632,4.811c-.074-2.89-.126-6.191.732-8.844.932-2.88,2.664-5.048,3.964-7.617v.132c-1.648,3.338-3.5,6.965-3.906,10.692Zm4.08-9.144a26.1,26.1,0,0,1-.195,8.1,14.429,14.429,0,0,1-4.548,7.27,41.966,41.966,0,0,0,3.58-8.307,33.374,33.374,0,0,0,.805-4.28c.126-.905.279-1.848.347-2.785Zm-4.769,15.608v-.174a13.961,13.961,0,0,0,4.511-6.733,16.846,16.846,0,0,0,.621-5.885,25.525,25.525,0,0,1,.237,3.685c-.1,4.18-1.99,6.9-5.38,9.107Zm15.519,14.814c-1.011-3.1-2.216-6.707-1.8-9.923a57.505,57.505,0,0,1,2.758-7.991s2.716,6.475,2.669,9.776c-.068,3.6-2.248,5.243-3.638,8.138Zm-1.753,15.793c1.432-2.543,2.069-5.264,4.048-7.575a85.829,85.829,0,0,1,6.875-6.617c-.663,2.711-.926,5.559-1.921,8.17-1.563,4.085-5.127,5.233-9.012,6.038Z" transform="translate(-44.186 -105.619)"/>
      <path id="Path_219" data-name="Path 219" class="cls-1" d="M51.258,219.29l.242.584c0,.053.105.032.089-.026s-.074-.211-.105-.321l.163.174a4.223,4.223,0,0,0,.079.526h.037a3.078,3.078,0,0,0-.074-.484l.221.237h0l-.242-.253c-.726-4.643-3.38-8.533-6.464-11.992-.079-.132-.153-.263-.237-.395h-.037a.047.047,0,0,0-.079,0l-.089-.1a.03.03,0,0,0-.047.037l.163.232a31.059,31.059,0,0,0,2.353,6.78A21.94,21.94,0,0,0,51.258,219.29Zm-5.97-11.26c1.969,3.743,4.269,7.307,5.938,11.2a21.425,21.425,0,0,1-3.853-5.033,36.506,36.506,0,0,1-2.3-6.443Zm6.18,11.444a32.269,32.269,0,0,0-2.743-5.58c-.953-1.706-1.89-3.422-2.869-5.112,1.127,1.463,2.332,2.858,3.343,4.411a16.656,16.656,0,0,1,2.443,6.464Z" transform="translate(-44.434 -118.64)"/>
      <path id="Path_220" data-name="Path 220" class="cls-1" d="M51.033,259.3l.616-.132a14.257,14.257,0,0,0,3.564,1.958,14.092,14.092,0,0,0,3.727,1.148,12.634,12.634,0,0,0,7.117-1.027l.295.132v-.042h0v-.042l-.179-.058H66.12l.347-.168h0l-.368.163a23.163,23.163,0,0,0-7.37-2.69,20.166,20.166,0,0,0-7.159.553l-.116-.079h0l.079.074h-.1l-.421.095C50.927,259.2,50.985,259.32,51.033,259.3ZM65.6,261.041a40.639,40.639,0,0,0-13.355-2,18.857,18.857,0,0,1,6.491-.384A27.377,27.377,0,0,1,65.6,261.041Zm-13.861-1.89H51.8a45.734,45.734,0,0,1,14.213,2.106h.032C61.171,263.321,56.018,262.036,51.738,259.152Z" transform="translate(-47.398 -142.877)"/>
      <path id="Path_221" data-name="Path 221" class="cls-1" d="M71.388,284.887a.058.058,0,1,0,.111,0v-.326c.09.1.184.195.274.29a.042.042,0,0,0,.058-.058l-.332-.363c.084-4.659-1.848-8.786-4.559-12.445-.126-.263-.258-.526-.395-.784h-.032l.195.458-.168-.226v-.042l-.079-.105s-.053,0-.042.032l.121.168a20.5,20.5,0,0,0,.921,7.28,17.243,17.243,0,0,0,3.885,5.591v.126c0,.042.037,0,.037,0v-.068h0C71.388,284.587,71.393,284.74,71.388,284.887Zm0-.59-.063-.068a27,27,0,0,0-1.706-5.554h0a30.482,30.482,0,0,1,1.674,5.506,16.7,16.7,0,0,1-3.848-5.875,26.038,26.038,0,0,1-.89-6.759c.1.147.195.295.295.437.711,1.653,1.474,3.28,2.106,4.959h0c-.569-1.506-1.132-3.011-1.806-4.469a24.436,24.436,0,0,1,3,5.354A19.9,19.9,0,0,1,71.388,284.3Z" transform="translate(-54.715 -148.935)"/>
      <path id="Path_222" data-name="Path 222" class="cls-1" d="M56.846,303.366l.174.032c3.1,3.659,7.959,6.428,12.834,6.275v-.032a19.254,19.254,0,0,1-7.47-2.106,20.327,20.327,0,0,1-5.233-4.132l.321.058a56.533,56.533,0,0,1,11.65,5.712l.232.216h0l-.142-.153.379.247s.047,0,0-.037c-.232-.179-.474-.358-.716-.526a17.092,17.092,0,0,0-5.264-4.006,24.216,24.216,0,0,0-6.47-1.653l-.258-.079-.158-.174c-.026-.032-.068,0-.042.042l.089.111v.068a.078.078,0,0,0,.074.137Zm1.527.279A22.679,22.679,0,0,1,63.6,305.1a18.518,18.518,0,0,1,5.059,3.685,39.86,39.86,0,0,0-10.265-5.143Z" transform="translate(-50.1 -163.992)"/>
      <path id="Path_223" data-name="Path 223" class="cls-1" d="M114.357,241.172a.943.943,0,0,1,0-.121.074.074,0,0,0,.047-.042,23.191,23.191,0,0,0,2.716-8.76,18.03,18.03,0,0,0-.479-4.406,45.34,45.34,0,0,0-1.258-5.217.074.074,0,0,0-.142.037c.058.274.116.526.179.826,0,2.99.095,5.98-.195,8.949-.268,2.8-.763,5.554-.905,8.36l-.047.121a.079.079,0,0,0,.037.105v.132C114.31,241.2,114.357,241.224,114.357,241.172Zm.032-.484c.168-2.758.721-5.48.979-8.233a61.465,61.465,0,0,0,.1-8.807,35.69,35.69,0,0,1,1.442,8.144c-.016,3.043-1.316,6.138-2.522,8.907Z" transform="translate(-77.374 -125.908)"/>
      <path id="Path_224" data-name="Path 224" class="cls-1" d="M113.235,243.332c-.121-3.006-1.29-5.754-1.021-8.8a24.216,24.216,0,0,1,1.806-7.58h.037a25.426,25.426,0,0,0-1.737,8.217c-.137,2.769.879,5.4.979,8.154a.032.032,0,1,1-.063.011Z" transform="translate(-76.384 -127.979)"/>
      <path id="Path_225" data-name="Path 225" class="cls-1" d="M109.421,274.623a4.1,4.1,0,0,0,.616-.074c0,.032,0,.058.058.042l.1-.063h.137l-.053.079c-.047.063.053.116.1.058s.079-.111.121-.168a13.3,13.3,0,0,0,7.791-5c2.006-2.606,2.216-6.186,3.216-9.228,0-.058-.074-.1-.105-.042-.095.211-.179.421-.263.632.037-.126.084-.258.121-.384,0,0-.026-.037-.037,0a36.646,36.646,0,0,1-4.427,7.954,28.69,28.69,0,0,1-5.9,5.533c1.579-2.248,2.937-4.643,4.706-6.791,1.858-2.253,3.753-4.475,5.617-6.722l-.032-.026c-2.143,2.179-4.038,4.648-5.975,7.012-1.737,2.132-3.08,4.5-4.632,6.749-.074.058-.153.111-.232.163a9.233,9.233,0,0,1-.921.132C109.3,274.444,109.3,274.633,109.421,274.623Zm1.279-.426a26.435,26.435,0,0,0,10.07-12.245c-.637,2.2-.853,4.543-2.048,6.538a12.9,12.9,0,0,1-8.06,5.759A.189.189,0,0,0,110.7,274.2Z" transform="translate(-75.038 -143.724)"/>
      <path id="Path_226" data-name="Path 226" class="cls-2" d="M69,331.37s.305,2.743.732,6.633c1.005,9.186,2.7,24.742,2.7,25.7H87.662c0-.948,1.685-16.514,2.69-25.7.421-3.89.726-6.633.726-6.633Z" transform="translate(-55.938 -177.43)"/>
      <path id="Path_227" data-name="Path 227" class="cls-3" d="M69,331.37s.305,2.743.732,6.633H90.373c.421-3.89.726-6.633.726-6.633Z" transform="translate(-55.938 -177.43)"/>
      <rect id="Rectangle_12" data-name="Rectangle 12" class="cls-2" width="24.863" height="4.843" transform="translate(36.551 157.688) rotate(180)"/>
      <ellipse id="Ellipse_1" data-name="Ellipse 1" class="cls-1" cx="17.267" cy="17.267" rx="17.267" ry="17.267" transform="translate(63.604 5.653)"/>
      <circle id="Ellipse_2" data-name="Ellipse 2" class="cls-2" cx="16.477" cy="16.477" r="16.477" transform="translate(58.363 23.302) rotate(-45)"/>
      <ellipse id="Ellipse_3" data-name="Ellipse 3" class="cls-4" cx="15.435" cy="15.435" rx="15.435" ry="15.435" transform="translate(61.37 15.262) rotate(-23.38)"/>
      <rect id="Rectangle_13" data-name="Rectangle 13" class="cls-1" width="0.395" height="2.337" transform="translate(81.466 8.99)"/>
      <rect id="Rectangle_14" data-name="Rectangle 14" class="cls-1" width="0.395" height="2.337" transform="matrix(0.866, -0.5, 0.5, 0.866, 74.334, 11.014)"/>
      <rect id="Rectangle_15" data-name="Rectangle 15" class="cls-1" width="0.395" height="2.337" transform="matrix(0.5, -0.866, 0.866, 0.5, 69.156, 16.312)"/>
      <rect id="Rectangle_16" data-name="Rectangle 16" class="cls-1" width="2.337" height="0.395" transform="translate(67.347 23.109)"/>
      <rect id="Rectangle_17" data-name="Rectangle 17" class="cls-1" width="2.345" height="0.396" transform="translate(69.536 30.496) rotate(-29.887)"/>
      <rect id="Rectangle_18" data-name="Rectangle 18" class="cls-1" width="2.337" height="0.395" transform="translate(74.34 35.61) rotate(-60.03)"/>
      <rect id="Rectangle_19" data-name="Rectangle 19" class="cls-1" width="0.395" height="2.337" transform="translate(81.466 35.28)"/>
      <rect id="Rectangle_20" data-name="Rectangle 20" class="cls-1" width="0.395" height="2.337" transform="translate(87.485 33.788) rotate(-30)"/>
      <rect id="Rectangle_21" data-name="Rectangle 21" class="cls-1" width="0.395" height="2.337" transform="translate(91.937 29.462) rotate(-60)"/>
      <rect id="Rectangle_22" data-name="Rectangle 22" class="cls-1" width="2.343" height="0.395" transform="translate(93.636 23.109)"/>
      <rect id="Rectangle_23" data-name="Rectangle 23" class="cls-1" width="2.345" height="0.396" transform="translate(92.395 17.299) rotate(-29.887)"/>
      <rect id="Rectangle_24" data-name="Rectangle 24" class="cls-1" width="2.337" height="0.395" transform="translate(87.483 12.838) rotate(-60.03)"/>
      <rect id="Rectangle_25" data-name="Rectangle 25" class="cls-1" width="14.935" height="0.395" transform="translate(77.178 31.665) rotate(-63.04)"/>
      <rect id="Rectangle_26" data-name="Rectangle 26" class="cls-2" width="0.526" height="14.708" transform="translate(80.356 18.102) rotate(-11.32)"/>
      <rect id="Rectangle_27" data-name="Rectangle 27" class="cls-1" width="76.51" height="174.304" transform="translate(140.177 11.97)"/>
      <path id="Path_228" data-name="Path 228" class="cls-2" d="M306.757,232.271H302.63V53.84l4.127,4.127Z" transform="translate(-166.58 -45.998)"/>
      <rect id="Rectangle_28" data-name="Rectangle 28" class="cls-4" width="56.501" height="81.037" transform="translate(150.185 22.282)"/>
      <path id="Path_229" data-name="Path 229" class="cls-3" d="M330,297.59c.121,3.359.179,6.717.268,10.076s.116,6.717.153,10.07q.121,10.076.1,20.146l-.526-.526,9.091.037,9.086.09,9.091.153c3.032.079,6.059.132,9.091.242-3.032.116-6.059.168-9.091.247l-9.091.153-9.086.09L330,338.4h-.526v-.526q0-10.065.1-20.146.053-5.033.153-10.07C329.823,304.307,329.875,300.964,330,297.59Z" transform="translate(-179.291 -161.432)"/>
      <path id="Path_230" data-name="Path 230" class="cls-3" d="M395.163,295.936c-.121-3.864-.174-7.733-.263-11.581l-.147-11.581c-.063-3.869-.047-7.733-.074-11.581l-.042-11.581.526.526-11.292-.047c-3.769,0-7.533,0-11.3-.079l-11.3-.147c-3.764-.084-7.533-.137-11.3-.253,3.764-.116,7.533-.168,11.3-.253l11.3-.147c3.764-.063,7.528-.053,11.3-.079L395.157,249h.526v.526l-.042,11.581c-.026,3.869,0,7.733-.074,11.581l-.147,11.581C395.331,288.2,395.263,292.072,395.163,295.936Z" transform="translate(-189.004 -138.421)"/>
      <path id="Path_231" data-name="Path 231" class="cls-3" d="M383.267,57.967h-76.51L302.63,53.84h80.637Z" transform="translate(-166.58 -45.998)"/>
      <rect id="Rectangle_29" data-name="Rectangle 29" class="cls-2" width="9.67" height="18.198" transform="translate(150.185 109.179)"/>
      <path id="Path_232" data-name="Path 232" class="cls-3" d="M336.85,253.92v4.127l-7.37-.595V253.92Z" transform="translate(-179.295 -140.751)"/>
      <rect id="Rectangle_30" data-name="Rectangle 30" class="cls-2" width="12.818" height="4.127" transform="translate(144.731 111.105)"/>
    </g>
    <g id="freepik--Shadows--inject-54" transform="translate(0 199.923)">
      <ellipse id="Ellipse_4" data-name="Ellipse 4" class="cls-1" cx="57.506" cy="9.086" rx="57.506" ry="9.086" transform="translate(63.786 6.064)"/>
      <ellipse id="Ellipse_5" data-name="Ellipse 5" class="cls-1" cx="57.506" cy="9.086" rx="57.506" ry="9.086"/>
      <ellipse id="Ellipse_6" data-name="Ellipse 6" class="cls-1" cx="57.506" cy="9.086" rx="57.506" ry="9.086" transform="translate(127.573)"/>
    </g>
    <g id="freepik--Floor--inject-54" transform="translate(7.27 186.015)">
      <path id="Path_233" data-name="Path 233" class="cls-5" d="M33.4,392.558l28.506-.126,28.506-.047,57.011-.084,57.011.084,28.506.047,28.506.126-28.506.132-28.506.047-57.011.084-57.011-.084-28.506-.047Z" transform="translate(-33.4 -392.3)"/>
    </g>
    <g id="freepik--character-3--inject-54" transform="translate(147.313 18.526)">
      <path id="Path_234" data-name="Path 234" class="cls-6" d="M337.784,370.2v22.684c0,4.338-.037,8.138-.247,10.1a.069.069,0,0,1,0,.032,3.027,3.027,0,0,1-.316,1.342.053.053,0,0,1,0,.026c-1.29.879-35.928,2.064-37.15,1.7s-.279-3.88,1.053-5,14.371-7.507,14.371-7.507l.221-22.636Z" transform="translate(-299.465 -214.344)"/>
      <path id="Path_235" data-name="Path 235" class="cls-7" d="M337.774,404.45V409.1c0,4.338-.037,8.138-.247,10.1a.068.068,0,0,1,0,.032,5.823,5.823,0,0,1-.316,1.342.052.052,0,0,1,0,.026c-1.29.879-35.928,2.064-37.15,1.7s-.279-3.88,1.053-5,14.371-7.507,14.371-7.507l-.063-4.738Z" transform="translate(-299.46 -230.565)"/>
      <path id="Path_236" data-name="Path 236" class="cls-3" d="M300,426.322c1.221.368,35.86-.821,37.15-1.7.495-.332.616-5.385.59-11.5v-.189l-22.352.526v.379s-13.055,6.38-14.371,7.5S298.777,425.959,300,426.322Z" transform="translate(-299.429 -234.58)"/>
      <path id="Path_237" data-name="Path 237" class="cls-5" d="M301.1,434.832c5.833-.342,29.4-1.174,35.186-1.053.047,0,.047.032,0,.037-5.791.463-29.343,1.105-35.186,1.132C301.01,434.943,300.979,434.843,301.1,434.832Z" transform="translate(-300.183 -244.449)"/>
      <path id="Path_238" data-name="Path 238" class="cls-5" d="M326.118,414.66a8.062,8.062,0,0,1,6.912,1.327c.074.058,0,.158-.089.137a32.39,32.39,0,0,0-6.807-1.174.147.147,0,0,1-.016-.289Z" transform="translate(-312.015 -235.284)"/>
      <path id="Path_239" data-name="Path 239" class="cls-5" d="M323.03,416.661a8.087,8.087,0,0,1,6.917,1.327c.068.063,0,.163-.095.142a32.346,32.346,0,0,0-6.8-1.179.147.147,0,0,1-.021-.29Z" transform="translate(-310.553 -236.232)"/>
      <path id="Path_240" data-name="Path 240" class="cls-5" d="M319.9,418.67A8.069,8.069,0,0,1,326.817,420c.074.063,0,.158-.089.137a32.442,32.442,0,0,0-6.807-1.174.147.147,0,0,1-.021-.29Z" transform="translate(-309.071 -237.183)"/>
      <path id="Path_241" data-name="Path 241" class="cls-8" d="M352.941,198.132l-.863,67.756-.511,39.94-24.247-.484,4.743-108.564.242-12.429h20.473Z" transform="translate(-312.638 -126.33)"/>
      <path id="Path_242" data-name="Path 242" class="cls-5" d="M329.211,406.442c3.785-.032,2.7-.074,6.486-.063,1.848,0,14.024.042,15.751.353a.037.037,0,1,1,0,.074c-1.732.268-13.908,0-15.756-.026-3.785-.084-2.7-.1-6.486-.226a.058.058,0,0,1,.005-.111Z" transform="translate(-313.512 -231.477)"/>
      <path id="Path_243" data-name="Path 243" class="cls-5" d="M346.829,218.442a.042.042,0,1,0-.084,0c0,6.343-.2,12.682-.353,19.02s-.337,12.671-.526,19.009c-.342,12.671-.853,25.331-1.321,37.992q-.395,10.655-.984,21.3c0,.047.074.042.079,0,.916-12.634,1.8-25.305,2.3-37.981s.863-25.331.927-38.008C346.913,232.661,346.813,225.559,346.829,218.442Z" transform="translate(-320.329 -142.455)"/>
      <path id="Path_244" data-name="Path 244" class="cls-5" d="M360.594,198.132l-.863,67.756L343.48,184.35h16.951Z" transform="translate(-320.291 -126.33)"/>
      <path id="Path_245" data-name="Path 245" class="cls-6" d="M381.39,370.978s2.9,21.583,2.9,21.62c.026,4.338.126,8.138.363,10.1a.069.069,0,0,0,0,.032,2.943,2.943,0,0,0,.332,1.337v.032c1.3.863,35.949,1.653,37.165,1.274s.232-3.885-1.084-4.985-14.461-7.338-14.461-7.338l-3.638-22.636Z" transform="translate(-338.244 -214.444)"/>
      <path id="Path_246" data-name="Path 246" class="cls-7" d="M386.18,403.75c.226,2.706.379,4.622.379,4.638.026,4.338.126,8.138.363,10.1a.068.068,0,0,0,0,.032,5.6,5.6,0,0,0,.332,1.337v.032c1.3.863,35.949,1.653,37.165,1.274s.232-3.885-1.084-4.985-14.461-7.338-14.461-7.338l-.432-4.78Z" transform="translate(-340.512 -230.233)"/>
      <path id="Path_247" data-name="Path 247" class="cls-3" d="M424.787,425.16c-1.216.379-35.865-.411-37.165-1.279-.5-.321-.679-5.375-.721-11.486V412.2l22.362.258v.379s13.129,6.233,14.461,7.338S426.008,424.782,424.787,425.16Z" transform="translate(-340.853 -234.235)"/>
      <path id="Path_248" data-name="Path 248" class="cls-5" d="M426.49,433.619c-5.838-.279-29.411-.842-35.2-.669-.047,0-.047.032,0,.037,5.791.4,29.353.769,35.2.726C426.611,433.714,426.611,433.624,426.49,433.619Z" transform="translate(-342.915 -244.046)"/>
      <path id="Path_249" data-name="Path 249" class="cls-5" d="M427.866,412.73c-2.29-.479-5.106-.195-6.9,1.406-.068.063,0,.158.095.137a32.3,32.3,0,0,1,6.791-1.253.147.147,0,0,0,.016-.289Z" transform="translate(-356.973 -234.386)"/>
      <path id="Path_250" data-name="Path 250" class="cls-5" d="M430.976,414.7c-2.29-.479-5.106-.189-6.9,1.406-.068.063,0,.158.095.137a32.3,32.3,0,0,1,6.791-1.253.147.147,0,0,0,.016-.29Z" transform="translate(-358.446 -235.32)"/>
      <path id="Path_251" data-name="Path 251" class="cls-5" d="M434.086,416.671c-2.29-.479-5.112-.19-6.9,1.406-.068.063,0,.158.095.137a32.3,32.3,0,0,1,6.791-1.253.147.147,0,0,0,.016-.29Z" transform="translate(-359.918 -236.253)"/>
      <path id="Path_252" data-name="Path 252" class="cls-8" d="M340.74,184.31h0c.09.421,1.521,7.065,3.006,12.771,1.079,4.169,2.19,7.833,2.827,8.212.721.426,4.238,1.985,5.417,2.474l5.38,51.458,7.2,46.315,24.215-1.263L371.52,198.887l-2.743-14.577Z" transform="translate(-318.993 -126.311)"/>
      <path id="Path_253" data-name="Path 253" class="cls-5" d="M386.218,405.3c3.78-.242,2.69-.226,6.47-.432,1.853-.1,14.008-.742,15.751-.526.037,0,.042.074,0,.079-1.716.363-13.882.795-15.735.863-3.78.126-2.7.047-6.48.137a.061.061,0,1,1-.005-.121Z" transform="translate(-340.503 -230.492)"/>
      <path id="Path_254" data-name="Path 254" class="cls-5" d="M398.724,305.766c-.595-3.306-1.184-6.617-1.8-9.918q-1.821-9.923-3.685-19.83-3.732-19.851-7.37-39.713c-1.358-7.48-1.321-6.775-2.511-14.287,0-.053-.095-.042-.084,0,1.137,6.67.6,5.206,1.674,11.892s2.2,13.229,3.385,19.83c2.379,13.261,4.875,26.5,7.37,39.734q1.053,5.559,2.153,11.123c.742,3.78,1.579,7.533,2.358,11.308,0,.084.153.074.137,0C399.825,312.536,399.325,309.141,398.724,305.766Z" transform="translate(-339.138 -144.152)"/>
      <path id="Path_255" data-name="Path 255" class="cls-5" d="M391.33,215.56c-.637-.158-1.311-.211-1.958-.316q-.79-.118-1.579-.284a6.881,6.881,0,0,1-2.748-1.158,6.609,6.609,0,0,1-1.785-2.769c-.253-.605-.526-1.206-.79-1.8q-.189-.437-.395-.869a9.857,9.857,0,0,1-.49-1.053c0-.047-.1,0-.079,0a6.107,6.107,0,0,1,.221.748c.09.29.174.584.263.874.158.526.316,1.053.484,1.553a12.632,12.632,0,0,0,1.106,2.722,5.8,5.8,0,0,0,4.369,2.348c.49.063.979.1,1.474.126a10.5,10.5,0,0,0,1.864,0,.089.089,0,0,0,.042-.121Z" transform="translate(-338.298 -137.194)"/>
      <path id="Path_256" data-name="Path 256" class="cls-5" d="M348.054,222.423a46.01,46.01,0,0,1,7.228,3.374c.095.053.032.195-.063.153-2.443-1.053-4.933-2.053-7.317-3.238a.164.164,0,1,1,.153-.29Z" transform="translate(-322.343 -144.352)"/>
      <path id="Path_257" data-name="Path 257" class="cls-5" d="M346.718,190.606c0-.084.153-.105.153,0a80.067,80.067,0,0,0,.411,8.16c.111,1.258,1.127,8.212,3.306,7.7.363-.084.526-.442.611-.995a9.034,9.034,0,0,0-.29-2.106c-.242-1.453-.437-2.911-.563-4.385a39.743,39.743,0,0,1,.09-8.223.068.068,0,1,1,.137,0,75.732,75.732,0,0,0,.669,11.35c.268,1.811,1.179,4.533-.711,4.812s-3.159-4.28-3.406-5.522A41.385,41.385,0,0,1,346.718,190.606Z" transform="translate(-321.739 -129.259)"/>
      <path id="Path_258" data-name="Path 258" class="cls-5" d="M353.676,220.977a12.564,12.564,0,0,1,.49,1.442,3.285,3.285,0,0,1,.205,1.184.084.084,0,0,1-.153.032,4.265,4.265,0,0,1-.526-1.153c-.168-.447-.342-.89-.495-1.337a.254.254,0,0,1,.479-.168Z" transform="translate(-324.886 -143.595)"/>
      <path id="Path_259" data-name="Path 259" class="cls-5" d="M336.33,196.781l5.333.342,15.55.99,12.218.774-2.743-14.577H336.546Z" transform="translate(-316.905 -126.311)"/>
      <path id="Path_260" data-name="Path 260" class="cls-9" d="M328.982,124.99c-.937,3.832-8.475,21.31-8.423,22.636,0,.305,1.537.226,1.69.711.637,1.948-5.338,16.393-7.544,16.919-6.5,1.463-14.292,2.537-14.177-2.79.184-8.36,14.066-29.311,21.583-36.628C327.1,121.037,329.9,121.205,328.982,124.99Z" transform="translate(-299.949 -96.892)"/>
      <path id="Path_261" data-name="Path 261" class="cls-8" d="M338.149,127.231c-1.785,4.785-4.275,11.781-4.275,11.781L328.61,138l-8.47-1.632s7.338-9.576,14.082-14.6c3.438-2.558,4.88-2.474,5.264-1.184h0C339.9,121.967,339.054,124.794,338.149,127.231Z" transform="translate(-309.237 -95.716)"/>
      <path id="Path_262" data-name="Path 262" class="cls-5" d="M345.769,128.028c-1.785,4.785-4.275,11.781-4.275,11.781L336.23,138.8,347.1,121.39C347.516,122.764,346.674,125.591,345.769,128.028Z" transform="translate(-316.857 -96.514)"/>
      <path id="Path_263" data-name="Path 263" class="cls-5" d="M336.777,148.722a86.362,86.362,0,0,0-11.255-1.832.04.04,0,1,0,0,.079c1.053.121,6.317,1.242,11.255,1.842C336.809,148.817,336.835,148.738,336.777,148.722Z" transform="translate(-311.767 -108.59)"/>
      <path id="Path_264" data-name="Path 264" class="cls-8" d="M369.543,163.456c-.084.095-36.5.205-36.85-.168-.463-.526,7.759-39.982,11.5-44.856.8-1.053,3.438-1.332,5.68-1.053a10,10,0,0,1,1.727.353h.058a4.128,4.128,0,0,1,1.269.621c6.238,4.98,7.9,9.828,9.475,13.871a118,118,0,0,1,3.753,13.324C368.19,154.2,369.843,163.135,369.543,163.456Z" transform="translate(-315.173 -94.566)"/>
      <rect id="Rectangle_31" data-name="Rectangle 31" class="cls-10" width="6.517" height="1.053" transform="translate(40.809 39.79) rotate(180)"/>
      <path id="Path_265" data-name="Path 265" class="cls-5" d="M381.642,145.695,365.37,117.51a10,10,0,0,1,1.727.353h.058a4.127,4.127,0,0,1,1.269.621c6.238,4.98,7.9,9.828,9.476,13.871A116.357,116.357,0,0,1,381.642,145.695Z" transform="translate(-330.657 -94.676)"/>
      <path id="Path_266" data-name="Path 266" class="cls-9" d="M371.058,125.112c2.4,3.159,15.614,14.54,16.082,15.751s-3.638,5.648-3.58,6.154c.232,2.053,4.454,15.229,6.2,13.792,2.3-1.885,12.9-15.019,11.36-20.673s-25.063-18.772-28.774-19.872S368.689,122.016,371.058,125.112Z" transform="translate(-332.565 -95.866)"/>
      <path id="Path_267" data-name="Path 267" class="cls-9" d="M388.531,188.5c-1.232-1.053.726-1.906.726-1.906s-3.111.526-3.959-1.053,1.579-2.469,1.758-2.537c-.163.026-3.037.442-3.722-1.237s1.858-2.274,2.021-2.311c-.163,0-2.322-.368-2.553-1.764-.395-2.4,5.864-1.937,7.37-3.2,0,0-.242-3.159-.279-3.227a3.543,3.543,0,0,0,1.579,1.711c1.3.526,2.49.9,2.959,1.611a1.785,1.785,0,0,1-.042,2.106A2.657,2.657,0,0,1,396.7,178c.3.669-.526,1.742-.526,1.742A2.106,2.106,0,0,1,398,180.994a2.049,2.049,0,0,1-.526,1.885s1.3.669,1.353,1.764C398.981,186.884,391.174,190.785,388.531,188.5Z" transform="translate(-338.905 -120.131)"/>
      <path id="Path_268" data-name="Path 268" class="cls-5" d="M403.044,193.73l.032.037A15.182,15.182,0,0,1,394.8,197.3c-.1,0-.153-.147-.047-.174A30.926,30.926,0,0,0,403.044,193.73Z" transform="translate(-344.543 -130.772)"/>
      <path id="Path_269" data-name="Path 269" class="cls-5" d="M399.919,187.45c.026,0,.058.026.032.053a14.213,14.213,0,0,1-9.276,3.3c-.121,0-.221-.132-.084-.132C392.881,190.593,397.508,188.919,399.919,187.45Z" transform="translate(-342.57 -127.798)"/>
      <path id="Path_270" data-name="Path 270" class="cls-5" d="M387.178,184.384a19.717,19.717,0,0,0,9.2-2.564c.042,0,.063.032.037.058a12.665,12.665,0,0,1-4.738,2.385,8.733,8.733,0,0,1-4.49.237C387.12,184.484,387.109,184.384,387.178,184.384Z" transform="translate(-340.963 -125.132)"/>
      <path id="Path_271" data-name="Path 271" class="cls-5" d="M404.136,183.216a2.106,2.106,0,0,0,.732-2.074,1.579,1.579,0,0,0-.674-.869,2.742,2.742,0,0,0-1.258-.268,2.064,2.064,0,0,0,.305-2.306,1.579,1.579,0,0,0-.932-.642,5.074,5.074,0,0,0-1.337-.1,1.837,1.837,0,0,0,.532-1.537,1.974,1.974,0,0,0-1.053-1.458,9.744,9.744,0,0,0-2.053-.737,4.6,4.6,0,0,1-1.053-.421c-.295-.179-.711-.526-.753-.879,0-.074-.116-.026-.079,0,.174.226.279.49.474.7a3.419,3.419,0,0,0,.674.558A13.981,13.981,0,0,0,399.6,174a2.863,2.863,0,0,1,1.39,1.174,1.69,1.69,0,0,1-.153,1.769s0,.068.042.068a4.831,4.831,0,0,1,1.169.274,1.669,1.669,0,0,1,.774.616,2.164,2.164,0,0,1-.147,2.153,3.78,3.78,0,0,1,1.206.468,1.579,1.579,0,0,1,.526.721,1.863,1.863,0,0,1-.421,1.916.032.032,0,0,0,0,.026h0s.416.232.437.237,0,0,0-.026Q404.283,183.3,404.136,183.216Z" transform="translate(-345.403 -120.427)"/>
      <path id="Path_272" data-name="Path 272" class="cls-8" d="M391.205,130.159l-10.123,8.475s-7.107-8.523-10.149-12.634c-2.943-3.974-6-9.6,2.106-6.317C380.824,122.8,391.205,130.159,391.205,130.159Z" transform="translate(-331.824 -95.238)"/>
      <path id="Path_273" data-name="Path 273" class="cls-5" d="M399.56,138a87.5,87.5,0,0,0-8.575,7.533c-.042.037,0,.095.058.058.769-.748,4.98-4.1,8.575-7.523C399.665,138.032,399.6,138,399.56,138Z" transform="translate(-342.78 -104.38)"/>
      <path id="Path_274" data-name="Path 274" class="cls-5" d="M352.787,120.785a13.16,13.16,0,0,0,.421,2.269,15.262,15.262,0,0,0,.705,2.179,6.2,6.2,0,0,0,1.132,1.906,1.8,1.8,0,0,0,.395.311.853.853,0,0,0,.216.089h.158a4.416,4.416,0,0,0,.984-.432,17.479,17.479,0,0,0,3.59-2.8,20.567,20.567,0,0,0,1.548-1.7,21.267,21.267,0,0,0,1.416-1.832,18.321,18.321,0,0,1-2.669,3.811,14.882,14.882,0,0,1-3.627,2.974,4.921,4.921,0,0,1-1.137.479,1.108,1.108,0,0,1-.195,0A.626.626,0,0,1,355.5,128a1.689,1.689,0,0,1-.316-.137,2.105,2.105,0,0,1-.526-.411,6.007,6.007,0,0,1-1.148-2.106,12.975,12.975,0,0,1-.726-4.564Z" transform="translate(-324.697 -96.225)"/>
      <path id="Path_275" data-name="Path 275" class="cls-11" d="M361.412,120.566c-.358-3.048-4.211-3.469-6.538-3.448-2.943.032-5.406.669-6.317,3.685a31.434,31.434,0,0,0-.926,9.365.453.453,0,0,1-.9,0c-.032-3.553-.437-10.239,2.722-12.634s12.223-2.153,12.829,3.011c.068.569-.826.59-.895,0Z" transform="translate(-321.814 -93.994)"/>
      <ellipse id="Ellipse_7" data-name="Ellipse 7" class="cls-12" cx="2.058" cy="2.058" rx="2.058" ry="2.058" transform="translate(23.289 39.853) rotate(-87.86)"/>
      <path id="Path_276" data-name="Path 276" class="cls-1" d="M345.39,145a1.237,1.237,0,1,0,.342-.886,1.242,1.242,0,0,0-.342.886Z" transform="translate(-321.195 -107.093)"/>
      <path id="Path_277" data-name="Path 277" class="cls-1" d="M371.978,143.6c-.647,8.865.084,10.865.969,11.708a5.744,5.744,0,0,0,2.285,1.227l.153-.605-.079.3.079-.3a5.159,5.159,0,0,1-2.006-1.053c-.642-.611-1.416-2.432-.779-11.213Z" transform="translate(-333.67 -107.032)"/>
      <rect id="Rectangle_32" data-name="Rectangle 32" class="cls-12" width="1.332" height="2.164" rx="0.666" transform="translate(40.511 49.516) rotate(-71.66)"/>
      <path id="Path_278" data-name="Path 278" class="cls-1" d="M382.75,141.777c2.869,6.054,3.927,9.476,3.327,10.734a5.143,5.143,0,0,1-1.474,1.727l.358.526a5.674,5.674,0,0,0,1.685-1.974c.711-1.506-.253-4.769-3.332-11.26Z" transform="translate(-338.888 -106.051)"/>
      <rect id="Rectangle_33" data-name="Rectangle 33" class="cls-12" width="1.332" height="2.164" rx="0.666" transform="matrix(-0.637, -0.771, 0.771, -0.637, 45.403, 49.715)"/>
      <path id="Path_279" data-name="Path 279" class="cls-12" d="M378.285,132.64a36,36,0,0,0-1.879-3.959,3.685,3.685,0,0,0-1.511-1.274,6.08,6.08,0,0,1-.374-1.964,4.8,4.8,0,0,0-.405-1.911.621.621,0,0,0-.853.116,4.951,4.951,0,0,0,.111,1.953,6.4,6.4,0,0,1,.153,1.99,4.063,4.063,0,0,0-1.053,1.632,29.742,29.742,0,0,0-.684,4.432c-.026.942.295,1,.569,1.053.39.053.579-.237.679-1.295.158-1.674.237-4.454,1.342-4.654h0c1.116-.095,2.106,2.632,2.737,4.164.405.948.632,1,.995.848C378.369,133.65,378.622,133.487,378.285,132.64Z" transform="translate(-333.696 -97.472)"/>
      <path id="Path_280" data-name="Path 280" class="cls-9" d="M356.2,118.366c.605,0,4.738-2.932,6.059-5.3a39.915,39.915,0,0,0-.321-4.006c-.105-1.279-.19-2.711-.174-4.022,0-.268-.921.216-.921.216l-1.7.39-5.622,1.295a20.923,20.923,0,0,1,.732,5.043,3.434,3.434,0,0,1-.058.526.457.457,0,0,0,0,.089C354,113.628,355.22,118.361,356.2,118.366Z" transform="translate(-325.045 -88.731)"/>
      <path id="Path_281" data-name="Path 281" class="cls-5" d="M354.213,113.073a.462.462,0,0,0,0,.089,5.265,5.265,0,0,0,.842.058c5.538-.063,6.317-7.091,6.317-7.091l-2.19.068-5.622,1.3a20.92,20.92,0,0,1,.732,5.043A3.424,3.424,0,0,1,354.213,113.073Z" transform="translate(-325.064 -89.287)"/>
      <path id="Path_282" data-name="Path 282" class="cls-9" d="M357.929,80.413c1.206,2.8.595,11.339-1.263,13.434-2.69,3.032-7.554,3.827-10.244.49-2.632-3.238-1.621-14.35.495-16.319C350.033,75.148,356.155,76.28,357.929,80.413Z" transform="translate(-320.937 -75.219)"/>
      <path id="Path_283" data-name="Path 283" class="cls-5" d="M357.174,95.32s.047.032.042.058c-.058.574-.026,1.237.484,1.463v.032C357.053,96.731,357.053,95.857,357.174,95.32Z" transform="translate(-326.747 -84.167)"/>
      <path id="Path_284" data-name="Path 284" class="cls-5" d="M357.73,94.25c.926,0,.879,1.853,0,1.858S356.951,94.255,357.73,94.25Z" transform="translate(-326.744 -83.661)"/>
      <path id="Path_285" data-name="Path 285" class="cls-5" d="M350.293,95.33a.046.046,0,0,0-.047.047c0,.579-.089,1.237-.616,1.416v.032C350.272,96.736,350.388,95.877,350.293,95.33Z" transform="translate(-323.203 -84.172)"/>
      <path id="Path_286" data-name="Path 286" class="cls-5" d="M349.248,94.157c-.921-.095-1.053,1.758-.19,1.848S350.027,94.236,349.248,94.157Z" transform="translate(-322.658 -83.615)"/>
      <path id="Path_287" data-name="Path 287" class="cls-5" d="M358.435,91.465a6.915,6.915,0,0,1-.716-.274,1.206,1.206,0,0,1-.674-.416.39.39,0,0,1,.074-.474.969.969,0,0,1,.99-.074,1.437,1.437,0,0,1,.805.642.416.416,0,0,1-.479.595Z" transform="translate(-326.692 -81.707)"/>
      <path id="Path_288" data-name="Path 288" class="cls-5" d="M348.221,91.235c.258-.037.49-.111.742-.168a1.258,1.258,0,0,0,.727-.321.39.39,0,0,0,0-.479.963.963,0,0,0-.963-.211,1.411,1.411,0,0,0-.89.526.421.421,0,0,0,.384.653Z" transform="translate(-322.321 -81.651)"/>
      <path id="Path_289" data-name="Path 289" class="cls-5" d="M356.977,105.5c-.142.132-.284.316-.495.326a1.49,1.49,0,0,1-.616-.163l-.026.032a.763.763,0,0,0,.721.332.605.605,0,0,0,.468-.495C357.024,105.5,356.977,105.488,356.977,105.5Z" transform="translate(-326.144 -88.987)"/>
      <path id="Path_290" data-name="Path 290" class="cls-5" d="M353.907,96.541a1.979,1.979,0,0,1-1.337.842,2.632,2.632,0,0,1-.705,0,.573.573,0,0,1-.137,0h-.121a.147.147,0,0,1-.116-.132h0a.227.227,0,0,1,0-.058h0v-.053c0-.442.063-1.116.063-1.116-.163.079-1,.426-.984.195A29.391,29.391,0,0,1,351.5,90.3a.053.053,0,1,1,.105,0c-.089,1.848-.5,3.685-.621,5.522a3.616,3.616,0,0,1,.937-.253c.063,0-.142,1.3-.126,1.5h0a2.716,2.716,0,0,0,2.053-.579C353.9,96.435,353.955,96.5,353.907,96.541Z" transform="translate(-323.648 -81.766)"/>
      <path id="Path_291" data-name="Path 291" class="cls-5" d="M353.54,102.827a2.327,2.327,0,0,0,.911.748,1.084,1.084,0,0,0,.637.058c.463-.111.484-.526.411-.895a2.375,2.375,0,0,0-.19-.558A3.016,3.016,0,0,1,353.54,102.827Z" transform="translate(-325.055 -87.416)"/>
      <path id="Path_292" data-name="Path 292" class="cls-13" d="M355.27,104.077a1.085,1.085,0,0,0,.637.058c.463-.111.484-.526.411-.895A1.084,1.084,0,0,0,355.27,104.077Z" transform="translate(-325.874 -87.918)"/>
      <path id="Path_293" data-name="Path 293" class="cls-5" d="M356.8,85.782c-1.964-.089-2.2-3.685-2.2-3.685s-3.348-.695-3.732-3.253c0,0-3.285,1.911-5.791.89s-1.832-3.843-1.527-4.438,1.664.605,1.664.605.226-1.579.663-1.748.863.848.863.848a21.056,21.056,0,0,1,6.228-.742c2.937.205,4.269,3.232,4.269,3.232a3.208,3.208,0,0,1,2.021,1.527C359.705,80.144,358.042,85.84,356.8,85.782Z" transform="translate(-320.176 -74.134)"/>
      <path id="Path_294" data-name="Path 294" class="cls-5" d="M362.181,85.725c-2.632.237-4.28-1.579-4.554-4.085h-.047c0,2.327,2.043,5.012,4.622,4.211a.064.064,0,0,0-.021-.126Z" transform="translate(-326.968 -77.689)"/>
      <path id="Path_295" data-name="Path 295" class="cls-5" d="M369.363,80.42c-.032,0-.047.037,0,.047a5.12,5.12,0,0,1,2.027,1.348,3.178,3.178,0,0,1,.137,2.78c-.442,1.4-1.242,3.206-2.548,3.985a.068.068,0,0,0,.068.116c1.579-.832,2.537-3.159,2.822-4.838C372.185,82,371.085,80.894,369.363,80.42Z" transform="translate(-332.355 -77.111)"/>
      <path id="Path_296" data-name="Path 296" class="cls-5" d="M347.659,80.481a3.843,3.843,0,0,1-3.974-.237c-1.332-1.016-.974-2.585-.321-3.874.032-.063-.063-.137-.105-.079a3,3,0,0,0,.079,3.927,4.065,4.065,0,0,0,4.427.421C347.875,80.581,347.77,80.418,347.659,80.481Z" transform="translate(-319.858 -75.146)"/>
      <path id="Path_297" data-name="Path 297" class="cls-9" d="M367.484,95.191s1.653-2.88,2.943-2.316.216,4.627-1.179,5.3a1.474,1.474,0,0,1-2.037-.616Z" transform="translate(-331.529 -82.975)"/>
      <path id="Path_298" data-name="Path 298" class="cls-5" d="M370.8,95.14c.026,0,.032,0,0,.037a3.791,3.791,0,0,0-1.711,2.5.816.816,0,0,1,1.2-.326s0,.058,0,.053a.916.916,0,0,0-.969.405,4.481,4.481,0,0,0-.405.848c-.037.095-.205.063-.179-.047h0C368.588,97.293,369.43,95.393,370.8,95.14Z" transform="translate(-332.243 -84.082)"/>
      <rect id="Rectangle_34" data-name="Rectangle 34" class="cls-7" width="21.225" height="27.627" transform="matrix(0.969, -0.247, 0.247, 0.969, 10.367, 41.77)"/>
      <rect id="Rectangle_35" data-name="Rectangle 35" class="cls-1" width="10.06" height="3.048" transform="matrix(-0.969, 0.248, -0.248, -0.969, 25.839, 39.486)"/>
      <path id="Path_299" data-name="Path 299" class="cls-1" d="M332.183,143.748l1.2-.311-.347-1.363,2.916-.748.347,1.363,1.2-.305-.637-2.485-5.333,1.369Z" transform="translate(-314.631 -105.279)"/>
      <path id="Path_300" data-name="Path 300" class="cls-9" d="M330.846,164.943a2.19,2.19,0,0,1,.411,2.469,3.274,3.274,0,0,1,1.89,1.158c.784,1.084-.574,2.8-.574,2.8a4,4,0,0,1,1.8,1.537c.648,1.111-.474,3.032-.474,3.032a3.527,3.527,0,0,1,.726,2.348c-.216,2.248-3.306,3.785-5.264,4.785s-8.423,2.006-9.644,2.322L313.2,172.908s7.48-6.97,9.944-7.817C325.2,164.374,329.6,163.764,330.846,164.943Z" transform="translate(-305.951 -116.825)"/>
      <path id="Path_301" data-name="Path 301" class="cls-5" d="M340.989,169.94a28.59,28.59,0,0,0-6.817,1.953c-.047,0,0,.095.032.074,2.216-.816,4.564-1.184,6.812-1.916a.058.058,0,0,0-.026-.111Z" transform="translate(-315.873 -119.506)"/>
      <path id="Path_302" data-name="Path 302" class="cls-5" d="M344.09,177.469a6.223,6.223,0,0,0-1.548.526q-.805.342-1.579.695-1.579.716-3.159,1.516c-.042,0,0,.1.032.079q1.579-.721,3.19-1.369c.526-.216,1.053-.426,1.616-.632a7.772,7.772,0,0,0,1.5-.658.084.084,0,0,0-.053-.158Z" transform="translate(-317.594 -123.071)"/>
      <path id="Path_303" data-name="Path 303" class="cls-5" d="M347.271,186.46a4.137,4.137,0,0,0-1.369.526l-1.437.674c-.958.447-1.916.895-2.89,1.306a.042.042,0,0,0,0,.079c.99-.416,1.99-.816,2.974-1.237l1.453-.632a4.164,4.164,0,0,0,1.269-.684S347.292,186.454,347.271,186.46Z" transform="translate(-319.376 -127.329)"/>
      <path id="Path_304" data-name="Path 304" class="cls-5" d="M313.809,171a8.026,8.026,0,0,0-1.348.921c-.437.332-.863.674-1.284,1.016-.837.674-1.669,1.363-2.453,2.106s-1.548,1.49-2.29,2.258l-.526.526-.226.147c-.321.211-.632.426-.926.663a16.854,16.854,0,0,0-1.621,1.5.042.042,0,0,0,.058.058,14.808,14.808,0,0,1,1.732-1.4l.237-.163c-.29.321-.574.653-.837.995a27.585,27.585,0,0,0-1.958,2.848c-.026.047.042.084.074.042a23.882,23.882,0,0,1,4.138-4.611c1.506-1.411,3.011-2.985,4.559-4.432.442-.416.895-.821,1.358-1.211a17.331,17.331,0,0,0,1.379-1.179C313.92,171.032,313.862,171,313.809,171Z" transform="translate(-300.816 -120.008)"/>
    </g>
    <g id="freepik--character-1--inject-54" transform="translate(10.154 15.903)">
      <path id="Path_305" data-name="Path 305" class="cls-6" d="M126.6,370.2v22.684c0,4.338.032,8.138.247,10.1a.069.069,0,0,0,0,.032,3.054,3.054,0,0,0,.311,1.343.148.148,0,0,0,0,.026c1.284.879,35.928,2.064,37.15,1.7s.274-3.88-1.053-5-14.334-7.507-14.334-7.507l-.221-22.636Z" transform="translate(-80.422 -211.722)"/>
      <path id="Path_306" data-name="Path 306" class="cls-7" d="M126.6,404.45V409.1c0,4.338.032,8.138.247,10.1a.068.068,0,0,0,0,.032,5.949,5.949,0,0,0,.311,1.342s0,0,0,.026c1.284.879,35.928,2.064,37.15,1.7s.274-3.88-1.053-5S148.92,409.8,148.92,409.8l.063-4.738Z" transform="translate(-80.422 -227.942)"/>
      <path id="Path_307" data-name="Path 307" class="cls-3" d="M164.345,426.322c-1.227.368-35.86-.821-37.15-1.7-.495-.332-.621-5.385-.59-11.5v-.189l22.357.526v.379s13.055,6.38,14.371,7.5S165.566,425.959,164.345,426.322Z" transform="translate(-80.423 -231.958)"/>
      <path id="Path_308" data-name="Path 308" class="cls-5" d="M165.949,434.832c-5.833-.342-29.4-1.174-35.191-1.053-.047,0-.047.032,0,.037,5.791.463,29.343,1.105,35.186,1.132C166.07,434.943,166.07,434.843,165.949,434.832Z" transform="translate(-82.374 -241.826)"/>
      <path id="Path_309" data-name="Path 309" class="cls-5" d="M166.352,414.66a8.069,8.069,0,0,0-6.917,1.327c-.068.058,0,.158.095.137a32.34,32.34,0,0,1,6.8-1.174.147.147,0,0,0,.021-.289Z" transform="translate(-95.959 -232.662)"/>
      <path id="Path_310" data-name="Path 310" class="cls-5" d="M169.44,416.661a8.087,8.087,0,0,0-6.917,1.327c-.074.063,0,.163.09.142a32.448,32.448,0,0,1,6.807-1.179.147.147,0,0,0,.021-.29Z" transform="translate(-97.42 -233.61)"/>
      <path id="Path_311" data-name="Path 311" class="cls-5" d="M172.522,418.67A8.073,8.073,0,0,0,165.605,420c-.068.063,0,.158.095.137a32.327,32.327,0,0,1,6.807-1.174.147.147,0,0,0,.016-.29Z" transform="translate(-98.881 -234.561)"/>
      <path id="Path_312" data-name="Path 312" class="cls-8" d="M149.687,305.343l-24.247.484.526-44.967.021-1.6.053-4.469.658-56.664.163-13.782h20.473l.242,12.429,1.105,56.869Z" transform="translate(-79.873 -123.708)"/>
      <path id="Path_313" data-name="Path 313" class="cls-5" d="M149.528,406.442c-3.785-.032-2.7-.074-6.486-.063-1.853,0-14.029.042-15.756.353a.037.037,0,0,0,0,.074c1.732.268,13.9,0,15.756-.026,3.785-.084,2.7-.1,6.48-.226a.058.058,0,0,0,.005-.111Z" transform="translate(-80.73 -228.855)"/>
      <path id="Path_314" data-name="Path 314" class="cls-5" d="M155.876,192.424c-.253,14.377-.221,28.764-.205,43.167s.047,28.69.121,43.035c.037,8.091,0,16.187.179,24.273,0,.337.526.305.526-.032.047-7.207-.032-14.419-.058-21.631s-.032-14.419-.053-21.631q-.053-21.515-.137-43.03c-.042-8.049-.068-16.093-.226-24.142C156.018,192.318,155.876,192.329,155.876,192.424Z" transform="translate(-94.184 -127.496)"/>
      <path id="Path_315" data-name="Path 315" class="cls-5" d="M145.149,184.35,126.44,260.86l.895-76.51Z" transform="translate(-80.346 -123.708)"/>
      <path id="Path_316" data-name="Path 316" class="cls-6" d="M80.262,370.978s-2.9,21.583-2.9,21.62c-.032,4.338-.132,8.138-.368,10.1a.068.068,0,0,1,0,.032,2.969,2.969,0,0,1-.326,1.337v.032c-1.295.863-35.944,1.653-37.165,1.274s-.232-3.885,1.09-4.985,14.456-7.338,14.456-7.338l3.638-22.636Z" transform="translate(-38.911 -211.822)"/>
      <path id="Path_317" data-name="Path 317" class="cls-7" d="M77.735,403.75c-.221,2.706-.374,4.622-.374,4.638-.032,4.338-.132,8.138-.368,10.1a.068.068,0,0,1,0,.032,5.723,5.723,0,0,1-.326,1.337v.032c-1.295.863-35.944,1.653-37.165,1.274s-.232-3.885,1.09-4.985,14.456-7.338,14.456-7.338l.437-4.78Z" transform="translate(-38.911 -227.611)"/>
      <path id="Path_318" data-name="Path 318" class="cls-3" d="M39.438,425.16c1.221.379,35.87-.411,37.171-1.279.495-.321.679-5.375.716-11.486V412.2l-22.357.258v.379s-13.113,6.233-14.445,7.338S38.216,424.782,39.438,425.16Z" transform="translate(-38.879 -231.613)"/>
      <path id="Path_319" data-name="Path 319" class="cls-5" d="M40.546,433.619c5.838-.279,29.406-.842,35.2-.669.047,0,.047.032,0,.037-5.791.4-29.359.769-35.2.726C40.425,433.714,40.42,433.624,40.546,433.619Z" transform="translate(-39.624 -241.424)"/>
      <path id="Path_320" data-name="Path 320" class="cls-5" d="M64.618,412.73c2.285-.479,5.106-.195,6.9,1.406.074.063,0,.158-.089.137a32.363,32.363,0,0,0-6.791-1.253.147.147,0,0,1-.016-.289Z" transform="translate(-51.015 -231.764)"/>
      <path id="Path_321" data-name="Path 321" class="cls-5" d="M61.508,414.7c2.285-.479,5.106-.189,6.9,1.406.068.063,0,.158-.095.137a32.3,32.3,0,0,0-6.791-1.253.147.147,0,0,1-.016-.29Z" transform="translate(-49.543 -232.698)"/>
      <path id="Path_322" data-name="Path 322" class="cls-5" d="M58.4,416.671c2.29-.479,5.106-.19,6.9,1.406.068.063,0,.158-.095.137a32.3,32.3,0,0,0-6.791-1.253.147.147,0,0,1-.016-.29Z" transform="translate(-48.07 -233.631)"/>
      <path id="Path_323" data-name="Path 323" class="cls-8" d="M117.479,184.291h0c-.089.421-1.521,7.065-3.006,12.771-1.079,4.169-2.19,7.833-2.827,8.212-.721.426-4.238,1.985-5.417,2.474l-7.312,46.957-.7,4.5L91.005,305.5,66.79,304.236l9.133-48.368,10.776-57,2.758-14.6Z" transform="translate(-52.097 -123.67)"/>
      <path id="Path_324" data-name="Path 324" class="cls-5" d="M92.534,405.3c-3.78-.242-2.69-.226-6.47-.432-1.853-.1-14.008-.742-15.751-.526-.037,0-.042.074,0,.079,1.716.363,13.882.795,15.735.863,3.785.126,2.7.047,6.486.137C92.6,405.414,92.6,405.3,92.534,405.3Z" transform="translate(-53.752 -227.87)"/>
      <path id="Path_325" data-name="Path 325" class="cls-5" d="M102.82,193.373c-1.258,7.086-2.674,14.15-3.98,21.231s-2.632,14.161-3.948,21.241Q90.96,256.985,86.938,278.1c-1.511,7.928-3.053,15.845-4.511,23.784-.042.221.295.311.342.084,2.906-14.1,5.554-28.264,8.228-42.419s5.264-28.185,7.775-42.3c1.421-7.944,2.706-15.914,4.127-23.857C102.91,193.341,102.831,193.32,102.82,193.373Z" transform="translate(-59.501 -127.966)"/>
      <path id="Path_326" data-name="Path 326" class="cls-5" d="M148.982,222.427a46.017,46.017,0,0,0-7.249,3.374.084.084,0,0,0,.068.153c2.443-1.053,4.933-2.053,7.312-3.238a.159.159,0,0,0-.132-.29Z" transform="translate(-87.569 -141.733)"/>
      <path id="Path_327" data-name="Path 327" class="cls-5" d="M152.458,190.606c0-.084-.158-.105-.153,0,0,2.9-.168,5.454-.411,8.16-.116,1.258-1.127,8.212-3.306,7.7-.368-.084-.553-.442-.611-.995a8.771,8.771,0,0,1,.29-2.106c.242-1.453.437-2.911.563-4.385a40.12,40.12,0,0,0-.089-8.223.074.074,0,0,0-.142,0,75.04,75.04,0,0,1-.663,11.35c-.274,1.811-1.184,4.533.705,4.812s3.159-4.28,3.411-5.522A41.856,41.856,0,0,0,152.458,190.606Z" transform="translate(-90.308 -126.637)"/>
      <path id="Path_328" data-name="Path 328" class="cls-5" d="M149.075,220.977a10.822,10.822,0,0,0-.49,1.442,3.285,3.285,0,0,0-.205,1.184c0,.074.111.084.153.032a4.264,4.264,0,0,0,.526-1.153c.163-.447.342-.89.495-1.337a.254.254,0,1,0-.479-.168Z" transform="translate(-90.736 -140.973)"/>
      <path id="Path_329" data-name="Path 329" class="cls-5" d="M129.137,253.616l-21.994,1.116-.647.032L84.17,255.895l10.76-57.027,2.758-14.6h30.127l.242,12.429Z" transform="translate(-60.328 -123.67)"/>
      <path id="Path_330" data-name="Path 330" class="cls-8" d="M131.774,218.855c-.332.374-48.957,0-49.041-.079s.447-3.227,1.39-8.286c3.643-19.578,13.45-67.94,17.835-80.016,1.916-5.3,4.627-9.476,7.786-11.871a4.211,4.211,0,0,1,.848-.484c2.3-1.016,6.759-1.337,8.06.205,1.021,1.205,4.022,10.36,5.743,17.614C132.237,168.934,132.174,218.407,131.774,218.855Z" transform="translate(-59.643 -91.936)"/>
      <path id="Path_331" data-name="Path 331" class="cls-5" d="M111.848,118.86c-.721,2.711-20.92,73.057-26.468,92.387,3.643-19.578,13.45-67.94,17.835-80.016,1.916-5.3,4.627-9.476,7.786-11.871A4.212,4.212,0,0,1,111.848,118.86Z" transform="translate(-60.901 -92.693)"/>
      <path id="Path_332" data-name="Path 332" class="cls-6" d="M140.335,121.918c.832,2.632,4.017,11.787,5.654,18.33,1.095,4.4,1.4,8.044,1.637,9.012,0,0-10.055-3.906-12.366-4.048-3.553-.221-9.7,6.843-8.36,7.9,2.106,1.579,12.266,8.949,20.662,10.46,6.9,1.248,13.84-2.922,13.476-9.449s-11.755-24.742-15.9-29.853C142.983,121.6,139.319,118.733,140.335,121.918Z" transform="translate(-80.475 -93.477)"/>
      <path id="Path_333" data-name="Path 333" class="cls-8" d="M162.417,154.933c-1.579,7.528-7.959,8.575-11.344,8.581-5.838,0-17.2-4.211-19.93-6.243s-2.3-4.085-2.3-4.085l6.749-9.476a9.308,9.308,0,0,1,3.569.237c1.49.526,9.16,4.538,9.476,4.669h0c-.084-.353-2.353-11.523-3.443-15.266-.058-.205-.126-.416-.189-.637-.316-1.053-.753-2.4-1.237-3.869h0c-.268-.816-.526-1.669-.832-2.511h0c-1.221-3.648-2.416-7.122-2.416-7.122,1.979.447,3.89,1.616,6.928,5.212S164,147.405,162.417,154.933Z" transform="translate(-81.474 -92.859)"/>
      <path id="Path_334" data-name="Path 334" class="cls-5" d="M150.612,193.794c-.4-.1-.816-.142-1.216-.242s-.884-.216-1.327-.311c-.816-.179-1.621-.368-2.427-.584-1.669-.447-3.322-.958-4.969-1.485s-3.285-1.053-4.917-1.579a18.114,18.114,0,0,1-4.411-2.027,6.254,6.254,0,0,1-1.816-1.769,3.474,3.474,0,0,1-.611-2.7c0-.053-.074-.074-.084,0a4.622,4.622,0,0,0,.084,2.211,5.1,5.1,0,0,0,1.2,1.89,11.492,11.492,0,0,0,4.164,2.522c1.663.658,3.385,1.169,5.085,1.711s3.506,1.137,5.264,1.627c.958.263,1.932.5,2.916.674a12.812,12.812,0,0,0,1.421.19,13.606,13.606,0,0,0,1.579.053.095.095,0,1,0,.063-.179Z" transform="translate(-81.435 -123.092)"/>
      <path id="Path_335" data-name="Path 335" class="cls-5" d="M161,173.512q-2.227-1.127-4.475-2.227c.337.053.679.1,1.016.163a8.7,8.7,0,0,1,1.848.526.042.042,0,0,0,.037-.074,7.608,7.608,0,0,0-3.474-.895l-2.669-1.311c-1.274-.626-2.537-1.258-3.8-1.9a32.132,32.132,0,0,0-3.585-1.674,7.712,7.712,0,0,0-4.211-.405c-.042,0-.032.084,0,.079,2.685-.221,5.117,1.184,7.438,2.348,2.469,1.248,4.948,2.485,7.48,3.6,1.437.632,2.885,1.258,4.343,1.837C161.01,173.6,161.047,173.533,161,173.512Z" transform="translate(-87.553 -114.823)"/>
      <path id="Path_336" data-name="Path 336" class="cls-5" d="M136.828,186.5a27.284,27.284,0,0,1-3.685-2.364,10,10,0,0,1-1.316-1.311,7.993,7.993,0,0,1-.605-.848c-.074-.121-.153-.247-.221-.374,0-.032-.311-.663-.216-.658s.053-.074,0-.079c-.353-.042.2,1.053.268,1.211a6.575,6.575,0,0,0,1.369,1.811,14.74,14.74,0,0,0,4.354,2.632S136.849,186.512,136.828,186.5Z" transform="translate(-82.349 -122.059)"/>
      <path id="Path_337" data-name="Path 337" class="cls-5" d="M145.137,171.563a15.68,15.68,0,0,0-3.059-1.864,6.647,6.647,0,0,0-1.653-.4,9.15,9.15,0,0,0-1.821.089c-.053,0-.053.089,0,.084a6.979,6.979,0,0,1,1.842.126,9.512,9.512,0,0,1,1.616.39,7.958,7.958,0,0,1,1.579.742,7.679,7.679,0,0,0,1.485.874S145.158,171.574,145.137,171.563Z" transform="translate(-86.088 -116.575)"/>
      <path id="Path_338" data-name="Path 338" class="cls-5" d="M143.005,168.631a4.7,4.7,0,0,0-3.306-.416.042.042,0,0,0,.026.079c1.084-.374,2.227.111,3.274.379C143.042,168.678,143.053,168.641,143.005,168.631Z" transform="translate(-86.615 -115.985)"/>
      <path id="Path_339" data-name="Path 339" class="cls-5" d="M139.046,179.038a6.087,6.087,0,0,0-.363-.526,3.322,3.322,0,0,0-.526-.484h0a2.327,2.327,0,0,1,.774.995c-.495.074-.905-.321-1.263-.611s-.732-.611-1.084-.927a23.5,23.5,0,0,1-2.011-2.021.042.042,0,0,0-.063.047,15.22,15.22,0,0,0,2.106,2.39,9.575,9.575,0,0,0,1.2.958,1.258,1.258,0,0,0,1.221.258A.058.058,0,0,0,139.046,179.038Z" transform="translate(-84.166 -119.496)"/>
      <path id="Path_340" data-name="Path 340" class="cls-5" d="M140.743,174.021a7.1,7.1,0,0,0-3.9-1.721.042.042,0,1,0,0,.084,11.091,11.091,0,0,1,3.89,1.679C140.738,174.085,140.769,174.042,140.743,174.021Z" transform="translate(-85.253 -118.001)"/>
      <path id="Path_341" data-name="Path 341" class="cls-5" d="M165.571,158.885l-3.511-1.553h0c-.084-.353-2.353-11.523-3.443-15.266-.058-.205-.126-.416-.19-.637-.316-1.053-.753-2.4-1.237-3.869Z" transform="translate(-94.909 -101.549)"/>
      <path id="Path_342" data-name="Path 342" class="cls-1" d="M127.293,149.822c-.911-.042-3.074-.579-3.917.126-5.154,4.306-6.638,3.285-7.712,3.822-8.312,4.143-19.73,11.055-23.563,10.844-5.791-.3-9.7-5.459-8.46-10,2.453-8.991,18.025-27.969,23.863-32.354,3.1-2.322,2.632,1.432,1.174,5.454-.858,2.358-2.322,5.854-3.806,9.281-1.316,3.053-4.785,10.85-4.848,11.055h0s0,.026.063,0a103.213,103.213,0,0,1,14.34-4.211c2.469-.479,5.754-.616,7.57.205A9.141,9.141,0,0,1,127.293,149.822Z" transform="translate(-59.969 -93.965)"/>
      <path id="Path_343" data-name="Path 343" class="cls-8" d="M108.894,143.761a6.716,6.716,0,0,1,1.874-.326l4.875,9.081a3.6,3.6,0,0,1-1.174,2.443c-1.105.879-17.967,8.533-22.078,8.712s-9.828-3.353-9.6-8.491c.321-7.223,14.792-25.268,21.11-31.585,2.9-2.906,6.2-4.948,6.97-4.4.916.653-1.053,4.411-2.106,7.233-2,5.217-8.023,20.088-8.023,20.088S107.346,144.183,108.894,143.761Z" transform="translate(-59.673 -92.811)"/>
      <path id="Path_344" data-name="Path 344" class="cls-1" d="M123.6,157.691a98.616,98.616,0,0,0-10.26,2.916l-.147.047c-1.753.605-2.843,1.053-3.1,1.095l-.053-.037h0a2.3,2.3,0,0,0-.526-.316c-.479-.195-5.127-.974-4.948-2.416s2.074-1.258,2.353-1.227c-.3-.079-2.811-.779-1.932-2.011.621-.874,3.127-.637,3.38-.616-.253-.095-2.553-.953-1.7-2.211.611-.9,3.411-.663,3.732-.595-.258-.111-2.322-.526-1.306-1.621.705-.747,5.949.263,8.249,1.532A24.57,24.57,0,0,1,123.6,157.691Z" transform="translate(-69.985 -107.651)"/>
      <path id="Path_345" data-name="Path 345" class="cls-5" d="M115.446,167.163l-.147.047a16.9,16.9,0,0,0-6.18-2.827c-.147-.026-.153-.111,0-.095A11.581,11.581,0,0,1,115.446,167.163Z" transform="translate(-72.09 -114.206)"/>
      <path id="Path_346" data-name="Path 346" class="cls-5" d="M111.914,159.442a18.572,18.572,0,0,1,7.549,3.532c.042.026.089-.032.053-.063-2.585-2.106-4.211-3.159-7.57-3.553C111.8,159.342,111.766,159.405,111.914,159.442Z" transform="translate(-73.421 -111.871)"/>
      <path id="Path_347" data-name="Path 347" class="cls-5" d="M115.732,154.051a16.848,16.848,0,0,1,7.291,3.975c.058.047.137,0,.084-.079a11.989,11.989,0,0,0-7.338-3.985C115.569,153.929,115.538,153.977,115.732,154.051Z" transform="translate(-75.213 -109.312)"/>
      <path id="Path_348" data-name="Path 348" class="cls-6" d="M140.885,115.924c-.558.226-4.548.4-6.128-1.816a39.667,39.667,0,0,1-.111-4.011c-.032-1.29-.1-2.722-.258-4.022-.032-.268.937.116.937.116l1.732.205,5.733.69a20.679,20.679,0,0,0-.189,5.091,2.633,2.633,0,0,0,.116.526s0,.053,0,.089C143.028,113.786,142,115.466,140.885,115.924Z" transform="translate(-84.11 -86.593)"/>
      <path id="Path_349" data-name="Path 349" class="cls-5" d="M143.13,113.077v.089a6.01,6.01,0,0,1-.837.142c-5.512.526-7.033-6.375-7.033-6.375l2.185-.163,5.733.69a20.678,20.678,0,0,0-.19,5.09A2.631,2.631,0,0,0,143.13,113.077Z" transform="translate(-84.523 -86.968)"/>
      <path id="Path_350" data-name="Path 350" class="cls-6" d="M129.394,80.037c-.895,2.911.626,11.334,2.7,13.218,3,2.727,7.9,3,10.239-.611,2.248-3.5.074-14.44-2.237-16.151C136.685,73.972,130.716,75.73,129.394,80.037Z" transform="translate(-81.621 -72.079)"/>
      <path id="Path_351" data-name="Path 351" class="cls-5" d="M142.918,94.18s-.042.032-.037.058c.116.563.158,1.232-.321,1.511v.032C143.181,95.58,143.118,94.7,142.918,94.18Z" transform="translate(-87.98 -81.005)"/>
      <path id="Path_352" data-name="Path 352" class="cls-5" d="M141.544,93.218c-.921.089-.674,1.937.184,1.853S142.323,93.144,141.544,93.218Z" transform="translate(-87.222 -80.549)"/>
      <path id="Path_353" data-name="Path 353" class="cls-5" d="M149.537,93.5s.053,0,.053.047c.058.574.226,1.221.769,1.342v.032C149.711,94.916,149.506,94.053,149.537,93.5Z" transform="translate(-91.283 -80.683)"/>
      <path id="Path_354" data-name="Path 354" class="cls-5" d="M149.968,92.227c.911-.195,1.232,1.637.39,1.816S149.205,92.39,149.968,92.227Z" transform="translate(-91.283 -80.073)"/>
      <path id="Path_355" data-name="Path 355" class="cls-5" d="M139.963,90.532c.242-.1.447-.232.679-.353a1.221,1.221,0,0,0,.626-.484.4.4,0,0,0-.126-.463.969.969,0,0,0-.99.032,1.421,1.421,0,0,0-.737.726.421.421,0,0,0,.547.542Z" transform="translate(-86.478 -78.604)"/>
      <path id="Path_356" data-name="Path 356" class="cls-5" d="M150.016,89.262a7.434,7.434,0,0,1-.758-.089,1.2,1.2,0,0,1-.753-.242.39.39,0,0,1-.042-.479.974.974,0,0,1,.937-.311,1.427,1.427,0,0,1,.942.426.421.421,0,0,1-.326.695Z" transform="translate(-90.746 -78.135)"/>
      <path id="Path_357" data-name="Path 357" class="cls-5" d="M143.543,104.384c.153.116.316.279.526.268a1.548,1.548,0,0,0,.595-.226h.026a.779.779,0,0,1-.684.411.611.611,0,0,1-.526-.447A.061.061,0,0,1,143.543,104.384Z" transform="translate(-88.416 -85.834)"/>
      <path id="Path_358" data-name="Path 358" class="cls-5" d="M144.285,95.129a1.948,1.948,0,0,0,1.416.69,2.29,2.29,0,0,0,.705-.063.6.6,0,0,0,.132-.032l.121-.037a.137.137,0,0,0,.095-.142h0a.227.227,0,0,0,0-.058h0V95.44c-.047-.442-.179-1.105-.179-1.105.168.058,1.053.316.995.089a29.279,29.279,0,0,0-1.553-5.791.053.053,0,0,0-.1.026c.284,1.827.89,3.6,1.205,5.427a3.638,3.638,0,0,0-.958-.158c-.058.032.279,1.279.29,1.479a2.711,2.711,0,0,1-2.106-.353C144.285,95.034,144.243,95.082,144.285,95.129Z" transform="translate(-88.789 -78.364)"/>
      <path id="Path_359" data-name="Path 359" class="cls-5" d="M146,101.408a2.348,2.348,0,0,1-.832.842,1.053,1.053,0,0,1-.621.121c-.474-.058-.526-.474-.526-.842a2.542,2.542,0,0,1,.126-.579A3.017,3.017,0,0,0,146,101.408Z" transform="translate(-88.672 -84.211)"/>
      <path id="Path_360" data-name="Path 360" class="cls-13" d="M145.168,102.762a1.053,1.053,0,0,1-.621.121c-.474-.058-.526-.474-.526-.842A1.053,1.053,0,0,1,145.168,102.762Z" transform="translate(-88.672 -84.723)"/>
      <path id="Path_361" data-name="Path 361" class="cls-5" d="M129.444,87.55c1.679-.274,2.379-2.806,2.406-4.659.026-1.374-.495-4.122.848-5.059s2.89.053,4.527-.253c.695-.132,1.253-1.169,2-1.269s1.853,1.969,1.853,1.969-.295-3.006-4.1-3.237-7.328,1.579-8.165,4.638A13.252,13.252,0,0,0,129.444,87.55Z" transform="translate(-81.298 -71.933)"/>
      <path id="Path_362" data-name="Path 362" class="cls-8" d="M126.375,82.759S128.2,78.9,129.7,77.553c.958-.853,4.359-1.779,5.543-1.921.826-.105,2.448-.121,2.448-.121a6.786,6.786,0,0,0,.526-.732,2.658,2.658,0,0,0,.126-2.527c-.674-1.374-2.6-1.348-3.559-1.9s-3.648-1.579-5.227-1.053a11.915,11.915,0,0,0-4.111,2.832c-1.943,1.279-3.6,2.669-3.985,4.68-.447,2.348.247,3.932.168,4.864a4.022,4.022,0,0,0,1.874,4.022,5.017,5.017,0,0,0,2.174.526Z" transform="translate(-77.918 -69.153)"/>
      <path id="Path_363" data-name="Path 363" class="cls-5" d="M139.282,78.009a5.5,5.5,0,0,0-.726-.268,1.384,1.384,0,0,0,.479-.805,6.021,6.021,0,0,0,0-1.411c0-.053-.09-.053-.084,0a3.332,3.332,0,0,1-.089,1.29,2.385,2.385,0,0,1-.458.879,4.53,4.53,0,0,0-.595-.1l.079-.142a1.72,1.72,0,0,0,.137-.342,1.616,1.616,0,0,0,.042-.726c0-.053-.089,0-.079,0a1.5,1.5,0,0,1-.032.684,1.663,1.663,0,0,1-.132.316,1.226,1.226,0,0,1-.09.137l-.032.042a1.355,1.355,0,0,0-.153,0,12.264,12.264,0,0,0-2.016.105l-.526.074a1.485,1.485,0,0,0,.121-.242,2.106,2.106,0,0,0,0-1.005,1.848,1.848,0,0,1-.09,1,.653.653,0,0,1-.268.279l-.395.068a1.053,1.053,0,0,1-.611-.505,1.969,1.969,0,0,1-.316-.916.042.042,0,0,0-.084,0,2.753,2.753,0,0,0,.195.821,1.652,1.652,0,0,0,.416.674,9.392,9.392,0,0,0-1.842.59,5.6,5.6,0,0,0-1.232.769,3.069,3.069,0,0,1-.721-.174,1.579,1.579,0,0,1-.7-.526c0-.047-.1,0-.068.042a1.916,1.916,0,0,0,1.316.811,7.454,7.454,0,0,0-1.032,1.069.554.554,0,0,0-.142,0,1.638,1.638,0,0,1-.321-.105,2.106,2.106,0,0,1-.584-.374,3.753,3.753,0,0,1-.79-1.242c0-.042-.095,0-.079.037a5.6,5.6,0,0,0,.774,1.374,1.611,1.611,0,0,0,.59.458,1.437,1.437,0,0,0,.363.105h0l-.079.1c-.063.084-.121.174-.184.263a.911.911,0,0,1-.59.079,1.511,1.511,0,0,1-.869-.721c-.032-.047-.1,0-.063.053.258.316.526.737.942.842a.942.942,0,0,0,.384,0,19.306,19.306,0,0,0-1.374,2.19l-.074-.116a1.991,1.991,0,0,0-.29-.337,2.074,2.074,0,0,0-.342-.268c-.126-.079-.253-.163-.379-.232-.047,0-.084.042-.042.074a2.106,2.106,0,0,1,.342.263c.1.1.19.205.279.311a3.768,3.768,0,0,1,.253.321c.042.058.079.121.121.174l.026.037c-.084.163-.168.321-.242.49s-.116.29-.168.437h-.516a4.016,4.016,0,0,1-.7-.137,4.676,4.676,0,0,1-.658-.242,1.653,1.653,0,0,1-.595-.479c-.032-.042-.105,0-.068.042a2.969,2.969,0,0,0,1.179.984,2.179,2.179,0,0,0,.774.153,2.043,2.043,0,0,0,.49-.053,9.153,9.153,0,0,0-.374,1.4,10.944,10.944,0,0,0-.047,2.274c0,.053.089.047.084,0a5.675,5.675,0,0,1,.205-1.969,9.856,9.856,0,0,1,.611-1.806,20.367,20.367,0,0,1,1.858-3.237,7.644,7.644,0,0,1,2.443-2.548,9.223,9.223,0,0,1,3.248-1,10.332,10.332,0,0,1,4.138,0C139.3,78.109,139.329,78.03,139.282,78.009Z" transform="translate(-79.48 -72.152)"/>
      <path id="Path_364" data-name="Path 364" class="cls-6" d="M129.76,95.415s-1.953-2.69-3.159-1.99.279,4.627,1.737,5.138a1.474,1.474,0,0,0,1.964-.826Z" transform="translate(-80.213 -80.593)"/>
      <path id="Path_365" data-name="Path 365" class="cls-5" d="M127.86,95.65v.037a3.737,3.737,0,0,1,1.974,2.3.816.816,0,0,0-1.227-.2s0,.058.032.053a.9.9,0,0,1,1,.3,4.143,4.143,0,0,1,.495.8c.047.089.211.037.179-.068h0C130.292,97.55,129.255,95.755,127.86,95.65Z" transform="translate(-81.019 -81.701)"/>
      <path id="Path_366" data-name="Path 366" class="cls-1" d="M131.973,104.33a8.565,8.565,0,0,1-3.748-2.679,7.37,7.37,0,0,1-1.485-3.09,5.711,5.711,0,0,0,.595,1.274,4.011,4.011,0,0,0,.963,1.053h0a7.991,7.991,0,0,0,3.722,3.159C132.167,104.14,132.141,104.382,131.973,104.33Z" transform="translate(-80.488 -83.079)"/>
      <path id="Path_367" data-name="Path 367" class="cls-1" d="M131.026,96.336A14.853,14.853,0,0,0,129.2,93.92h0a4.257,4.257,0,0,0-.342-.284,1.616,1.616,0,0,0-.653-.311,1.011,1.011,0,0,1,.6-.079c1.053.147,1.89,2.232,2.316,3.016C131.147,96.315,131.068,96.389,131.026,96.336Z" transform="translate(-81.184 -80.556)"/>
      <path id="Path_368" data-name="Path 368" class="cls-1" d="M133.03,98.621c-.179-.4,2.764,3.106,7.144,3.111a5.685,5.685,0,0,0,4.922-2.685c.253-.368.163,3.574-.9,5.317a5.412,5.412,0,0,1-3.4,2.058,8.286,8.286,0,0,1-7.9-3.064C132.42,102.754,134.546,101.964,133.03,98.621Z" transform="translate(-83.373 -83.094)"/>
      <path id="Path_369" data-name="Path 369" class="cls-4" d="M135.31,102a23.162,23.162,0,0,0,2.574,1.248,11.244,11.244,0,0,0,2.716.769,5.891,5.891,0,0,0,2.764-.316,6.027,6.027,0,0,0,2.364-1.527,5.375,5.375,0,0,1-2.29,1.716,5.859,5.859,0,0,1-2.869.39,10.449,10.449,0,0,1-2.764-.848A14.655,14.655,0,0,1,135.31,102Z" transform="translate(-84.547 -84.709)"/>
      <path id="Path_370" data-name="Path 370" class="cls-4" d="M135.31,103.89a23.159,23.159,0,0,0,2.574,1.248,11.255,11.255,0,0,0,2.716.774,5.964,5.964,0,0,0,2.764-.321,6.027,6.027,0,0,0,2.364-1.527,5.375,5.375,0,0,1-2.29,1.716,5.859,5.859,0,0,1-2.869.39,10.449,10.449,0,0,1-2.764-.848A14.656,14.656,0,0,1,135.31,103.89Z" transform="translate(-84.547 -85.604)"/>
      <path id="Path_371" data-name="Path 371" class="cls-4" d="M135.31,105.8a13.859,13.859,0,0,0,2.516,1.363,8.881,8.881,0,0,0,2.737.695,6.543,6.543,0,0,0,2.774-.368,6.359,6.359,0,0,0,2.39-1.516,5.585,5.585,0,0,1-2.316,1.706,6.422,6.422,0,0,1-2.869.442,8.533,8.533,0,0,1-2.8-.774A10.339,10.339,0,0,1,135.31,105.8Z" transform="translate(-84.547 -86.508)"/>
      <path id="Path_372" data-name="Path 372" class="cls-4" d="M134.73,107.41a12.24,12.24,0,0,0,2.537,1.5,8.828,8.828,0,0,0,2.827.732,7.023,7.023,0,0,0,2.874-.368,6.533,6.533,0,0,0,2.485-1.553,5.727,5.727,0,0,1-2.416,1.727,6.928,6.928,0,0,1-2.964.437,8.323,8.323,0,0,1-2.885-.816A9.644,9.644,0,0,1,134.73,107.41Z" transform="translate(-84.272 -87.271)"/>
      <path id="Path_373" data-name="Path 373" class="cls-5" d="M125.742,182.433a.058.058,0,0,0-.111,0c-.026,1.642-1.453,2.632-2.78,3.306-1.432.726-2.9,1.395-4.359,2.058-3.037,1.379-6.122,2.632-9.228,3.832-.858.337-1.721.663-2.585.99s-1.8.721-2.722.979c-.053,0,0,.095,0,.079.826-.305,1.685-.526,2.522-.779s1.674-.526,2.506-.816c1.627-.553,3.227-1.169,4.822-1.806s3.253-1.332,4.859-2.043c1.521-.679,3.053-1.353,4.522-2.132C124.553,185.392,125.995,184.128,125.742,182.433Z" transform="translate(-69.689 -122.781)"/>
      <path id="Path_374" data-name="Path 374" class="cls-5" d="M138.615,178.733a3.479,3.479,0,0,1-.416,1.09,7.194,7.194,0,0,1-.405.705,8.046,8.046,0,0,1-1.163,1.374,18.5,18.5,0,0,1-2.89,2.106h0a18.224,18.224,0,0,0,3.085-2.106A6.785,6.785,0,0,0,138,180.533a5.169,5.169,0,0,0,.416-.816c.132-.326.153-.674.274-1C138.7,178.691,138.615,178.669,138.615,178.733Z" transform="translate(-83.803 -121.028)"/>
      <path id="Path_375" data-name="Path 375" class="cls-5" d="M136.374,175.156c-.895.39-1.753.89-2.632,1.332s-1.811.9-2.722,1.337h0q1.342-.59,2.669-1.232a28.427,28.427,0,0,0,2.706-1.384C136.447,175.2,136.421,175.135,136.374,175.156Z" transform="translate(-82.515 -119.352)"/>
      <path id="Path_376" data-name="Path 376" class="cls-5" d="M139.2,176.185a5.681,5.681,0,0,1-1.2.979c-.463.326-.927.658-1.4.979-.042.032,0,.1.042.068.484-.347.974-.69,1.463-1.026a3.964,3.964,0,0,0,1.137-.974S139.226,176.164,139.2,176.185Z" transform="translate(-85.152 -119.839)"/>
      <path id="Path_377" data-name="Path 377" class="cls-5" d="M132.506,169.937a5.306,5.306,0,0,0-1.579-.237,5.228,5.228,0,0,0-1.516.337c-1.105.368-2.2.758-3.311,1.105a.042.042,0,0,0,.026.079c1.053-.347,2.106-.653,3.159-.974a6.906,6.906,0,0,1,1.579-.369,11.949,11.949,0,0,1,1.627.116A.03.03,0,1,0,132.506,169.937Z" transform="translate(-80.174 -116.77)"/>
      <path id="Path_378" data-name="Path 378" class="cls-5" d="M116.929,165.368a3.7,3.7,0,0,0-1.879.279c-.69.179-1.5.405-2.243.621-1.458.426-2.906.874-4.338,1.369q-2.716.937-5.333,2.106a13.067,13.067,0,0,0-1.327.374q-.816.253-1.611.569c-1.053.405-2.016.905-3.006,1.4-.047,0,0,.095.042.068a25.014,25.014,0,0,1,3.069-1.311c.5-.184,1-.353,1.506-.526l.153-.042c-.611.284-1.216.579-1.811.884a43.054,43.054,0,0,0-4.422,2.579s0,.042,0,.032a57.759,57.759,0,0,1,8.038-3.974q4.138-1.658,8.386-2.99c.795-.253,1.579-.49,2.4-.742a5.709,5.709,0,0,1,2.369-.611C116.929,165.452,116.929,165.373,116.929,165.368Z" transform="translate(-65.803 -114.696)"/>
      <path id="Path_379" data-name="Path 379" class="cls-5" d="M143.18,120.94h-.042a2.906,2.906,0,0,1-1.284,2.927,4.964,4.964,0,0,1-3.274.732,10.081,10.081,0,0,1-3.4-.99,3.586,3.586,0,0,1-2.19-2.479c0-.053-.089-.053-.079,0a3.869,3.869,0,0,0,1.142,2.343,6.559,6.559,0,0,0,2.769,1.353c1.927.526,4.443.569,5.791-1.174A3.011,3.011,0,0,0,143.18,120.94Z" transform="translate(-83.41 -93.678)"/>
    </g>
    <g id="freepik--character-2--inject-54" transform="translate(80.886 19.339)">
      <path id="Path_380" data-name="Path 380" class="cls-14" d="M212.276,223.755c-.416,1.958.653,4.88-.832,5.012-1.321.116-1.864-1.979-1.864-1.979s-.153,2.558-1.606,2.279-1.579-2.7-1.579-2.7-.032,2.137-1.463,1.753-1.916-2.416-1.916-2.416-.426.605-1.321-.121c-1.274-1.053-1.211-4.59-.742-6.438a91.3,91.3,0,0,1,4.059-9.239l11.887,2.932s.674,3.685.79,5.575-1.242,8.286-2.848,8.054-.569-4.738-.526-5.875-.253-1.353-.663-.837A21.486,21.486,0,0,0,212.276,223.755Z" transform="translate(-186.219 -139.247)"/>
      <path id="Path_381" data-name="Path 381" class="cls-5" d="M217.068,235.279a10.755,10.755,0,0,1,.826-7.133c0-.058-.053-.1-.079-.047-1.332,2.632-1.927,4.311-.89,7.212C216.973,235.452,217.094,235.405,217.068,235.279Z" transform="translate(-193.68 -147.85)"/>
      <path id="Path_382" data-name="Path 382" class="cls-5" d="M211.232,234.5a16.157,16.157,0,0,1,.926-7.638c0-.042-.058-.068-.074-.026-1.169,2.848-1.727,4.559-1.011,7.654C211.105,234.627,211.247,234.638,211.232,234.5Z" transform="translate(-191.007 -147.251)"/>
      <path id="Path_383" data-name="Path 383" class="cls-5" d="M204.928,233.026a14.277,14.277,0,0,1,1.458-7.512.058.058,0,0,0-.1-.053,10.166,10.166,0,0,0-1.448,7.554C204.865,233.205,204.934,233.216,204.928,233.026Z" transform="translate(-188.115 -146.603)"/>
      <path id="Path_384" data-name="Path 384" class="cls-14" d="M223.487,137.047c-6.522,10.407-14.092,34.9-14.935,38.355-.574,2.353,11.771,5.654,11.923,4,.19-2.106,4.8-28.716,5.454-38.524C226.293,135.468,224.829,134.889,223.487,137.047Z" transform="translate(-189.955 -104.187)"/>
      <path id="Path_385" data-name="Path 385" class="cls-1" d="M225.376,142.994c-.205,8.912-4.806,34.123-4.806,34.123l-9.339-2.322-4.711-1.174s9.828-25.795,14.213-34.5c.342-.669.658-1.248.958-1.737C224.581,132.661,225.534,136.114,225.376,142.994Z" transform="translate(-189.002 -103.87)"/>
      <path id="Path_386" data-name="Path 386" class="cls-5" d="M221.97,206.8a124.973,124.973,0,0,0-12.818-3.232.042.042,0,0,0,0,.084c1.053.205,7.965,2.232,12.824,3.232C222.013,206.9,222.028,206.818,221.97,206.8Z" transform="translate(-190.228 -136.245)"/>
      <path id="Path_387" data-name="Path 387" class="cls-5" d="M229.615,142.994c-.205,8.912-4.806,34.123-4.806,34.123L215.47,174.8l10.481-37.408C228.82,132.661,229.773,136.114,229.615,142.994Z" transform="translate(-193.24 -103.87)"/>
      <path id="Path_388" data-name="Path 388" class="cls-14" d="M233.318,205.3l-3.137,47.136-1.732,26.011-2.758,41.487H203.38l.021-.258,1.764-21.331,1.721-20.883,5.959-72.162Z" transform="translate(-187.514 -137.064)"/>
      <path id="Path_389" data-name="Path 389" class="cls-14" d="M173.767,415.984c1.184.384,35.9-.137,37.176-.974a57.156,57.156,0,0,0,.132-7.533l1.69-25.547-21.968.063-1.732,22.11s-4.927,2.274-9,4.264h0a48.782,48.782,0,0,0-5.175,2.737C173.583,412.2,172.588,415.605,173.767,415.984Z" transform="translate(-173.242 -220.712)"/>
      <path id="Path_390" data-name="Path 390" class="cls-5" d="M173.767,438.967c1.184.384,35.9-.137,37.176-.974a57.163,57.163,0,0,0,.132-7.533c-8.575,1.911-31.443,5.006-32.112,3.211-.263-.721.279-1.537,1.095-2.29a48.772,48.772,0,0,0-5.175,2.737C173.583,435.182,172.588,438.588,173.767,438.967Z" transform="translate(-173.242 -243.695)"/>
      <path id="Path_391" data-name="Path 391" class="cls-14" d="M279.5,320.707h-.005l-22.452-.942h-.026l-4.485-41.108-2.864-26.221L244.52,205.3h20.72l9.186,74.362,2.337,18.946h.005l.911,7.386Z" transform="translate(-206.998 -137.064)"/>
      <path id="Path_392" data-name="Path 392" class="cls-14" d="M303.951,417.132c-1.19.363-35.891-.742-37.155-1.579a58.149,58.149,0,0,1,0-7.533l-2.606-25.6,21.889.089,2.78,22.531s4.89,2.353,8.923,4.411h0a49.728,49.728,0,0,1,5.127,2.822C304.2,413.347,305.151,416.774,303.951,417.132Z" transform="translate(-216.313 -220.944)"/>
      <path id="Path_393" data-name="Path 393" class="cls-5" d="M306.2,440.162c-1.19.363-35.891-.742-37.155-1.579a58.161,58.161,0,0,1,0-7.533c8.539,2.053,31.348,5.533,32.054,3.748.274-.711-.258-1.542-1.053-2.306a49.74,49.74,0,0,1,5.127,2.822C306.451,436.377,307.4,439.8,306.2,440.162Z" transform="translate(-218.566 -243.975)"/>
      <path id="Path_394" data-name="Path 394" class="cls-5" d="M258.1,279.662l-21.9-1.005-2.864-26.221L231.6,278.446l-21.562-.984L216,205.3h32.912Z" transform="translate(-190.669 -137.064)"/>
      <path id="Path_395" data-name="Path 395" class="cls-7" d="M214.076,205.3h34.37l8.707,70.746H206.78Z" transform="translate(-189.125 -137.064)"/>
      <path id="Path_396" data-name="Path 396" class="cls-8" d="M222.646,154.416l-2.506,17.2s28.042.416,35-.074c0,0-5.68-32.164-13.161-40.292-3.743-4.064-8.138-3.759-10.939-.916-.711.716-9.165,11.9-10.06,16.166C220.208,150.252,222.646,154.416,222.646,154.416Z" transform="translate(-195.452 -100.552)"/>
      <path id="Path_397" data-name="Path 397" class="cls-14" d="M250.71,129.719c.111-.242-4.859,8.217-7.47,7.9-2.011-.253-2.679-7.091-2.216-7.538C244.024,127.213,247.293,127.508,250.71,129.719Z" transform="translate(-205.275 -100.454)"/>
      <path id="Path_398" data-name="Path 398" class="cls-5" d="M254.394,84.135c-1.179-.958-1.553-4.627,0-6.412,2.137-2.458,7.223-.195,6.459,3.39S255.3,84.872,254.394,84.135Z" transform="translate(-211.186 -76.159)"/>
      <path id="Path_399" data-name="Path 399" class="cls-5" d="M258.613,76.9a6.454,6.454,0,0,0-3.048-.821,2.527,2.527,0,0,0-1.406.426,2.632,2.632,0,0,0-.9,1.153,5.852,5.852,0,0,0-.4,1.5,7.112,7.112,0,0,0-.068,1.579A5.364,5.364,0,0,0,253.9,83.67a4.68,4.68,0,0,1-1.521-2.89,6.445,6.445,0,0,1,0-1.685,6.164,6.164,0,0,1,.411-1.642,3.006,3.006,0,0,1,1.111-1.348,2.837,2.837,0,0,1,1.685-.421A5.39,5.39,0,0,1,258.613,76.9Z" transform="translate(-210.694 -75.678)"/>
      <path id="Path_400" data-name="Path 400" class="cls-14" d="M248.818,122.736c-.205.526-3.322,3.685-5.791,3.216-.805-.153-.153-4.6-.153-4.6l-.026-.337-.368-4.738,5.9-2.685.848-.347v5.317A30.347,30.347,0,0,1,248.818,122.736Z" transform="translate(-206.031 -93.471)"/>
      <path id="Path_401" data-name="Path 401" class="cls-5" d="M249.229,116.167a9.539,9.539,0,0,1-6.391,4.843l-.368-4.738,5.9-2.685.848-.347S249.229,114.546,249.229,116.167Z" transform="translate(-206.027 -93.467)"/>
      <path id="Path_402" data-name="Path 402" class="cls-14" d="M231.136,96.907c-.774,8.312,4.117,9.718,5.906,9.881,1.632.153,7.191.453,8.818-7.733s-1.99-11.176-5.691-11.713S231.91,88.594,231.136,96.907Z" transform="translate(-200.62 -81.16)"/>
      <path id="Path_403" data-name="Path 403" class="cls-5" d="M235.436,101.649a5.385,5.385,0,0,0,.569-.105.932.932,0,0,0,.558-.216.3.3,0,0,0,0-.363.737.737,0,0,0-.721-.189,1.079,1.079,0,0,0-.69.368.316.316,0,0,0,.284.505Z" transform="translate(-202.531 -87.551)"/>
      <path id="Path_404" data-name="Path 404" class="cls-5" d="M245.279,101.9a5.055,5.055,0,0,1-.558-.132.932.932,0,0,1-.526-.242.3.3,0,0,1,0-.363.748.748,0,0,1,.732-.153,1.053,1.053,0,0,1,.669.395.316.316,0,0,1-.316.495Z" transform="translate(-206.815 -87.655)"/>
      <path id="Path_405" data-name="Path 405" class="cls-5" d="M244.061,106.69a.043.043,0,0,1,.042.047c-.047.569,0,1.227.526,1.437v.032C244,108.09,243.929,107.216,244.061,106.69Z" transform="translate(-206.754 -90.365)"/>
      <path id="Path_406" data-name="Path 406" class="cls-5" d="M244.6,105.6c.916,0,.905,1.811.058,1.837S243.832,105.626,244.6,105.6Z" transform="translate(-206.762 -89.849)"/>
      <path id="Path_407" data-name="Path 407" class="cls-5" d="M245.705,105.757c.158.105.316.29.526.311s.395-.168.526-.347h.032c0,.347-.137.711-.526.758s-.59-.268-.674-.621C245.584,105.815,245.637,105.715,245.705,105.757Z" transform="translate(-207.504 -89.905)"/>
      <path id="Path_408" data-name="Path 408" class="cls-5" d="M237.2,106.46s-.042.026-.042.053c0,.569-.058,1.221-.574,1.411v.032C237.212,107.866,237.328,107,237.2,106.46Z" transform="translate(-203.237 -90.256)"/>
      <path id="Path_409" data-name="Path 409" class="cls-5" d="M236.129,105.328c-.916-.068-.99,1.769-.142,1.832S236.892,105.386,236.129,105.328Z" transform="translate(-202.676 -89.719)"/>
      <path id="Path_410" data-name="Path 410" class="cls-5" d="M235.183,105.416c-.147.095-.3.263-.474.268s-.342-.195-.463-.395h-.026c0,.353.079.721.411.8s.526-.221.642-.563C235.289,105.485,235.241,105.379,235.183,105.416Z" transform="translate(-202.12 -89.702)"/>
      <path id="Path_411" data-name="Path 411" class="cls-5" d="M242.53,115.253c-.132.142-.263.326-.469.353a1.479,1.479,0,0,1-.616-.121s-.037,0,0,.032a.758.758,0,0,0,.732.279.6.6,0,0,0,.426-.526.038.038,0,0,0-.074-.016Z" transform="translate(-205.534 -94.406)"/>
      <path id="Path_412" data-name="Path 412" class="cls-5" d="M238.2,106.314a12.385,12.385,0,0,0-.142,1.248c0,.037.095.058.232.068h0a1.9,1.9,0,0,0,1.864-.674c.026-.037,0-.079-.063-.058a2.816,2.816,0,0,1-1.748.463c0-.111.279-1.437.216-1.448a3.654,3.654,0,0,0-.911.19c.226-1.769.732-3.49.932-5.264a.053.053,0,0,0-.1-.026,28.9,28.9,0,0,0-1.253,5.622C237.209,106.688,238.04,106.383,238.2,106.314Z" transform="translate(-203.545 -87.567)"/>
      <path id="Path_413" data-name="Path 413" class="cls-5" d="M245.74,97.867c-.953-.079-3.38-2.764-3.353-7.37a33.615,33.615,0,0,0,.558,4.738c.295.59-1.353-1.511-1.384-5.233a14.982,14.982,0,0,1-3.859,1.9c-1.769.453-2.843.411-2.964.279s2.479-.884,3.2-1.674c0,0-4.738,2.069-6.88,2.179-.247,0-.432-5.117,2.948-7.212s8.6.368,10,1.769c0,0,1.658.279,3.411,2.78S246.761,97.952,245.74,97.867Z" transform="translate(-200.563 -79.931)"/>
      <path id="Path_414" data-name="Path 414" class="cls-5" d="M243.131,86.652a20.119,20.119,0,0,0-1.937-1.1,15.176,15.176,0,0,0-2.016-.869,9.907,9.907,0,0,0-2.106-.526,3.025,3.025,0,0,0-.526-.047h-.526a4.941,4.941,0,0,0-1.053.163,4.79,4.79,0,0,0-.979.368,7.683,7.683,0,0,0-.884.6,6.022,6.022,0,0,0-.779.732,7.957,7.957,0,0,0-.632.869,7.3,7.3,0,0,0-.842,2,8.761,8.761,0,0,0-.311,2.19,7.481,7.481,0,0,1,.8-4.39,5.648,5.648,0,0,1,1.427-1.779,6.317,6.317,0,0,1,.953-.663,5.15,5.15,0,0,1,1.095-.432,5.712,5.712,0,0,1,2.311-.095,8.918,8.918,0,0,1,2.19.621A14.334,14.334,0,0,1,243.131,86.652Z" transform="translate(-200.35 -79.428)"/>
      <path id="Path_415" data-name="Path 415" class="cls-14" d="M256.129,108.811s1.837-2.6,3.016-1.937-.216,4.427-1.606,4.933a1.411,1.411,0,0,1-1.89-.769Z" transform="translate(-212.268 -90.401)"/>
      <path id="Path_416" data-name="Path 416" class="cls-5" d="M259.4,109v.037a3.586,3.586,0,0,0-1.864,2.222.779.779,0,0,1,1.169-.205c.026,0,0,.058-.026.053a.869.869,0,0,0-.958.295,4.567,4.567,0,0,0-.463.774c-.042.084-.2.037-.168-.063h0C257.091,110.848,258.092,109.116,259.4,109Z" transform="translate(-212.947 -91.459)"/>
      <path id="Path_417" data-name="Path 417" class="cls-1" d="M254.374,129.42s-3.269,89.681-1.532,93.94,25.884,7.523,25.884,7.523-5.738-63.229-12.676-82.732C259.617,130.11,254.374,129.42,254.374,129.42Z" transform="translate(-210.698 -101.129)"/>
      <path id="Path_418" data-name="Path 418" class="cls-5" d="M275.479,236.89a60.959,60.959,0,0,1-7.133.553c-3.338,0-6.649-.321-7.607-.337-.084,0-.132.284-.068.29a75.044,75.044,0,0,0,7.617.526,40,40,0,0,0,6.949-.658v1.964a42.052,42.052,0,0,1-14.213.3c0-.3,0-1.869-.042-2.3,0-.068-.284-.079-.295,0-.058.426-.232,4.211-.237,4.975,0,1.9.111,7.249.584,8.286,1.053,2.348,5.638,2.353,6.9,2.364s5.343.137,6.875-1.358c.816-.795.99-5.138.869-8.949C275.564,240.722,275.564,236.948,275.479,236.89ZM268.273,252.4c-3.085-.068-5.791-.842-6.422-1.685-.726-.984-.79-2.7-.842-4.585-.042-1.485,0-6.138,0-6.233a37.635,37.635,0,0,0,14.213-.19v6.175c0,1.579-.1,4.275-.911,5.206-.684.779-3.143,1.379-6.064,1.311Z" transform="translate(-214.542 -152.025)"/>
      <path id="Path_419" data-name="Path 419" class="cls-1" d="M213.45,225.172c-1.448,3.416-10.07,5.733-10.07,5.733l10.855-74.841a11.181,11.181,0,0,1-1.521-7.523c.732-4.211,9.686-16.551,10.786-17.051a155.876,155.876,0,0,0-2.9,19.135C218.183,176.925,215.024,221.455,213.45,225.172Z" transform="translate(-187.514 -102.109)"/>
      <path id="Path_420" data-name="Path 420" class="cls-12" d="M237.73,131.28c-.616,1.105-1.242,2.206-1.885,3.29s-1.279,2.179-1.937,3.253l-.037-.29c.616.569,1.221,1.142,1.827,1.721l.189.179-.179.19-2.106,2.206.068-.205q.3,2.448.526,4.9c.163,1.637.311,3.274.421,4.917-.295-1.621-.526-3.243-.784-4.869s-.474-3.253-.684-4.88v-.121l.079-.089,2.106-2.211v.363c-.6-.579-1.2-1.169-1.79-1.758l-.137-.137.1-.153c.679-1.053,1.384-2.106,2.079-3.159S237,132.317,237.73,131.28Z" transform="translate(-201.613 -102.01)"/>
      <rect id="Rectangle_36" data-name="Rectangle 36" class="cls-5" width="27.627" height="21.225" transform="matrix(0.032, -0.999, 0.999, 0.032, 24.847, 71.43)"/>
      <rect id="Rectangle_37" data-name="Rectangle 37" class="cls-3" width="10.06" height="3.048" transform="matrix(0.999, 0.033, -0.033, 0.999, 31.441, 42.554)"/>
      <path id="Path_421" data-name="Path 421" class="cls-3" d="M242.785,154.553l-1.237-.042.042-1.406-3.006-.095-.047,1.4-1.237-.037.084-2.564,5.5.184Z" transform="translate(-203.578 -111.733)"/>
      <path id="Path_422" data-name="Path 422" class="cls-14" d="M258.873,135.616c10.639,11.213,19.383,34.528,14.266,36.718-4.68,2-19.509.153-25.605-1.3-1.79-.426,1.816-14.3,3.732-13.85,2.316.553,8.233,1.406,8.47,1.384.526-.032-5.18-16.319-6.917-22.294C250.4,127.978,254.872,131.4,258.873,135.616Z" transform="translate(-208.196 -101.972)"/>
      <path id="Path_423" data-name="Path 423" class="cls-14" d="M218.544,172.936a2.2,2.2,0,0,0,.179,2.5,3.269,3.269,0,0,0-1.579,1.579c-.526,1.242,1.221,2.579,1.221,2.579a4.006,4.006,0,0,0-1.384,1.921c-.363,1.237,1.184,2.832,1.184,2.832a3.538,3.538,0,0,0-.153,2.453c.742,2.132,4.106,2.9,6.243,3.406s8.66-.047,9.918-.032l3.38-13.687s-8.949-5-11.518-5.264C223.882,171.051,219.481,171.493,218.544,172.936Z" transform="translate(-193.929 -120.908)"/>
      <path id="Path_424" data-name="Path 424" class="cls-5" d="M220.608,178.757a28.515,28.515,0,0,1,7.086.284.042.042,0,0,1,0,.079c-2.348-.268-4.738-.074-7.075-.247A.059.059,0,0,1,220.608,178.757Z" transform="translate(-195.652 -124.43)"/>
      <path id="Path_425" data-name="Path 425" class="cls-5" d="M219.828,186.8a6.317,6.317,0,0,1,1.632.142c.574.089,1.142.184,1.711.295,1.142.216,2.279.453,3.406.726.053,0,.042.095,0,.084-1.137-.211-2.274-.405-3.422-.574l-1.721-.232a7.279,7.279,0,0,1-1.611-.284.084.084,0,0,1,.005-.158Z" transform="translate(-195.277 -128.303)"/>
      <path id="Path_426" data-name="Path 426" class="cls-5" d="M219.422,196.178a4.306,4.306,0,0,1,1.458.2l1.579.321c1.053.205,2.074.411,3.116.579a.042.042,0,1,1,0,.084c-1.053-.168-2.106-.321-3.185-.526q-.79-.126-1.579-.268a4.17,4.17,0,0,1-1.39-.363S219.4,196.178,219.422,196.178Z" transform="translate(-195.107 -132.743)"/>
      <path id="Path_427" data-name="Path 427" class="cls-1" d="M262.163,157.452c.732-.621-5.264-15.966-6.843-22.636s.284-6.412,5.791-.953,14.634,19.188,16.609,32.264c.621,4.085,1.453,7-8,6.843a108.684,108.684,0,0,1-16.393-1.432l2.064-14.94S261.953,157.637,262.163,157.452Z" transform="translate(-211.17 -101.303)"/>
      <path id="Path_428" data-name="Path 428" class="cls-5" d="M259.594,196.791a129.267,129.267,0,0,0,1.727-13.408.042.042,0,0,0-.084,0c-.084,1.095-1.306,8.354-1.737,13.413C259.495,196.849,259.579,196.849,259.594,196.791Z" transform="translate(-214.091 -126.665)"/>
      <path id="Path_429" data-name="Path 429" class="cls-5" d="M271.188,171.995a12.057,12.057,0,0,0-1.785-.368l-1.663-.305-.721-.121h.068l.969-.137c.321-.047.637-.121.963-.147.053,0,.047-.084,0-.079-.316.042-.642.037-.963.058l-1.005.074a8.289,8.289,0,0,0-.879.089c-.526-.089-1.053-.174-1.611-.247-.232-1.053-.605-2.106-.932-3.159s-.69-2.164-1.053-3.237-.748-2.106-1.153-3.159c-.2-.526-.411-1.053-.616-1.579a12.138,12.138,0,0,1-.616-1.627c0-.053-.1,0-.074.037a11.22,11.22,0,0,1,.579,1.69c.163.526.321,1.053.484,1.579q.49,1.579.99,3.185c.337,1.053.674,2.106,1.005,3.185.305.974.563,1.974.911,2.932-1.1-.147-2.206-.274-3.306-.411l-1.69-.2c-.605-.068-1.237-.068-1.832-.174-.053,0-.068.074,0,.079.59.068,1.19.253,1.785.358l1.663.29c1.179.2,2.353.411,3.532.595s2.332.311,3.5.442c.584.068,1.169.126,1.753.2a11.716,11.716,0,0,0,1.711.142A.026.026,0,0,0,271.188,171.995Z" transform="translate(-213.009 -114.677)"/>
      <path id="Path_430" data-name="Path 430" class="cls-5" d="M272.016,210.562c-5.09-.179-14.255-.874-18.5-1.442-.058,0-.068.074,0,.084a73.063,73.063,0,0,0,18.509,1.553.1.1,0,0,0-.011-.195Z" transform="translate(-211.236 -138.873)"/>
      <path id="Path_431" data-name="Path 431" class="cls-12" d="M260.452,140.12l.174.126-.089.184c-.727,1.527-1.432,3.053-2.19,4.564l-.363.726h-.353l.379-.874c.637-1.49,1.321-2.948,1.979-4.422-.79-.526-1.579-1.1-2.364-1.658l-.263-.19.242-.211,2.543-2.211c-.647-1.005-1.263-2.058-1.89-3.111s-1.306-2.179-1.937-3.285c.748,1.053,1.474,2.074,2.19,3.127s1.437,2.106,2.106,3.159l.105.163-.147.132-2.411,2.158C258.947,139.046,259.7,139.588,260.452,140.12Z" transform="translate(-212.586 -101.29)"/>
    </g>
    <g id="freepik--speech-bubble--inject-54" transform="translate(132.79 11.745)">
      <path id="Path_432" data-name="Path 432" class="cls-4" d="M293.767,71.583a10.139,10.139,0,0,1-16.187,8.144L272.61,81l2.069-4.627a10.144,10.144,0,1,1,19.088-4.785Z" transform="translate(-272.205 -61.341)"/>
      <path id="Path_433" data-name="Path 433" class="cls-5" d="M293.4,71.5a10.212,10.212,0,0,1-1.474,5.327,11,11,0,0,1-.826,1.142,11.766,11.766,0,0,1-.969,1.053,10.214,10.214,0,0,1-2.29,1.579,10.091,10.091,0,0,1-2.632.942,10.394,10.394,0,0,1-1.4.179,9.087,9.087,0,0,1-1.416,0,10.3,10.3,0,0,1-5.264-1.932l.158.032L272.3,81.124l-.463.121.195-.442,2.048-4.638v.226a10.281,10.281,0,0,1-.321-9.107,10.461,10.461,0,0,1,2.827-3.685,10.27,10.27,0,0,1,16.8,7.9Zm0,0a10,10,0,0,0-16.551-7.586,10.5,10.5,0,0,0-2.632,3.6,10,10,0,0,0-.826,4.38,10.275,10.275,0,0,0,1.163,4.275l.063.111-.063.116L272.451,81l-.268-.321,5.006-1.227h.09l.068.053a9.923,9.923,0,0,0,5.069,1.99,8.1,8.1,0,0,0,1.385,0,9.282,9.282,0,0,0,1.374-.142,9.724,9.724,0,0,0,2.632-.869,9.2,9.2,0,0,0,2.3-1.579,10.287,10.287,0,0,0,.974-1,11.36,11.36,0,0,0,.811-1.132A10.2,10.2,0,0,0,293.4,71.5Z" transform="translate(-271.84 -61.254)"/>
      <rect id="Rectangle_38" data-name="Rectangle 38" class="cls-8" width="2.522" height="9.807" transform="translate(10.028 5.341)"/>
      <rect id="Rectangle_39" data-name="Rectangle 39" class="cls-8" width="2.522" height="9.807" transform="translate(6.391 11.505) rotate(-90)"/>
    </g>
  </g>
</svg>
