<?xml version="1.0" standalone="no"?>
<!DOCTYPE svg PUBLIC "-//W3C//DTD SVG 20010904//EN"
 "http://www.w3.org/TR/2001/REC-SVG-20010904/DTD/svg10.dtd">
<svg version="1.0" xmlns="http://www.w3.org/2000/svg"
 width="99.000000pt" height="37.000000pt" viewBox="0 0 99.000000 37.000000"
 preserveAspectRatio="xMidYMid meet">

<g transform="translate(0.000000,37.000000) scale(0.100000,-0.100000)"
fill="#000000" stroke="none">
<path d="M200 259 c-13 -9 -12 -10 3 -5 9 3 17 1 17 -4 0 -5 -8 -11 -17 -13
-12 -3 -10 -4 3 -2 30 3 48 -29 32 -58 -12 -21 -13 -25 -17 -44 -1 -5 -6 -1
-11 7 -8 12 -10 10 -10 -8 0 -13 4 -21 9 -18 5 4 11 1 13 -5 2 -7 10 -4 18 7
12 14 12 16 1 10 -9 -6 -12 -5 -9 5 3 8 11 13 18 11 8 -2 10 3 7 13 -4 8 -2
15 4 15 15 0 -1 53 -25 77 -16 17 -25 20 -36 12z"/>
<path d="M82 237 c-34 -41 -15 -123 35 -146 24 -11 25 -11 13 4 -12 14 -11 18
1 26 8 5 10 9 4 9 -7 0 -7 3 0 8 6 4 17 16 25 27 14 19 14 19 -5 4 -36 -29
-43 -30 -38 -9 3 12 19 28 35 36 17 9 28 18 25 20 -2 3 -18 -3 -35 -13 -25
-14 -33 -15 -46 -4 -12 10 -13 18 -5 32 11 22 7 25 -9 6z"/>
<path d="M316 235 c-3 -9 3 -20 14 -27 26 -17 25 -26 -2 -31 -17 -3 -14 -5 10
-6 25 -1 32 3 32 18 0 11 -9 23 -20 26 -11 4 -18 11 -14 16 3 6 12 8 20 5 8
-3 14 -1 14 4 0 16 -47 11 -54 -5z"/>
<path d="M395 214 c-8 -20 -15 -37 -15 -38 0 -1 16 -2 35 -2 26 0 34 4 30 14
-3 8 -8 25 -11 38 -9 34 -21 30 -39 -12z"/>
<path d="M450 245 c0 -15 30 -75 37 -75 11 0 37 69 30 77 -3 2 -12 -8 -20 -23
l-14 -27 -7 27 c-3 14 -11 26 -16 26 -6 0 -10 -2 -10 -5z"/>
<path d="M534 215 c-7 -19 -14 -36 -14 -38 0 -2 16 -3 35 -3 19 0 35 1 35 3 0
11 -30 73 -35 73 -3 0 -13 -16 -21 -35z"/>
<path d="M600 210 c0 -41 20 -58 21 -17 l0 22 16 -22 c23 -34 33 -28 32 20 -1
37 -2 39 -8 12 l-6 -29 -18 27 c-25 38 -37 34 -37 -13z"/>
<path d="M691 209 c2 -30 3 -35 6 -16 l4 28 20 -26 c29 -35 39 -31 39 15 0 22
-4 40 -10 40 -5 0 -10 -10 -10 -22 l0 -21 -25 23 -25 23 1 -44z"/>
<path d="M784 215 c-7 -19 -14 -36 -14 -38 0 -2 16 -3 35 -3 19 0 35 1 35 2 0
8 -32 74 -36 74 -3 0 -12 -16 -20 -35z"/>
<path d="M850 210 c0 -22 5 -40 10 -40 6 0 10 7 10 15 0 8 7 15 15 15 8 0 15
-7 15 -15 0 -8 5 -15 10 -15 6 0 10 18 10 40 0 22 -4 40 -10 40 -5 0 -10 -7
-10 -15 0 -8 -7 -15 -15 -15 -8 0 -15 7 -15 15 0 8 -4 15 -10 15 -5 0 -10 -18
-10 -40z"/>
<path d="M95 221 c-7 -12 12 -24 25 -16 11 7 4 25 -10 25 -5 0 -11 -4 -15 -9z"/>
<path d="M612 130 c0 -14 2 -19 5 -12 2 6 2 18 0 25 -3 6 -5 1 -5 -13z"/>
<path d="M412 120 c0 -14 2 -19 5 -12 2 6 2 18 0 25 -3 6 -5 1 -5 -13z"/>
<path d="M511 124 c0 -11 3 -14 6 -6 3 7 2 16 -1 19 -3 4 -6 -2 -5 -13z"/>
<path d="M632 120 c0 -14 2 -19 5 -12 2 6 2 18 0 25 -3 6 -5 1 -5 -13z"/>
<path d="M651 124 c0 -11 3 -14 6 -6 3 7 2 16 -1 19 -3 4 -6 -2 -5 -13z"/>
<path d="M550 121 c0 -6 4 -13 10 -16 6 -3 7 1 4 9 -7 18 -14 21 -14 7z"/>
<path d="M671 114 c0 -11 3 -14 6 -6 3 7 2 16 -1 19 -3 4 -6 -2 -5 -13z"/>
<path d="M811 114 c0 -11 3 -14 6 -6 3 7 2 16 -1 19 -3 4 -6 -2 -5 -13z"/>
<path d="M851 114 c0 -11 3 -14 6 -6 3 7 2 16 -1 19 -3 4 -6 -2 -5 -13z"/>
<path d="M880 121 c0 -6 4 -13 10 -16 6 -3 7 1 4 9 -7 18 -14 21 -14 7z"/>
</g>
</svg>
