<?xml version="1.0" encoding="UTF-8" standalone="no"?>
<svg width="294px" height="68px" viewBox="0 0 294 68" version="1.1" xmlns="http://www.w3.org/2000/svg" xmlns:xlink="http://www.w3.org/1999/xlink">
    <!-- Generator: Sketch 41.2 (35397) - http://www.bohemiancoding.com/sketch -->
    <title>XMLID_2554_</title>
    <desc>Created with Sketch.</desc>
    <defs></defs>
    <g id="Styles" stroke="none" stroke-width="1" fill="none" fill-rule="evenodd">
        <g id="SDG_Logo">
            <g id="XMLID_2554_">
                <g id="XMLID_2555_">
                    <g id="XMLID_2556_" transform="translate(14.000000, 0.000000)" fill="#F6921E">
                        <g id="XMLID_2557_">
                            <path d="M25.7,49.9 C11.9,49.9 0.7,38.7 0.7,25 C0.7,18.3 3.3,12.1 8,7.4 C12.8,2.6 19.1,0 25.7,0 C32.4,0 38.7,2.6 43.4,7.3 C48.1,12 50.7,18.3 50.7,24.9 C50.7,31.6 48.1,37.8 43.4,42.5 C38.7,47.3 32.4,49.9 25.7,49.9 Z M25.7,3.7 C14,3.7 4.4,13.2 4.4,24.9 C4.4,36.6 13.9,46.1 25.7,46.1 C37.4,46.1 47,36.6 47,24.9 C47,13.2 37.5,3.7 25.7,3.7 Z" id="XMLID_2558_"></path>
                        </g>
                    </g>
                    <g id="XMLID_2561_" transform="translate(0.000000, 24.000000)" fill="#BA2E25">
                        <g id="XMLID_2562_">
                            <path d="M39.7,40.6 C34.3,40.6 29.1,39.5 24.2,37.5 C19.5,35.5 15.2,32.7 11.6,29 C8,25.3 5.1,21.1 3.1,16.4 C1.1,11.5 0,6.3 0,0.9 L3.7,0.9 C3.7,20.7 19.9,36.8 39.7,36.8 C59.6,36.8 75.7,20.7 75.7,0.9 L79.4,0.9 C79.4,6.2 78.4,11.4 76.3,16.3 C74.3,21 71.4,25.3 67.8,28.9 C64.1,32.5 59.9,35.4 55.2,37.4 C50.3,39.5 45.1,40.6 39.7,40.6 Z" id="XMLID_2563_"></path>
                        </g>
                    </g>
                </g>
                <g id="XMLID_2584_" transform="translate(88.000000, 50.000000)" fill="#BA2E25">
                    <g id="XMLID_2595_">
                        <path d="M5.6,9.7 L2.2,9.7 L2.2,14.7 L0.6,14.7 L0.6,0.6 L5.9,0.6 C9.1,0.6 11.2,2.3 11.2,5.1 C11.2,8.2 8.7,9.7 5.6,9.7 Z M5.8,2.1 L2.2,2.1 L2.2,8.3 L5.7,8.3 C8,8.3 9.6,7.1 9.6,5.2 C9.6,3.1 8.1,2.1 5.8,2.1 Z" id="XMLID_2596_"></path>
                    </g>
                    <g id="XMLID_2599_" transform="translate(13.000000, 0.000000)">
                        <path d="M1.9,14.7 L0.3,14.7 L0.3,0 L1.9,0 L1.9,6.1 C2.6,5 3.7,4.1 5.5,4.1 C8,4.1 9.5,5.8 9.5,8.3 L9.5,14.8 L7.9,14.8 L7.9,8.7 C7.9,6.8 6.8,5.6 5,5.6 C3.2,5.6 1.9,6.9 1.9,8.9 L1.9,14.7 Z" id="XMLID_2600_"></path>
                    </g>
                    <g id="XMLID_2602_" transform="translate(25.000000, 0.000000)">
                        <path d="M0.3,2 L0.3,0.3 L2.1,0.3 L2.1,2 L0.3,2 Z M0.4,14.7 L0.4,4.3 L2,4.3 L2,14.7 L0.4,14.7 Z" id="XMLID_2603_"></path>
                    </g>
                    <g id="XMLID_2606_" transform="translate(30.000000, 0.000000)">
                        <polygon id="XMLID_2607_" points="0.2 14.7 0.2 0 1.8 0 1.8 14.7"></polygon>
                    </g>
                    <g id="XMLID_2609_" transform="translate(36.000000, 4.000000)">
                        <path d="M1.5,2.3 L1,1 C2.2,0.5 3.3,0.1 4.8,0.1 C7.6,0.1 9.2,1.5 9.2,4.3 L9.2,10.7 L7.7,10.7 L7.7,9.1 C7,10 5.8,10.9 3.9,10.9 C2,10.9 0,9.8 0,7.6 C0,5.4 1.8,4.2 4.5,4.2 C5.8,4.2 6.8,4.4 7.7,4.6 L7.7,4.2 C7.7,2.3 6.5,1.4 4.6,1.4 C3.4,1.5 2.5,1.9 1.5,2.3 Z M1.7,7.6 C1.7,8.9 2.9,9.7 4.3,9.7 C6.2,9.7 7.8,8.5 7.8,6.9 L7.8,5.9 C7,5.7 6,5.5 4.7,5.5 C2.8,5.4 1.7,6.3 1.7,7.6 Z" id="XMLID_2610_"></path>
                    </g>
                    <g id="XMLID_2613_" transform="translate(46.000000, 4.000000)">
                        <path d="M1.6,10.7 L0,10.7 L0,0.3 L1.6,0.3 L1.6,2.1 C2.3,1 3.4,0.1 5.2,0.1 C7.7,0.1 9.2,1.8 9.2,4.3 L9.2,10.8 L7.6,10.8 L7.6,4.7 C7.6,2.8 6.5,1.6 4.7,1.6 C2.9,1.6 1.6,2.9 1.6,4.9 L1.6,10.7 Z" id="XMLID_2614_"></path>
                    </g>
                    <g id="XMLID_2616_" transform="translate(57.000000, 1.000000)">
                        <path d="M3.1,10.8 C3.1,12.1 3.8,12.5 4.9,12.5 C5.4,12.5 5.9,12.4 6.4,12.1 L6.4,13.4 C5.9,13.7 5.3,13.8 4.5,13.8 C2.8,13.8 1.6,13 1.6,10.9 L1.6,4.6 L0.1,4.6 L0.1,3.2 L1.6,3.2 L1.6,0.1 L3.2,0.1 L3.2,3.2 L6.5,3.2 L6.5,4.6 L3.2,4.6 L3.2,10.8 L3.1,10.8 Z" id="XMLID_2617_"></path>
                    </g>
                    <g id="XMLID_2619_" transform="translate(65.000000, 0.000000)">
                        <path d="M2.2,14.7 L0.6,14.7 L0.6,0 L2.2,0 L2.2,6.1 C2.9,5 4,4.1 5.8,4.1 C8.3,4.1 9.8,5.8 9.8,8.3 L9.8,14.8 L8.2,14.8 L8.2,8.7 C8.2,6.8 7.1,5.6 5.3,5.6 C3.5,5.6 2.2,6.9 2.2,8.9 L2.2,14.7 Z" id="XMLID_2620_"></path>
                    </g>
                    <g id="XMLID_2622_" transform="translate(77.000000, 4.000000)">
                        <path d="M2.1,10.7 L0.5,10.7 L0.5,0.3 L2.1,0.3 L2.1,3 C2.9,1.3 4.4,1.02140518e-14 6.4,0.1 L6.4,1.8 L6.3,1.8 C4,1.8 2.2,3.4 2.2,6.6 L2.2,10.7 L2.1,10.7 Z" id="XMLID_2623_"></path>
                    </g>
                    <g id="XMLID_2625_" transform="translate(84.000000, 4.000000)">
                        <path d="M5.6,11 C2.5,11 0.2,8.5 0.2,5.6 C0.2,2.6 2.5,0.1 5.7,0.1 C8.8,0.1 11.1,2.6 11.1,5.5 C11.1,8.5 8.7,11 5.6,11 Z M5.6,1.5 C3.3,1.5 1.8,3.3 1.8,5.5 C1.8,7.7 3.5,9.6 5.7,9.6 C8,9.6 9.5,7.8 9.5,5.6 C9.5,3.3 7.8,1.5 5.6,1.5 Z" id="XMLID_2626_"></path>
                    </g>
                    <g id="XMLID_2629_" transform="translate(97.000000, 4.000000)">
                        <path d="M5.9,10.9 C4,10.9 2.7,9.9 1.9,8.7 L1.9,13.9 L0.3,13.9 L0.3,0.3 L1.9,0.3 L1.9,2.4 C2.7,1.2 4,0.1 5.9,0.1 C8.4,0.1 10.9,2.1 10.9,5.5 C10.9,8.9 8.4,10.9 5.9,10.9 Z M5.6,1.5 C3.7,1.5 1.8,3.1 1.8,5.5 C1.8,7.9 3.6,9.5 5.6,9.5 C7.6,9.5 9.3,8 9.3,5.5 C9.3,3 7.6,1.5 5.6,1.5 Z" id="XMLID_2630_"></path>
                    </g>
                    <g id="XMLID_2633_" transform="translate(108.000000, 4.000000)">
                        <path d="M6.8,11.1 C5.9,13.3 4.9,14 3.3,14 C2.4,14 1.8,13.8 1.1,13.5 L1.6,12.3 C2.1,12.6 2.6,12.7 3.2,12.7 C4.1,12.7 4.7,12.2 5.3,10.7 L0.6,0.3 L2.3,0.3 L6.1,9 L9.5,0.3 L11.2,0.3 L6.8,11.1 Z" id="XMLID_2634_"></path>
                    </g>
                    <g id="XMLID_2636_" transform="translate(127.000000, 0.000000)">
                        <path d="M5,9.7 L1.6,9.7 L1.6,14.7 L0,14.7 L0,0.6 L5.3,0.6 C8.5,0.6 10.6,2.3 10.6,5.1 C10.6,8.2 8,9.7 5,9.7 Z M5.2,2.1 L1.6,2.1 L1.6,8.3 L5.1,8.3 C7.4,8.3 9,7.1 9,5.2 C9,3.1 7.4,2.1 5.2,2.1 Z" id="XMLID_2637_"></path>
                    </g>
                    <g id="XMLID_2640_" transform="translate(139.000000, 0.000000)">
                        <polygon id="XMLID_2641_" points="0.9 14.7 0.9 0 2.5 0 2.5 14.7"></polygon>
                    </g>
                    <g id="XMLID_2643_" transform="translate(143.000000, 4.000000)">
                        <path d="M2.1,2.3 L1.6,1 C2.8,0.5 3.9,0.1 5.4,0.1 C8.2,0.1 9.8,1.5 9.8,4.3 L9.8,10.7 L8.3,10.7 L8.3,9.1 C7.6,10 6.4,10.9 4.5,10.9 C2.6,10.9 0.6,9.8 0.6,7.6 C0.6,5.4 2.4,4.2 5.1,4.2 C6.4,4.2 7.4,4.4 8.3,4.6 L8.3,4.2 C8.3,2.3 7.1,1.4 5.2,1.4 C4.1,1.5 3.1,1.9 2.1,2.3 Z M2.3,7.6 C2.3,8.9 3.5,9.7 4.9,9.7 C6.8,9.7 8.4,8.5 8.4,6.9 L8.4,5.9 C7.6,5.7 6.6,5.5 5.3,5.5 C3.4,5.4 2.3,6.3 2.3,7.6 Z" id="XMLID_2644_"></path>
                    </g>
                    <g id="XMLID_2647_" transform="translate(154.000000, 1.000000)">
                        <path d="M3.7,10.8 C3.7,12.1 4.4,12.5 5.5,12.5 C6,12.5 6.5,12.4 7,12.1 L7,13.4 C6.5,13.7 5.9,13.8 5.1,13.8 C3.4,13.8 2.2,13 2.2,10.9 L2.2,4.6 L0.7,4.6 L0.7,3.2 L2.2,3.2 L2.2,0.1 L3.8,0.1 L3.8,3.2 L7.1,3.2 L7.1,4.6 L3.8,4.6 L3.8,10.8 L3.7,10.8 Z" id="XMLID_2648_"></path>
                    </g>
                    <g id="XMLID_2650_" transform="translate(162.000000, 0.000000)">
                        <path d="M6.7,4.4 L6.7,5.7 L3.4,5.7 L3.4,14.7 L1.8,14.7 L1.8,5.7 L0.4,5.7 L0.4,4.4 L1.8,4.4 L1.8,3.5 C1.8,1.2 3,-7.10542736e-15 5,-7.10542736e-15 C5.7,-7.10542736e-15 6.2,0.1 6.7,0.3 L6.7,1.6 C6.1,1.4 5.7,1.3 5.2,1.3 C4,1.3 3.4,2 3.4,3.5 L3.4,4.3 L6.7,4.3 L6.7,4.4 Z" id="XMLID_2651_"></path>
                    </g>
                    <g id="XMLID_2653_" transform="translate(169.000000, 4.000000)">
                        <path d="M5.7,11 C2.6,11 0.3,8.5 0.3,5.6 C0.3,2.6 2.6,0.1 5.8,0.1 C8.9,0.1 11.2,2.6 11.2,5.5 C11.2,8.5 8.9,11 5.7,11 Z M5.7,1.5 C3.4,1.5 1.9,3.3 1.9,5.5 C1.9,7.7 3.6,9.6 5.8,9.6 C8.1,9.6 9.6,7.8 9.6,5.6 C9.6,3.3 7.9,1.5 5.7,1.5 Z" id="XMLID_2654_"></path>
                    </g>
                    <g id="XMLID_2657_" transform="translate(182.000000, 4.000000)">
                        <path d="M2,10.7 L0.4,10.7 L0.4,0.3 L2,0.3 L2,3 C2.8,1.3 4.3,1.02140518e-14 6.3,0.1 L6.3,1.8 L6.2,1.8 C3.9,1.8 2.1,3.4 2.1,6.6 L2.1,10.7 L2,10.7 Z" id="XMLID_2658_"></path>
                    </g>
                    <g id="XMLID_2660_" transform="translate(190.000000, 4.000000)">
                        <path d="M12.1,0.1 C14.5,0.1 16,1.7 16,4.3 L16,10.7 L14.4,10.7 L14.4,4.6 C14.4,2.6 13.4,1.5 11.7,1.5 C10.1,1.5 8.8,2.7 8.8,4.7 L8.8,10.7 L7.3,10.7 L7.3,4.6 C7.3,2.6 6.3,1.5 4.6,1.5 C2.9,1.5 1.7,2.9 1.7,4.8 L1.7,10.7 L0.1,10.7 L0.1,0.3 L1.7,0.3 L1.7,2.1 C2.4,1.1 3.3,0.1 5.1,0.1 C6.8,0.1 7.9,1 8.5,2.2 C9.2,1 10.3,0.1 12.1,0.1 Z" id="XMLID_2661_"></path>
                    </g>
                </g>
                <g id="XMLID_2663_" transform="translate(88.000000, 9.000000)" fill="#F05A28">
                    <g id="XMLID_2664_">
                        <path d="M15.4,35.7 C10.2,35.7 4.9,33.9 0.7,30.2 L5.2,24.8 C8.3,27.4 11.6,29 15.5,29 C18.6,29 20.5,27.8 20.5,25.8 L20.5,25.7 C20.5,23.8 19.3,22.8 13.5,21.3 C6.5,19.5 2,17.6 2,10.8 L2,10.7 C2,4.5 7,0.3 14.1,0.3 C19.1,0.3 23.4,1.9 26.9,4.7 L23,10.4 C19.9,8.3 16.9,7 14,7 C11.1,7 9.6,8.3 9.6,10 L9.6,10.1 C9.6,12.4 11.1,13.1 17.1,14.6 C24.1,16.4 28.1,18.9 28.1,24.9 L28.1,25 C28.1,31.9 22.9,35.7 15.4,35.7 Z" id="XMLID_2665_"></path>
                    </g>
                    <g id="XMLID_2667_" transform="translate(32.000000, 0.000000)">
                        <path d="M13.7,35.2 L0.2,35.2 L0.2,0.8 L13.7,0.8 C24.6,0.8 32.1,8.2 32.1,17.9 L32.1,18 C32.1,27.7 24.6,35.2 13.7,35.2 Z M24.1,18 C24.1,11.9 19.9,7.6 13.7,7.6 L7.8,7.6 L7.8,28.4 L13.7,28.4 C20,28.4 24.1,24.2 24.1,18 L24.1,18 Z" id="XMLID_2668_"></path>
                    </g>
                    <g id="XMLID_2671_" transform="translate(66.000000, 0.000000)">
                        <path d="M19,35.8 C8.2,35.8 0.8,28.3 0.8,18.1 L0.8,18 C0.8,8.2 8.5,0.2 18.9,0.2 C25.1,0.2 28.9,1.9 32.5,4.9 L27.7,10.7 C25,8.5 22.7,7.2 18.7,7.2 C13.2,7.2 8.8,12.1 8.8,17.9 L8.8,18 C8.8,24.3 13.1,28.9 19.3,28.9 C22.1,28.9 24.5,28.2 26.5,26.8 L26.5,22 L18.8,22 L18.8,15.5 L33.8,15.5 L33.8,30.5 C30.2,33.4 25.3,35.8 19,35.8 Z" id="XMLID_2672_"></path>
                    </g>
                </g>
                <g id="XMLID_2674_" transform="translate(7.000000, 2.000000)" fill="#F05A28">
                    <path d="M55.9,0.3 L53.4,3.1 C58.6,8.4 61.4,15.5 61.4,22.9 C61.4,38.6 48.6,51.4 32.8,51.4 C17,51.4 4.2,38.6 4.2,22.9 C4.2,15.4 7.1,8.4 12.3,3 L9.8,0.2 C3.8,6.3 0.5,14.3 0.5,22.9 C0.5,31.5 3.9,39.6 10,45.7 C16.1,51.8 24.2,55.2 32.9,55.2 C41.6,55.2 49.7,51.8 55.8,45.7 C61.9,39.6 65.3,31.5 65.3,22.9 C65.1,14.4 61.8,6.4 55.9,0.3 Z" id="XMLID_2675_"></path>
                </g>
            </g>
        </g>
    </g>
</svg>