<svg width="255" height="255" viewBox="0 0 255 255" fill="none" xmlns="http://www.w3.org/2000/svg">
<rect width="255" height="255" fill="white"/>
<path d="M208.9 216.5H43.1999C39.1999 216.5 35.8999 213.2 35.8999 209.2V42.9997C35.8999 38.9997 39.1999 35.6997 43.1999 35.6997H208.9C212.9 35.6997 216.2 38.9997 216.2 42.9997V209.2C216.2 213.3 212.9 216.5 208.9 216.5ZM43.1999 38.1997C40.5999 38.1997 38.4999 40.2997 38.4999 42.9997V209.2C38.4999 211.8 40.5999 214 43.1999 214H208.9C211.5 214 213.6 211.9 213.6 209.2V42.9997C213.6 40.3997 211.5 38.1997 208.9 38.1997H43.1999V38.1997Z" fill="#DA291C"/>
<path d="M169.8 243.8C168.8 243.8 167.8 243.6 166.9 243.2L12.6997 176.5C10.8997 175.7 9.49975 174.3 8.79975 172.5C8.09975 170.7 8.09975 168.7 8.89975 166.9L75.5997 12.6998C76.7997 9.9998 79.3997 8.2998 82.2997 8.2998C83.2997 8.2998 84.2997 8.49981 85.1997 8.89981L239.4 75.5998C241.2 76.3998 242.6 77.7998 243.3 79.5998C244 81.3998 244 83.3998 243.2 85.1998L176.5 239.4C175.3 242 172.7 243.8 169.8 243.8ZM82.2997 10.7998C80.3997 10.7998 78.6997 11.8998 77.8997 13.6998L11.1997 167.9C10.6997 169.1 10.6997 170.3 11.0997 171.5C11.5997 172.7 12.4997 173.6 13.5997 174.1L167.9 240.8C170.2 241.8 173.1 240.6 174.1 238.3L240.8 84.1998C241.3 82.9998 241.3 81.7998 240.8 80.5998C240.3 79.3998 239.4 78.4998 238.3 77.9998L84.1997 11.1998C83.5997 10.8998 82.9997 10.7998 82.2997 10.7998Z" fill="#898D8D"/>
<path d="M126.1 252.1C124.2 252.1 122.3 251.3 121 250L2.1 131.2C-0.7 128.4 -0.7 123.7 2.1 120.9L120.8 2.1C123.5 -0.7 128.4 -0.7 131.1 2.1L250 120.8C251.4 122.2 252.1 124 252.1 126C252.1 128 251.3 129.8 250 131.2L131.2 250C129.9 251.3 128 252.1 126.1 252.1ZM126 2.5C124.7 2.5 123.5 3 122.7 3.9L3.9 122.7C2 124.5 2 127.5 3.9 129.4L122.7 248.2C124.5 250 127.6 250 129.4 248.2L248.1 129.4C249 128.5 249.5 127.3 249.5 126.1C249.5 124.8 249 123.6 248.1 122.7L129.3 3.9C128.4 3 127.2 2.5 126 2.5Z" fill="#898D8D"/>
<path d="M81.9998 243.6C78.9998 243.6 76.3998 241.9 75.2998 239.2L8.99984 84.7998C8.19984 82.9998 8.19984 80.9998 8.89984 79.1998C9.59984 77.3998 10.9998 75.9998 12.7998 75.1998L167.2 8.89981C168.1 8.49981 169.1 8.2998 170.1 8.2998C173 8.2998 175.7 10.0998 176.8 12.6998L243.1 167.1C243.9 168.9 243.9 170.9 243.2 172.7C242.5 174.5 241.1 175.9 239.3 176.7L84.8998 243.1C83.8998 243.5 82.9998 243.6 81.9998 243.6ZM170.1 10.8998C169.5 10.8998 168.8 10.9998 168.3 11.2998L13.7998 77.5998C12.5998 78.0998 11.6998 78.9998 11.2998 80.1998C10.7998 81.3998 10.7998 82.6998 11.2998 83.7998L77.5998 238.2C78.5998 240.5 81.4998 241.7 83.7998 240.7L238.2 174.4C239.4 173.9 240.3 173 240.7 171.8C241.2 170.6 241.2 169.3 240.7 168.2L174.4 13.7998C173.7 12.0998 172 10.8998 170.1 10.8998Z" fill="#898D8D"/>
<path d="M141 103.4C131 103.4 126.8 110.3 126.8 110.3H126.7V86H115V151.8H126.1V145.9C126.1 145.9 130.4 152.9 140.2 152.9C152.7 152.9 161.9 143.2 161.9 128.1C161.9 118.1 158.1 110.2 151.6 106.2C148.6 104.4 145 103.4 141 103.4ZM138.2 143C130.3 143 126.4 135.8 126.4 128.4C126.4 117.9 132.1 113.5 138.3 113.5C145.3 113.5 150.1 119.3 150.1 128.3C150 137.7 144.7 143 138.2 143Z" fill="#DA291C"/>
<path d="M180 132.9V113.7H191.5V104.3H180V88.7998H168.5V104.3H162.1V113.7H168.2V134.5C168.2 150.4 182.2 152.3 188.8 152.3C191 152.3 192.4 152 192.4 152V141.3C192.4 141.3 180 143.1 180 132.9Z" fill="#DA291C"/>
<path d="M77.2996 86L54.0996 151.8H66.3996L70.9996 139H96.0996L100.6 151.8H112.9L89.8996 86H77.2996ZM75.0996 127.6L80.7996 107.6C82.0996 103.9 83.5996 97.4 83.5996 97.4H83.7996C83.7996 97.4 85.1996 103.9 86.3996 107.6L92.5996 127.6H75.0996Z" fill="#DA291C"/>
<path d="M80.9998 166.9H82.9998L87.1998 176.8H84.8998L83.9998 174.6H79.8998L78.9998 176.8H76.7998L80.9998 166.9ZM83.2998 172.7L81.9998 169.5L80.6998 172.7H83.2998Z" fill="#DA291C"/>
<path d="M88.5996 175.4L89.8996 173.9C90.7996 174.6 91.6996 175.1 92.7996 175.1C93.6996 175.1 94.1996 174.7 94.1996 174.2C94.1996 173.7 93.8996 173.4 92.1996 173C90.1996 172.5 88.9996 171.9 88.9996 170C88.9996 168.2 90.3996 167 92.3996 167C93.7996 167 94.9996 167.4 95.9996 168.2L94.8996 169.8C93.9996 169.2 93.1996 168.8 92.3996 168.8C91.5996 168.8 91.0996 169.2 91.0996 169.7C91.0996 170.3 91.4996 170.6 93.1996 171C95.1996 171.5 96.2996 172.2 96.2996 173.9C96.2996 175.8 94.7996 176.9 92.6996 176.9C91.2996 176.9 89.7996 176.4 88.5996 175.4Z" fill="#DA291C"/>
<path d="M98.0996 175.4L99.3996 173.9C100.3 174.6 101.2 175.1 102.3 175.1C103.2 175.1 103.7 174.7 103.7 174.2C103.7 173.7 103.4 173.4 101.7 173C99.6996 172.5 98.4996 171.9 98.4996 170C98.4996 168.2 99.8996 167 101.9 167C103.3 167 104.5 167.4 105.5 168.2L104.4 169.8C103.5 169.2 102.7 168.8 101.9 168.8C101.1 168.8 100.6 169.2 100.6 169.7C100.6 170.3 101 170.6 102.7 171C104.7 171.5 105.8 172.2 105.8 173.9C105.8 175.8 104.3 176.9 102.2 176.9C100.8 176.9 99.2996 176.4 98.0996 175.4Z" fill="#DA291C"/>
<path d="M108 171.9C108 169.1 110.2 166.8 113.2 166.8C116.2 166.8 118.4 169.1 118.4 171.8C118.4 174.6 116.2 176.9 113.2 176.9C110.2 177 108 174.7 108 171.9ZM116.2 171.9C116.2 170.2 115 168.8 113.2 168.8C111.5 168.8 110.3 170.2 110.3 171.9C110.3 173.6 111.5 175 113.3 175C115 175 116.2 173.6 116.2 171.9Z" fill="#DA291C"/>
<path d="M120.6 171.9C120.6 169.1 122.7 166.8 125.7 166.8C127.5 166.8 128.7 167.4 129.6 168.3L128.2 169.9C127.4 169.2 126.7 168.8 125.7 168.8C124 168.8 122.9 170.2 122.9 171.9C122.9 173.6 124.1 175 125.7 175C126.8 175 127.5 174.6 128.3 173.9L129.7 175.3C128.7 176.4 127.6 177.1 125.7 177.1C122.7 177 120.6 174.7 120.6 171.9Z" fill="#DA291C"/>
<path d="M132.2 167H134.4V176.8H132.2V167Z" fill="#DA291C"/>
<path d="M140.8 166.9H142.8L147 176.8H144.8L143.9 174.6H139.8L138.8 176.8H136.6L140.8 166.9ZM143.1 172.7L141.8 169.5L140.5 172.7H143.1Z" fill="#DA291C"/>
<path d="M150.3 169H147.3V167H155.4V169H152.4V176.8H150.2V169H150.3Z" fill="#DA291C"/>
<path d="M157.7 167H165.1V168.9H159.8V170.9H164.4V172.8H159.8V174.9H165.1V176.8H157.6V167H157.7Z" fill="#DA291C"/>
<path d="M167.1 175.4L168.4 173.9C169.3 174.6 170.2 175.1 171.3 175.1C172.2 175.1 172.7 174.7 172.7 174.2C172.7 173.7 172.4 173.4 170.7 173C168.7 172.5 167.5 171.9 167.5 170C167.5 168.2 168.9 167 170.9 167C172.3 167 173.5 167.4 174.5 168.2L173.4 169.8C172.5 169.2 171.7 168.8 170.9 168.8C170.1 168.8 169.6 169.2 169.6 169.7C169.6 170.3 170 170.6 171.7 171C173.7 171.5 174.8 172.2 174.8 173.9C174.8 175.8 173.3 176.9 171.2 176.9C169.8 176.9 168.3 176.4 167.1 175.4Z" fill="#DA291C"/>
</svg>
