<svg width="150" height="150" viewBox="0 0 150 150" fill="none" xmlns="http://www.w3.org/2000/svg">
<rect width="150" height="150" fill="white"/>
<path d="M28.0992 59.37L20.0223 52.6777C19.8377 52.5392 19.6069 52.6315 19.5146 52.9546C19.5146 52.9546 19.0069 54.3392 18.8223 54.8008C18.5454 55.4931 17.9454 55.6315 17.7146 55.6315C17.4838 55.6315 13.0531 55.9546 13.0531 55.9546C12.8223 55.9546 12.6838 56.0931 12.6838 56.3238C12.6838 56.37 12.6838 56.37 12.6838 56.4162C12.6838 56.4162 13.4684 60.0162 13.6531 60.7546C13.6531 60.8469 13.6992 60.9392 13.6992 61.0315C13.6992 61.4931 13.4684 61.6777 13.2838 61.8162C12.9146 62.1392 11.3454 63.2008 11.3454 63.2008C11.2069 63.2931 11.1146 63.4315 11.1146 63.57C11.1146 63.6623 11.1608 63.7085 11.2531 63.8008C11.2531 63.8008 14.8531 65.7854 15.73 66.2931C15.9608 66.4315 16.0531 66.6162 16.0531 66.8469C16.0531 67.2623 15.6377 67.7238 15.0838 67.8162C14.2992 67.9085 5.29922 68.6008 5.29922 68.6008C5.1146 68.6008 4.97614 68.7392 5.0223 68.8315C5.0223 68.8777 5.0223 68.9238 5.06845 69.0162C5.06845 69.0162 6.12999 70.5392 6.54537 71.0469C6.72999 71.2315 6.77614 71.4162 6.77614 71.6008C6.77614 71.8777 6.59153 72.1546 6.36076 72.3392C6.03768 72.57 0.545372 77.3238 0.545372 77.3238C0.406911 77.4162 0.360757 77.6008 1.05306 77.3238C1.69922 77.0469 7.05306 74.5546 11.7146 73.3546C15.7761 72.2931 21.8223 72.1085 26.3454 69.9854C30.8684 67.8623 32.1146 65.4162 32.7608 63.57C33.3608 61.5392 32.6684 58.17 33.2223 56.8777C33.73 55.6777 34.0992 55.4008 34.0531 55.3546C34.0069 55.3085 33.9608 55.3085 33.7761 55.4469C33.4992 55.6777 32.9915 55.7238 32.2992 55.8623C31.3761 56.0008 30.5454 56.4162 29.9454 57.1546C29.2531 57.9854 28.8377 59.1392 28.6069 59.37C28.4223 59.5085 28.1915 59.4623 28.0992 59.37Z" fill="#D52B1E"/>
<path d="M87.3608 88.8623C89.3915 88.8623 90.4531 89.97 90.4531 89.97L89.8531 90.8469C89.8531 90.8469 88.8838 89.9238 87.4069 89.9238C85.5146 89.9238 84.2685 91.3546 84.2685 93.1546C84.2685 94.9546 85.5146 96.5238 87.4069 96.5238C89.0223 96.5238 90.0377 95.4162 90.0377 95.4162L90.6838 96.2469C90.6838 96.2469 89.53 97.5854 87.4069 97.5854C84.8684 97.5854 83.0685 95.6469 83.0685 93.1546C83.0685 90.7546 84.9146 88.8623 87.3608 88.8623Z" fill="black"/>
<path d="M94.6531 93.7085H94.93V93.6162C94.93 92.6008 94.3761 92.2777 93.5915 92.2777C92.6684 92.2777 91.8838 92.8777 91.8838 92.8777L91.4223 92.0469C91.4223 92.0469 92.2992 91.3085 93.6838 91.3085C95.2069 91.3085 96.0838 92.1392 96.0838 93.7085V97.5392H95.0223V96.9392C95.0223 96.6623 95.0684 96.4777 95.0684 96.4777H95.0223C95.0223 96.4777 94.5146 97.6777 93.0838 97.6777C92.0223 97.6777 91.0069 97.0315 91.0069 95.8315C90.9608 93.8008 93.6377 93.7085 94.6531 93.7085ZM93.3146 96.7085C94.2838 96.7085 94.93 95.6931 94.93 94.77V94.5854H94.6069C93.73 94.5854 92.1608 94.6315 92.1608 95.7392C92.1608 96.2469 92.53 96.7085 93.3146 96.7085Z" fill="black"/>
<path d="M97.1915 91.4008H98.2992V92.1854C98.2992 92.4162 98.2531 92.6469 98.2531 92.6469H98.2992C98.53 92.1392 99.2684 91.2623 100.561 91.2623C101.992 91.2623 102.638 92.0469 102.638 93.57V97.4469H101.53V93.8008C101.53 92.97 101.345 92.2777 100.376 92.2777C99.4531 92.2777 98.7146 92.8777 98.4377 93.7546C98.3454 93.9854 98.3454 94.2623 98.3454 94.5854V97.4469H97.1915V91.4008V91.4008Z" fill="black"/>
<path d="M107.161 93.7085H107.438V93.6162C107.438 92.6008 106.884 92.2777 106.099 92.2777C105.176 92.2777 104.392 92.8777 104.392 92.8777L103.93 92.0469C103.93 92.0469 104.807 91.3085 106.192 91.3085C107.715 91.3085 108.592 92.1392 108.592 93.7085V97.5392H107.53V96.9392C107.53 96.6623 107.576 96.4777 107.576 96.4777H107.53C107.53 96.4777 107.022 97.6777 105.592 97.6777C104.53 97.6777 103.515 97.0315 103.515 95.8315C103.468 93.8008 106.145 93.7085 107.161 93.7085ZM105.822 96.7085C106.792 96.7085 107.438 95.6931 107.438 94.77V94.5854H107.115C106.238 94.5854 104.668 94.6315 104.668 95.7392C104.668 96.2469 105.038 96.7085 105.822 96.7085Z" fill="black"/>
<path d="M112.192 91.2623C113.576 91.2623 114.084 92.2315 114.084 92.2315H114.13C114.13 92.2315 114.084 92.0469 114.084 91.8162V89.0008H115.238V97.4931H114.13V96.9392C114.13 96.7085 114.13 96.5238 114.13 96.5238H114.084C114.084 96.5238 113.576 97.6315 112.099 97.6315C110.438 97.6315 109.422 96.3392 109.422 94.4469C109.422 92.5085 110.576 91.2623 112.192 91.2623ZM112.33 96.6162C113.253 96.6162 114.084 95.97 114.084 94.4469C114.084 93.3854 113.53 92.2777 112.376 92.2777C111.407 92.2777 110.622 93.0623 110.622 94.4469C110.622 95.7854 111.361 96.6162 112.33 96.6162Z" fill="black"/>
<path d="M119.761 93.7085H120.038V93.6162C120.038 92.6008 119.484 92.2777 118.699 92.2777C117.776 92.2777 116.992 92.8777 116.992 92.8777L116.53 92.0469C116.53 92.0469 117.407 91.3085 118.792 91.3085C120.315 91.3085 121.192 92.1392 121.192 93.7085V97.5392H120.13V96.9392C120.13 96.6623 120.176 96.4777 120.176 96.4777H120.13C120.13 96.4777 119.622 97.6777 118.192 97.6777C117.13 97.6777 116.115 97.0315 116.115 95.8315C116.068 93.8008 118.745 93.7085 119.761 93.7085ZM118.422 96.7085C119.392 96.7085 120.038 95.6931 120.038 94.77V94.5854H119.715C118.838 94.5854 117.268 94.6315 117.268 95.7392C117.268 96.2469 117.638 96.7085 118.422 96.7085Z" fill="black"/>
<path d="M19.5608 88.9085C21.5915 88.9085 22.6531 89.9238 22.6531 89.9238L22.0531 90.8008C22.0531 90.8008 21.0838 89.97 19.6531 89.97C17.6684 89.97 16.4684 91.4008 16.4684 93.2469C16.4684 95.2315 17.8069 96.57 19.6069 96.57C21.0838 96.57 22.0069 95.5085 22.0069 95.5085V94.2623H20.6223V93.2469H23.0684V97.4931H22.0069V96.9854C22.0069 96.8008 22.0069 96.6162 22.0069 96.6162H21.9608C21.9608 96.6162 21.0377 97.6315 19.3761 97.6315C17.1146 97.6315 15.2223 95.8315 15.2223 93.2469C15.2223 90.8008 17.0684 88.9085 19.5608 88.9085Z" fill="black"/>
<path d="M24.0838 91.4469H25.1915V92.5085C25.1915 92.7392 25.1454 92.97 25.1454 92.97H25.1915C25.4684 92.0931 26.1608 91.4008 27.13 91.4008C27.2684 91.4008 27.4069 91.4469 27.4069 91.4469V92.6008C27.4069 92.6008 27.2684 92.5546 27.0838 92.5546C26.3454 92.5546 25.6531 93.0623 25.3761 93.9854C25.2838 94.3546 25.2377 94.7238 25.2377 95.0931V97.5854H24.0838V91.4469Z" fill="black"/>
<path d="M31.1454 93.7085H31.3761V93.6162C31.3761 92.6008 30.8223 92.2777 30.0377 92.2777C29.1146 92.2777 28.33 92.8777 28.33 92.8777L27.8684 92.0469C27.8684 92.0469 28.7454 91.3085 30.13 91.3085C31.6531 91.3085 32.53 92.1392 32.53 93.6623V97.4931H31.4684V96.9392C31.4684 96.6623 31.5146 96.4777 31.5146 96.4777H31.4684C31.4684 96.4777 30.9608 97.6777 29.53 97.6777C28.4684 97.6777 27.4531 97.0315 27.4531 95.8315C27.4531 93.8008 30.13 93.7085 31.1454 93.7085ZM29.8069 96.7085C30.7761 96.7085 31.4223 95.6931 31.4223 94.77V94.5854H31.1454C30.2684 94.5854 28.6992 94.6315 28.6992 95.7392C28.6531 96.2469 29.0223 96.7085 29.8069 96.7085Z" fill="black"/>
<path d="M33.6838 91.4469H34.7915V92.2315C34.7915 92.4623 34.7454 92.6931 34.7454 92.6931H34.7915C35.0223 92.1854 35.7608 91.3085 37.0531 91.3085C38.4838 91.3085 39.13 92.0931 39.13 93.6162V97.4931H37.9761V93.8931C37.9761 93.0623 37.7915 92.37 36.8223 92.37C35.8992 92.37 35.1608 92.97 34.8838 93.8469C34.7915 94.0777 34.7915 94.3546 34.7915 94.6777V97.5392H33.6838V91.4469Z" fill="black"/>
<path d="M42.7761 91.3085C44.1607 91.3085 44.6684 92.2777 44.6684 92.2777H44.7146C44.7146 92.2777 44.6684 92.0931 44.6684 91.8623V89.0469H45.8223V97.4931H44.7146V96.9392C44.7146 96.7085 44.7146 96.5238 44.7146 96.5238H44.6684C44.6684 96.5238 44.1607 97.6315 42.6838 97.6315C41.0223 97.6315 40.0069 96.3392 40.0069 94.4469C40.0531 92.5546 41.2069 91.3085 42.7761 91.3085ZM42.9607 96.6162C43.8377 96.6162 44.7146 95.97 44.7146 94.4469C44.7146 93.3854 44.1607 92.2777 43.0069 92.2777C42.0377 92.2777 41.2531 93.0623 41.2531 94.4469C41.2531 95.7854 41.9454 96.6162 42.9607 96.6162Z" fill="black"/>
<path d="M47.1146 95.9238C47.1146 95.9238 47.8069 96.6162 48.8685 96.6162C49.3761 96.6162 49.8838 96.3392 49.8838 95.8777C49.8838 94.77 46.7454 95.0008 46.7454 93.0162C46.7454 91.9085 47.7146 91.3085 48.9608 91.3085C50.2992 91.3085 50.8992 92.0008 50.8992 92.0008L50.4377 92.8777C50.4377 92.8777 49.8838 92.3238 48.9608 92.3238C48.4531 92.3238 47.9454 92.5546 47.9454 93.0623C47.9454 94.17 51.0838 93.8931 51.0838 95.9238C51.0838 96.9392 50.2069 97.6777 48.8685 97.6777C47.3915 97.6777 46.5608 96.8008 46.5608 96.8008L47.1146 95.9238Z" fill="black"/>
<path d="M54.9146 89.0469H57.73C60.3146 89.0469 62.0223 90.6162 62.0223 93.2469C62.0223 95.9238 60.3146 97.4931 57.73 97.4931H54.9146V89.0469ZM57.6377 96.4777C59.53 96.4777 60.7761 95.37 60.7761 93.2469C60.7761 91.17 59.53 90.0623 57.6377 90.0623H56.1146V96.4777H57.6377Z" fill="black"/>
<path d="M65.53 91.3085C67.2377 91.3085 68.1608 92.6008 68.1608 94.17C68.1608 94.3085 68.1146 94.6777 68.1146 94.6777H63.6838C63.73 96.0162 64.6992 96.6623 65.7608 96.6623C66.8223 96.6623 67.5608 95.97 67.5608 95.97L68.0223 96.8008C68.0223 96.8008 67.1454 97.6777 65.6685 97.6777C63.7761 97.6777 62.4377 96.2931 62.4377 94.4931C62.53 92.5546 63.8223 91.3085 65.53 91.3085ZM67.0069 93.7546C66.9608 92.6931 66.3146 92.2315 65.53 92.2315C64.6531 92.2315 63.9146 92.7854 63.7761 93.7546H67.0069ZM65.8992 89.4623H67.1454L65.9915 90.9854H65.0223L65.8992 89.4623Z" fill="black"/>
<path d="M73.5607 92.37H70.5607V97.4931H69.4069V92.37H68.6684V91.4469H69.4069V91.2623C69.4069 89.2777 70.93 89.0469 71.6684 89.0469C71.9454 89.0469 72.13 89.0931 72.13 89.0931V90.1546C72.13 90.1546 71.9915 90.1085 71.8531 90.1085C71.3915 90.1085 70.5607 90.1085 70.5607 91.2623V91.4469H74.7146V97.4931H73.5607V92.37ZM73.5607 89.0469H74.7146V90.2469H73.5607V89.0469Z" fill="black"/>
<path d="M76.0531 95.9238C76.0531 95.9238 76.7454 96.6162 77.8069 96.6162C78.3146 96.6162 78.8223 96.3392 78.8223 95.8777C78.8223 94.77 75.6838 95.0008 75.6838 93.0162C75.6838 91.9085 76.6531 91.3085 77.8992 91.3085C79.2377 91.3085 79.8377 92.0008 79.8377 92.0008L79.3761 92.8777C79.3761 92.8777 78.8223 92.3238 77.8992 92.3238C77.3915 92.3238 76.8838 92.5546 76.8838 93.0623C76.8838 94.17 80.0223 93.8931 80.0223 95.9238C80.0223 96.9392 79.1454 97.6777 77.8069 97.6777C76.33 97.6777 75.4992 96.8008 75.4992 96.8008L76.0531 95.9238Z" fill="black"/>
<path d="M111.961 77.1392C113.992 77.1392 115.053 78.2469 115.053 78.2469L114.453 79.1238C114.453 79.1238 113.484 78.2008 112.007 78.2008C110.115 78.2008 108.868 79.6315 108.868 81.4315C108.868 83.2315 110.115 84.8008 112.007 84.8008C113.622 84.8008 114.638 83.6931 114.638 83.6931L115.284 84.5238C115.284 84.5238 114.13 85.8623 112.007 85.8623C109.468 85.8623 107.668 83.9238 107.668 81.4315C107.668 78.9854 109.515 77.1392 111.961 77.1392Z" fill="black"/>
<path d="M119.253 81.9392H119.53V81.8469C119.53 80.8315 118.976 80.5085 118.192 80.5085C117.268 80.5085 116.484 81.1085 116.484 81.1085L116.022 80.2777C116.022 80.2777 116.899 79.5392 118.284 79.5392C119.807 79.5392 120.684 80.37 120.684 81.9392V85.77H119.622V85.2162C119.622 84.9392 119.668 84.7546 119.668 84.7546H119.622C119.622 84.7546 119.115 85.9546 117.684 85.9546C116.622 85.9546 115.607 85.3085 115.607 84.1085C115.561 82.0315 118.238 81.9392 119.253 81.9392ZM117.915 84.9392C118.884 84.9392 119.53 83.9238 119.53 83.0008V82.8162H119.207C118.33 82.8162 116.761 82.8623 116.761 83.97C116.761 84.4777 117.13 84.9392 117.915 84.9392Z" fill="black"/>
<path d="M121.792 79.6777H122.899V80.4623C122.899 80.6931 122.853 80.9238 122.853 80.9238H122.899C123.13 80.4162 123.868 79.5392 125.161 79.5392C126.592 79.5392 127.238 80.3238 127.238 81.8469V85.7238H126.084V82.0777C126.084 81.2469 125.899 80.5546 124.93 80.5546C124.007 80.5546 123.268 81.1546 122.992 82.0315C122.899 82.2623 122.899 82.5392 122.899 82.8623V85.7238H121.745V79.6777H121.792Z" fill="black"/>
<path d="M131.761 81.9392H132.038V81.8469C132.038 80.8315 131.484 80.5085 130.699 80.5085C129.776 80.5085 128.992 81.1085 128.992 81.1085L128.53 80.2777C128.53 80.2777 129.407 79.5392 130.792 79.5392C132.315 79.5392 133.192 80.37 133.192 81.9392V85.77H132.13V85.2162C132.13 84.9392 132.176 84.7546 132.176 84.7546H132.13C132.13 84.7546 131.622 85.9546 130.192 85.9546C129.13 85.9546 128.115 85.3085 128.115 84.1085C128.068 82.0315 130.745 81.9392 131.761 81.9392ZM130.422 84.9392C131.392 84.9392 132.038 83.9238 132.038 83.0008V82.8162H131.715C130.838 82.8162 129.268 82.8623 129.268 83.97C129.268 84.4777 129.638 84.9392 130.422 84.9392Z" fill="black"/>
<path d="M136.792 79.5392C138.176 79.5392 138.684 80.5085 138.684 80.5085H138.73C138.73 80.5085 138.684 80.3238 138.684 80.0931V77.2777H139.838V85.77H138.73V85.2162C138.73 84.9854 138.73 84.8008 138.73 84.8008H138.684C138.684 84.8008 138.176 85.9085 136.699 85.9085C135.038 85.9085 134.022 84.6162 134.022 82.7238C134.068 80.7854 135.176 79.5392 136.792 79.5392ZM136.976 84.8931C137.899 84.8931 138.73 84.2469 138.73 82.7238C138.73 81.6623 138.176 80.5546 137.022 80.5546C136.053 80.5546 135.268 81.3392 135.268 82.7238C135.222 84.0162 135.961 84.8931 136.976 84.8931Z" fill="black"/>
<path d="M144.361 81.9392H144.638V81.8469C144.638 80.8315 144.084 80.5085 143.299 80.5085C142.376 80.5085 141.592 81.1085 141.592 81.1085L141.13 80.2777C141.13 80.2777 142.007 79.5392 143.392 79.5392C144.915 79.5392 145.792 80.37 145.792 81.9392V85.77H144.73V85.2162C144.73 84.9392 144.776 84.7546 144.776 84.7546H144.73C144.73 84.7546 144.222 85.9546 142.792 85.9546C141.73 85.9546 140.715 85.3085 140.715 84.1085C140.715 82.0315 143.345 81.9392 144.361 81.9392ZM143.022 84.9392C143.992 84.9392 144.638 83.9238 144.638 83.0008V82.8162H144.315C143.438 82.8162 141.868 82.8623 141.868 83.97C141.868 84.4777 142.238 84.9392 143.022 84.9392Z" fill="black"/>
<path d="M19.5608 77.1392C21.5915 77.1392 22.6531 78.1546 22.6531 78.1546L22.0531 79.0315C22.0531 79.0315 21.0838 78.2008 19.6531 78.2008C17.6684 78.2008 16.4684 79.6315 16.4684 81.4777C16.4684 83.4623 17.8069 84.8008 19.6069 84.8008C21.0838 84.8008 22.0069 83.7392 22.0069 83.7392V82.4931H20.6223V81.4777H23.0684V85.7238H22.0069V85.2162C22.0069 85.0315 22.0069 84.8469 22.0069 84.8469H21.9608C21.9608 84.8469 21.0377 85.8623 19.3761 85.8623C17.1146 85.8623 15.2223 84.0623 15.2223 81.4777C15.2223 79.0777 17.0684 77.1392 19.5608 77.1392Z" fill="black"/>
<path d="M24.0838 79.6777H25.1915V80.7392C25.1915 80.97 25.1454 81.2008 25.1454 81.2008H25.1915C25.4684 80.3238 26.1608 79.6315 27.13 79.6315C27.2684 79.6315 27.4069 79.6777 27.4069 79.6777V80.7854C27.4069 80.7854 27.2684 80.7392 27.0838 80.7392C26.3454 80.7392 25.6531 81.2469 25.3761 82.17C25.2838 82.5392 25.2377 82.9085 25.2377 83.2777V85.77H24.0838V79.6777Z" fill="black"/>
<path d="M31.1454 81.9392H31.3761V81.8469C31.3761 80.8315 30.8223 80.5085 30.0377 80.5085C29.1146 80.5085 28.33 81.1085 28.33 81.1085L27.8684 80.2777C27.8684 80.2777 28.7454 79.5392 30.13 79.5392C31.6531 79.5392 32.53 80.37 32.53 81.8931V85.7238H31.4684V85.17C31.4684 84.8931 31.5146 84.7085 31.5146 84.7085H31.4684C31.4684 84.7085 30.9608 85.9085 29.53 85.9085C28.4684 85.9085 27.4531 85.2623 27.4531 84.0623C27.4531 82.0315 30.13 81.9392 31.1454 81.9392ZM29.8069 84.9392C30.7761 84.9392 31.4223 83.9238 31.4223 83.0008V82.8162H31.1454C30.2684 82.8162 28.6992 82.8623 28.6992 83.97C28.6531 84.4777 29.0223 84.9392 29.8069 84.9392Z" fill="black"/>
<path d="M33.6838 79.6777H34.7915V80.4623C34.7915 80.6931 34.7454 80.9238 34.7454 80.9238H34.7915C35.0223 80.4162 35.7608 79.5392 37.0531 79.5392C38.4838 79.5392 39.13 80.3238 39.13 81.8469V85.7238H37.9761V82.1238C37.9761 81.2931 37.7915 80.6008 36.8223 80.6008C35.8992 80.6008 35.1608 81.2008 34.8838 82.0777C34.7915 82.3085 34.7915 82.5854 34.7915 82.9085V85.77H33.6838V79.6777Z" fill="black"/>
<path d="M42.7761 79.5392C44.1607 79.5392 44.6684 80.5085 44.6684 80.5085H44.7146C44.7146 80.5085 44.6684 80.3238 44.6684 80.0931V77.2777H45.8223V85.7238H44.7146V85.17C44.7146 84.9392 44.7146 84.7546 44.7146 84.7546H44.6684C44.6684 84.7546 44.1607 85.8623 42.6838 85.8623C41.0223 85.8623 40.0069 84.57 40.0069 82.6777C40.0531 80.7854 41.2069 79.5392 42.7761 79.5392ZM42.9607 84.8931C43.8377 84.8931 44.7146 84.2469 44.7146 82.7238C44.7146 81.6623 44.1607 80.5546 43.0069 80.5546C42.0377 80.5546 41.2531 81.3392 41.2531 82.7238C41.2531 84.0162 41.9454 84.8931 42.9607 84.8931Z" fill="black"/>
<path d="M53.4838 77.1392C55.5146 77.1392 56.5761 78.2469 56.5761 78.2469L55.9761 79.1238C55.9761 79.1238 55.0069 78.2008 53.53 78.2008C51.6377 78.2008 50.3915 79.6315 50.3915 81.4315C50.3915 83.2315 51.6377 84.7546 53.53 84.7546C55.1454 84.7546 56.1608 83.6469 56.1608 83.6469L56.8069 84.4777C56.8069 84.4777 55.6531 85.8162 53.53 85.8162C50.9915 85.8162 49.1915 83.8777 49.1915 81.3854C49.1454 78.9854 50.9915 77.1392 53.4838 77.1392Z" fill="black"/>
<path d="M57.3146 77.2777H58.4685V80.37C58.4685 80.6469 58.4223 80.8777 58.4223 80.8777H58.4685C58.7454 80.2777 59.4838 79.5392 60.73 79.5392C62.1608 79.5392 62.8069 80.3238 62.8069 81.8469V85.7238H61.6531V82.1238C61.6531 81.2931 61.4685 80.6008 60.4992 80.6008C59.5761 80.6008 58.8377 81.2469 58.5608 82.0777C58.4685 82.3085 58.4685 82.5854 58.4685 82.8623V85.7238H57.3146V77.2777V77.2777Z" fill="black"/>
<path d="M67.0992 81.9392H67.3761V81.8469C67.3761 80.8315 66.8223 80.5085 66.0377 80.5085C65.1146 80.5085 64.33 81.1085 64.33 81.1085L63.8684 80.2777C63.8684 80.2777 64.7454 79.5392 66.13 79.5392C67.6531 79.5392 68.53 80.37 68.53 81.8931V85.7238H67.4684V85.17C67.4684 84.8931 67.5146 84.7085 67.5146 84.7085H67.4684C67.4684 84.7085 66.9608 85.9085 65.53 85.9085C64.4684 85.9085 63.4531 85.2623 63.4531 84.0623C63.4531 82.0315 66.0838 81.9392 67.0992 81.9392ZM65.7608 84.9392C66.73 84.9392 67.3761 83.9238 67.3761 83.0008V82.8162H67.0992C66.2223 82.8162 64.6531 82.8623 64.6531 83.97C64.6069 84.4777 65.0223 84.9392 65.7608 84.9392Z" fill="black"/>
<path d="M69.5915 77.2777H70.7454V83.8777C70.7454 84.6162 71.0223 84.7546 71.3915 84.7546C71.4838 84.7546 71.5761 84.7546 71.5761 84.7546V85.77C71.5761 85.77 71.3915 85.77 71.2069 85.77C70.5608 85.77 69.5915 85.5854 69.5915 84.0623V77.2777Z" fill="black"/>
<path d="M72.4069 77.2777H73.5608V83.8777C73.5608 84.6162 73.8377 84.7546 74.2069 84.7546C74.2992 84.7546 74.3915 84.7546 74.3915 84.7546V85.77C74.3915 85.77 74.2069 85.77 74.0223 85.77C73.3761 85.77 72.4069 85.5854 72.4069 84.0623V77.2777Z" fill="black"/>
<path d="M77.8069 79.5392C79.5146 79.5392 80.4377 80.8315 80.4377 82.4008C80.4377 82.5392 80.3915 82.9085 80.3915 82.9085H75.9608C76.0069 84.2469 76.9761 84.8931 78.0377 84.8931C79.0992 84.8931 79.8377 84.2008 79.8377 84.2008L80.2992 85.0315C80.2992 85.0315 79.4223 85.9085 77.9454 85.9085C76.0531 85.9085 74.7146 84.5238 74.7146 82.7238C74.7608 80.7854 76.0531 79.5392 77.8069 79.5392ZM79.2377 81.9854C79.1915 80.9238 78.5454 80.4162 77.7608 80.4162C76.8838 80.4162 76.1454 80.97 76.0069 81.9854H79.2377Z" fill="black"/>
<path d="M81.3608 79.6777H82.4685V80.4623C82.4685 80.6931 82.4223 80.9238 82.4223 80.9238H82.4685C82.6992 80.4162 83.4377 79.5392 84.73 79.5392C86.1608 79.5392 86.8069 80.3238 86.8069 81.8469V85.7238H85.6531V82.1238C85.6531 81.2931 85.4685 80.6008 84.4992 80.6008C83.5761 80.6008 82.8377 81.2008 82.5608 82.0777C82.4685 82.3085 82.4685 82.5854 82.4685 82.9085V85.77H81.3146V79.6777H81.3608Z" fill="black"/>
<path d="M90.3146 87.2469C91.3761 87.2469 92.2531 86.7854 92.2531 85.5392V85.0777C92.2531 84.8931 92.2531 84.7085 92.2531 84.7085H92.2069C91.8377 85.3085 91.2838 85.6777 90.4069 85.6777C88.6992 85.6777 87.6838 84.3392 87.6838 82.5854C87.6838 80.8315 88.6531 79.5392 90.3146 79.5392C91.7915 79.5392 92.2069 80.4162 92.2069 80.4162H92.2531C92.2531 80.4162 92.2531 80.3238 92.2531 80.2315V79.6777H93.3608V85.4931C93.3608 87.4777 91.8377 88.2623 90.3146 88.2623C89.5761 88.2623 88.8377 88.0777 88.2377 87.7546L88.6069 86.8315C88.6531 86.8315 89.3915 87.2469 90.3146 87.2469ZM92.2531 82.5854C92.2531 81.0162 91.4685 80.5546 90.5454 80.5546C89.4838 80.5546 88.8838 81.3392 88.8838 82.5392C88.8838 83.7854 89.5761 84.6623 90.6377 84.6623C91.5146 84.6623 92.2531 84.1546 92.2531 82.5854Z" fill="black"/>
<path d="M97.2377 79.5392C98.9454 79.5392 99.8684 80.8315 99.8684 82.4008C99.8684 82.5392 99.8223 82.9085 99.8223 82.9085H95.3915C95.4377 84.2469 96.4069 84.8931 97.4684 84.8931C98.53 84.8931 99.2685 84.2008 99.2685 84.2008L99.73 85.0315C99.73 85.0315 98.8531 85.9085 97.3761 85.9085C95.4838 85.9085 94.1454 84.5238 94.1454 82.7238C94.1915 80.7854 95.53 79.5392 97.2377 79.5392ZM98.6684 81.9854C98.6223 80.9238 97.9761 80.4162 97.1915 80.4162C96.3146 80.4162 95.5761 80.97 95.4377 81.9854H98.6684Z" fill="black"/>
<path d="M100.884 84.1546C100.884 84.1546 101.576 84.8469 102.638 84.8469C103.145 84.8469 103.653 84.57 103.653 84.1085C103.653 83.0008 100.515 83.2315 100.515 81.2469C100.515 80.1392 101.484 79.5392 102.73 79.5392C104.068 79.5392 104.668 80.2315 104.668 80.2315L104.207 81.1085C104.207 81.1085 103.653 80.5546 102.73 80.5546C102.222 80.5546 101.715 80.7854 101.715 81.2931C101.715 82.4008 104.853 82.1238 104.853 84.1546C104.853 85.17 103.976 85.9085 102.638 85.9085C101.161 85.9085 100.33 85.0315 100.33 85.0315L100.884 84.1546Z" fill="black"/>
<path d="M147.499 76.7238C148.284 76.7238 148.93 77.37 148.93 78.2008C148.93 79.0315 148.284 79.6777 147.499 79.6777C146.715 79.6777 146.068 79.0315 146.068 78.2008C146.068 77.37 146.715 76.7238 147.499 76.7238ZM147.499 79.4008C148.145 79.4008 148.653 78.8931 148.653 78.2008C148.653 77.5085 148.145 77.0008 147.499 77.0008C146.853 77.0008 146.345 77.5085 146.345 78.2008C146.345 78.8469 146.853 79.4008 147.499 79.4008ZM146.992 77.4162H147.592C147.868 77.4162 148.053 77.6008 148.053 77.8777C148.053 78.1085 147.915 78.2469 147.776 78.2931C147.776 78.2931 147.776 78.2931 147.822 78.3854L148.145 78.9392H147.822L147.545 78.3392H147.315V78.9392H147.038V77.4162H146.992ZM147.545 78.1546C147.684 78.1546 147.776 78.0623 147.776 77.8777C147.776 77.7392 147.684 77.6469 147.545 77.6469H147.315V78.1546H147.545Z" fill="#231F20"/>
</svg>
