<svg width="150" height="150" viewBox="0 0 150 150" fill="none" xmlns="http://www.w3.org/2000/svg">
<rect width="150" height="150" fill="#139E49"/>
<path d="M0 112.315H149.132V37.7192H0V112.315Z" fill="#139E49"/>
<path fill-rule="evenodd" clip-rule="evenodd" d="M43.3639 77.8686L42.459 79.9139C42.459 79.9139 44.6389 81.3126 47.1396 81.2119C49.64 81.1111 52.1139 80.0482 52.0557 77.5934C51.9974 75.1387 50.3219 74.7539 48.3982 74.2502C46.4745 73.7468 45.5226 73.5611 45.5271 72.7555C45.5312 71.9506 46.5026 71.4085 47.533 71.4185C49.1462 71.4339 50.7186 72.5198 50.7186 72.5198L51.6233 70.4351C51.6233 70.4351 50.2866 69.3327 47.6509 69.2553C45.0148 69.1779 42.6879 70.6763 42.6951 72.9522C42.7023 75.2288 44.8514 76.0494 46.7069 76.4133C48.5623 76.7776 49.212 77.2083 49.224 77.8686C49.236 78.5292 48.3098 79.0408 47.1787 79.0093C45.2393 78.9558 43.3639 77.8686 43.3639 77.8686Z" fill="white"/>
<path fill-rule="evenodd" clip-rule="evenodd" d="M59.6467 76.9637C59.5984 78.4505 58.773 79.0892 58.0342 79.1272C57.2958 79.1649 56.2867 78.8545 56.225 77.0425C56.1633 75.2306 57.0062 74.7097 57.9163 74.6827C58.9638 74.6515 59.6954 75.4773 59.6467 76.9637ZM59.4895 73.7386L59.6467 73.5814V72.7946H62.4V80.9755H59.6467V79.9921L59.411 79.8742C59.411 79.8742 58.8374 81.1098 57.0902 81.0543C55.343 80.9984 53.2843 79.7998 53.3933 77.0425C53.5019 74.2852 54.9191 72.4599 56.9723 72.5195C59.0252 72.5788 59.4895 73.7386 59.4895 73.7386Z" fill="white"/>
<path fill-rule="evenodd" clip-rule="evenodd" d="M76.3943 76.9637C76.346 78.4505 75.5205 79.0892 74.7821 79.1272C74.0433 79.1649 73.0342 78.8545 72.9729 77.0425C72.9112 75.2306 73.7538 74.7097 74.6639 74.6827C75.7114 74.6515 76.4429 75.4773 76.3943 76.9637ZM76.2373 73.7386L76.3943 73.5814V72.7946H79.1475V80.9755H76.3943V79.9921L76.1585 79.8742C76.1585 79.8742 75.5853 81.1098 73.8381 81.0543C72.0909 80.9984 70.0322 79.7998 70.1408 77.0425C70.2498 74.2852 71.667 72.4599 73.7199 72.5195C75.773 72.5788 76.2373 73.7386 76.2373 73.7386Z" fill="white"/>
<path fill-rule="evenodd" clip-rule="evenodd" d="M68.968 72.7553V74.84H67.277V80.9756H64.4844V72.205C64.4844 72.205 64.6204 68.9676 67.5522 68.9406C69.1078 68.9258 69.2829 69.1763 69.2829 69.1763V71.261C69.2829 71.261 69.089 71.1778 68.4962 71.1822C67.1221 71.1932 67.3161 72.7947 67.3161 72.7947" fill="white"/>
<path fill-rule="evenodd" clip-rule="evenodd" d="M80.8853 72.7554C80.8853 72.7554 80.9901 73.4126 81.0031 74.3289C81.0377 76.6812 81.0031 80.8578 81.0031 80.8578H83.6779V76.8066C83.6779 76.8066 83.5967 75.0841 85.4871 74.9583C86.0768 74.9189 86.9814 75.3123 86.9814 75.3123V72.7163C86.9814 72.7163 86.6278 72.4803 85.5656 72.5591C84.6113 72.6297 83.6779 73.9749 83.6779 73.9749H83.4812V72.7554" fill="white"/>
<path fill-rule="evenodd" clip-rule="evenodd" d="M88.043 80.9362H90.8747V72.7554H88.043V80.9362Z" fill="white"/>
<path fill-rule="evenodd" clip-rule="evenodd" d="M87.9648 68.665V71.1428H90.8359V68.7044L87.9648 68.665Z" fill="white"/>
<path fill-rule="evenodd" clip-rule="evenodd" d="M99.3317 75.3515L100.078 73.4237C100.078 73.4237 99.2923 72.5979 96.8142 72.5588C94.3361 72.5194 92.3696 74.0925 92.3696 76.9246C92.3696 79.7563 94.3361 81.1368 96.9317 81.0936C99.2923 81.0542 100.078 80.1493 100.078 80.1493L99.3317 78.3401C99.3317 78.3401 98.0731 79.1662 97.1291 79.0877C96.1854 79.0089 95.0834 78.1437 95.202 76.8064C95.3195 75.4693 96.1063 74.6038 97.3258 74.6038C98.5449 74.6038 99.3317 75.3515 99.3317 75.3515Z" fill="white"/>
<path fill-rule="evenodd" clip-rule="evenodd" d="M109.872 76.8459C109.872 79.4418 107.984 81.0938 105.349 81.1328C102.713 81.1722 100.932 79.7211 100.904 76.7277C100.875 73.7065 103.498 72.5586 105.152 72.5586C107.945 72.5586 109.872 74.2499 109.872 76.8459ZM105.349 74.6827C104.051 74.7197 103.618 75.7446 103.618 76.8065C103.618 77.8684 104.072 79.1249 105.427 79.0879C106.774 79.0505 107.039 77.9078 107.079 76.8849C107.118 75.8628 106.725 74.6433 105.349 74.6827Z" fill="white"/>
<path fill-rule="evenodd" clip-rule="evenodd" d="M111.327 72.7554L111.405 73.5422L111.484 80.9363L114.198 80.8972L114.159 76.1381C114.159 76.1381 114.158 74.7082 115.614 74.6434C116.811 74.5903 116.637 76.5709 116.637 76.5709L116.676 80.9757H119.429L119.389 76.2563C119.389 76.2563 119.508 74.6434 120.845 74.6434C121.907 74.6434 121.868 75.7447 121.868 75.7447L121.907 80.9562L124.739 80.9167L124.778 75.5875C124.778 75.5875 124.897 72.6598 121.947 72.5981C120.058 72.5591 119.154 74.0537 119.154 74.0537C119.154 74.0537 118.799 72.677 116.794 72.5981C114.788 72.5197 114.159 73.8177 114.159 73.8177L113.805 72.7554" fill="white"/>
<path fill-rule="evenodd" clip-rule="evenodd" d="M90.6001 82.7847H94.5327V83.2568H92.8808V87.7799H92.2914V83.2959H90.6001" fill="white"/>
<path fill-rule="evenodd" clip-rule="evenodd" d="M94.9263 84.0829H95.5156L96.657 87.1506H96.7351L97.8762 84.0829H98.3867L99.5665 87.2291H99.6456L100.786 84.0435H101.297L99.8814 87.7403H99.2132L98.2298 84.909H98.0331L96.9315 87.8192H96.499" fill="white"/>
<path fill-rule="evenodd" clip-rule="evenodd" d="M106.568 84.0829H107.158L108.299 87.1506H108.377L109.518 84.0829H110.029L111.209 87.2291H111.288L112.428 84.0435H112.94L111.524 87.7403H110.854L109.871 84.909H109.675L108.574 87.8192H108.141" fill="white"/>
<path fill-rule="evenodd" clip-rule="evenodd" d="M104.68 86.1675V86.7178C104.68 86.7178 104.037 87.5642 103.303 87.5045C102.57 87.4449 102.373 87.0368 102.399 86.7178C102.423 86.3988 102.426 86.2456 102.792 86.1281C103.043 86.0472 104.455 86.0404 104.68 86.1675ZM104.562 85.7344L104.68 85.5771C104.68 85.5771 104.73 85.2513 104.602 84.948C104.465 84.6269 104.173 84.4063 103.618 84.3974C102.942 84.3867 102.359 84.8301 102.359 84.8301L102.124 84.5156C102.124 84.5156 102.672 84.0215 103.579 84.004C105.043 83.9759 105.152 84.9874 105.152 84.9874L105.191 87.78H104.759L104.523 87.3863C104.523 87.3863 104.075 87.8321 103.303 87.8191C102.531 87.8064 101.869 87.4768 101.888 86.7572C101.906 86.0376 102.439 85.7344 102.949 85.6953C103.46 85.6566 104.562 85.7344 104.562 85.7344Z" fill="white"/>
<path fill-rule="evenodd" clip-rule="evenodd" d="M124.837 86.1675V86.7178C124.837 86.7178 124.193 87.5642 123.461 87.5045C122.727 87.4449 122.531 87.0368 122.556 86.7178C122.581 86.3988 122.583 86.2456 122.949 86.1281C123.2 86.0472 124.612 86.0404 124.837 86.1675ZM124.72 85.7344L124.837 85.5771C124.837 85.5771 124.887 85.2513 124.758 84.948C124.621 84.6269 124.33 84.4063 123.775 84.3974C123.098 84.3867 122.517 84.8301 122.517 84.8301L122.281 84.5156C122.281 84.5156 122.828 84.0215 123.736 84.004C125.2 83.9759 125.309 84.9874 125.309 84.9874L125.348 87.78H124.916L124.68 87.3863C124.68 87.3863 124.233 87.8321 123.461 87.8191C122.689 87.8064 122.027 87.4768 122.045 86.7572C122.063 86.0376 122.596 85.7344 123.106 85.6953C123.617 85.6566 124.72 85.7344 124.72 85.7344Z" fill="white"/>
<path fill-rule="evenodd" clip-rule="evenodd" d="M114.827 84.4763C116.207 84.566 116.164 85.8133 116.164 85.8133H113.451C113.451 85.8133 113.448 84.3865 114.827 84.4763ZM113.49 86.1282H116.637C116.637 86.1282 116.716 84.0534 114.867 84.0435C113.096 84.0342 112.949 85.5035 112.94 86.01C112.929 86.5168 113.219 87.7894 114.906 87.8192C115.832 87.836 116.243 87.2686 116.243 87.2686L116.047 87.0722C116.047 87.0722 115.573 87.5547 114.867 87.5046C114.161 87.455 113.441 87.0859 113.49 86.1282Z" fill="white"/>
<path fill-rule="evenodd" clip-rule="evenodd" d="M117.541 84.0825H120.53V84.358L118.131 87.3076L118.249 87.4649H120.569V87.7794H117.423V87.5043L119.98 84.4755L119.822 84.3971H117.541" fill="white"/>
<path fill-rule="evenodd" clip-rule="evenodd" d="M40.8467 67.2491L41.004 67.5637C41.004 67.5637 50.9762 62.4945 54.6124 65.086C57.4013 67.0737 53.3933 71.2215 53.3933 71.2215L53.7078 71.4967C53.7078 71.4967 60.8439 65.1744 58.3093 63.0016C54.6162 59.8352 40.8467 67.2491 40.8467 67.2491Z" fill="#DB2630"/>
<path fill-rule="evenodd" clip-rule="evenodd" d="M39.0376 68.6254L38.8803 68.3896C38.8803 68.3896 23.809 77.0735 23.8169 82.3127C23.8207 84.7082 27.1249 84.8161 31.1716 83.7285C35.6432 82.5265 40.4538 80.1101 40.4538 80.1101L40.3355 79.7561C40.3355 79.7561 32.1238 82.9027 30.0703 79.874C28.9718 78.254 30.879 75.1584 33.2954 72.8733C35.9177 70.3935 39.0376 68.6254 39.0376 68.6254Z" fill="#DB2630"/>
</svg>
