<svg width="150" height="150" viewBox="0 0 150 150" fill="none" xmlns="http://www.w3.org/2000/svg">
<rect width="150" height="150" fill="white"/>
<path fill-rule="evenodd" clip-rule="evenodd" d="M21.35 82.95C14.45 82.95 8.85001 77.35 8.85001 70.5C8.85001 67.15 10.15 64.05 12.5 61.7C14.9 59.3 18.05 58 21.35 58C24.7 58 27.85 59.3 30.2 61.65C32.55 64 33.85 67.15 33.85 70.45C33.85 73.8 32.55 76.9 30.2 79.25C27.85 81.65 24.7 82.95 21.35 82.95ZM21.35 59.85C15.5 59.85 10.7 64.6 10.7 70.45C10.7 76.3 15.45 81.05 21.35 81.05C27.2 81.05 32 76.3 32 70.45C32 64.6 27.25 59.85 21.35 59.85Z" fill="#F6921E"/>
<path fill-rule="evenodd" clip-rule="evenodd" d="M21.35 90.3C18.65 90.3 16.05 89.75 13.6 88.75C11.25 87.75 9.1 86.35 7.3 84.5C5.5 82.65 4.05 80.55 3.05 78.2C2.05 75.75 1.5 73.15 1.5 70.45H3.35C3.35 80.35 11.45 88.4 21.35 88.4C31.3 88.4 39.35 80.35 39.35 70.45H41.2C41.2 73.1 40.7 75.7 39.65 78.15C38.65 80.5 37.2 82.65 35.4 84.45C33.55 86.25 31.45 87.7 29.1 88.7C26.65 89.75 24.05 90.3 21.35 90.3Z" fill="#BA2E25"/>
<path fill-rule="evenodd" clip-rule="evenodd" d="M48.3 87.85H46.6V90.35H45.8V83.3H48.45C50.05 83.3 51.1 84.15 51.1 85.55C51.1 87.1 49.85 87.85 48.3 87.85ZM48.4 84.05H46.6V87.15H48.35C49.5 87.15 50.3 86.55 50.3 85.6C50.3 84.55 49.55 84.05 48.4 84.05Z" fill="#BA2E25"/>
<path fill-rule="evenodd" clip-rule="evenodd" d="M52.95 90.35H52.15V83H52.95V86.05C53.3 85.5 53.85 85.05 54.75 85.05C56 85.05 56.75 85.9 56.75 87.15V90.4H55.95V87.35C55.95 86.4 55.4 85.8 54.5 85.8C53.6 85.8 52.95 86.45 52.95 87.45V90.35Z" fill="#BA2E25"/>
<path fill-rule="evenodd" clip-rule="evenodd" d="M58.15 84V83.15H59.05V84H58.15ZM58.2 90.35V85.15H59V90.35H58.2Z" fill="#BA2E25"/>
<path fill-rule="evenodd" clip-rule="evenodd" d="M60.6 90.35V83H61.4V90.35H60.6Z" fill="#BA2E25"/>
<path fill-rule="evenodd" clip-rule="evenodd" d="M64.25 86.15L64 85.5C64.6 85.25 65.15 85.05 65.9 85.05C67.3 85.05 68.1 85.75 68.1 87.15V90.35H67.35V89.55C67 90 66.4 90.45 65.45 90.45C64.5 90.45 63.5 89.9 63.5 88.8C63.5 87.7 64.4 87.1 65.75 87.1C66.4 87.1 66.9 87.2 67.35 87.3V87.1C67.35 86.15 66.75 85.7 65.8 85.7C65.2 85.75 64.75 85.95 64.25 86.15ZM64.35 88.8C64.35 89.45 64.95 89.85 65.65 89.85C66.6 89.85 67.4 89.25 67.4 88.45V87.95C67 87.85 66.5 87.75 65.85 87.75C64.9 87.7 64.35 88.15 64.35 88.8Z" fill="#BA2E25"/>
<path fill-rule="evenodd" clip-rule="evenodd" d="M69.3 90.35H68.5V85.15H69.3V86.05C69.65 85.5 70.2 85.05 71.1 85.05C72.35 85.05 73.1 85.9 73.1 87.15V90.4H72.3V87.35C72.3 86.4 71.75 85.8 70.85 85.8C69.95 85.8 69.3 86.45 69.3 87.45V90.35Z" fill="#BA2E25"/>
<path fill-rule="evenodd" clip-rule="evenodd" d="M75.55 88.9C75.55 89.55 75.9 89.75 76.45 89.75C76.7 89.75 76.95 89.7 77.2 89.55V90.2C76.95 90.35 76.65 90.4 76.25 90.4C75.4 90.4 74.8 90 74.8 88.95V85.8H74.05V85.1H74.8V83.55H75.6V85.1H77.25V85.8H75.6V88.9H75.55Z" fill="#BA2E25"/>
<path fill-rule="evenodd" clip-rule="evenodd" d="M79.1 90.35H78.3V83H79.1V86.05C79.45 85.5 80 85.05 80.9 85.05C82.15 85.05 82.9 85.9 82.9 87.15V90.4H82.1V87.35C82.1 86.4 81.55 85.8 80.65 85.8C79.75 85.8 79.1 86.45 79.1 87.45V90.35Z" fill="#BA2E25"/>
<path fill-rule="evenodd" clip-rule="evenodd" d="M85.05 90.35H84.25V85.15H85.05V86.5C85.45 85.65 86.2 85 87.2 85.05V85.9H87.15C86 85.9 85.1 86.7 85.1 88.3V90.35H85.05Z" fill="#BA2E25"/>
<path fill-rule="evenodd" clip-rule="evenodd" d="M90.3 90.5C88.75 90.5 87.6 89.25 87.6 87.8C87.6 86.3 88.75 85.05 90.35 85.05C91.9 85.05 93.05 86.3 93.05 87.75C93.05 89.25 91.85 90.5 90.3 90.5ZM90.3 85.75C89.15 85.75 88.4 86.65 88.4 87.75C88.4 88.85 89.25 89.8 90.35 89.8C91.5 89.8 92.25 88.9 92.25 87.8C92.25 86.65 91.4 85.75 90.3 85.75Z" fill="#BA2E25"/>
<path fill-rule="evenodd" clip-rule="evenodd" d="M96.95 90.45C96 90.45 95.35 89.95 94.95 89.35V91.95H94.15V85.15H94.95V86.2C95.35 85.6 96 85.05 96.95 85.05C98.2 85.05 99.45 86.05 99.45 87.75C99.45 89.45 98.2 90.45 96.95 90.45ZM96.8 85.75C95.85 85.75 94.9 86.55 94.9 87.75C94.9 88.95 95.8 89.75 96.8 89.75C97.8 89.75 98.65 89 98.65 87.75C98.65 86.5 97.8 85.75 96.8 85.75Z" fill="#BA2E25"/>
<path fill-rule="evenodd" clip-rule="evenodd" d="M102.9 90.55C102.45 91.65 101.95 92 101.15 92C100.7 92 100.4 91.9 100.05 91.75L100.3 91.15C100.55 91.3 100.8 91.35 101.1 91.35C101.55 91.35 101.85 91.1 102.15 90.35L99.8 85.15H100.65L102.55 89.5L104.25 85.15H105.1L102.9 90.55Z" fill="#BA2E25"/>
<path fill-rule="evenodd" clip-rule="evenodd" d="M111.5 87.85H109.8V90.35H109V83.3H111.65C113.25 83.3 114.3 84.15 114.3 85.55C114.3 87.1 113 87.85 111.5 87.85ZM111.6 84.05H109.8V87.15H111.55C112.7 87.15 113.5 86.55 113.5 85.6C113.5 84.55 112.7 84.05 111.6 84.05Z" fill="#BA2E25"/>
<path fill-rule="evenodd" clip-rule="evenodd" d="M115.45 90.35V83H116.25V90.35H115.45Z" fill="#BA2E25"/>
<path fill-rule="evenodd" clip-rule="evenodd" d="M118.05 86.15L117.8 85.5C118.4 85.25 118.95 85.05 119.7 85.05C121.1 85.05 121.9 85.75 121.9 87.15V90.35H121.15V89.55C120.8 90 120.2 90.45 119.25 90.45C118.3 90.45 117.3 89.9 117.3 88.8C117.3 87.7 118.2 87.1 119.55 87.1C120.2 87.1 120.7 87.2 121.15 87.3V87.1C121.15 86.15 120.55 85.7 119.6 85.7C119.05 85.75 118.55 85.95 118.05 86.15ZM118.15 88.8C118.15 89.45 118.75 89.85 119.45 89.85C120.4 89.85 121.2 89.25 121.2 88.45V87.95C120.8 87.85 120.3 87.75 119.65 87.75C118.7 87.7 118.15 88.15 118.15 88.8Z" fill="#BA2E25"/>
<path fill-rule="evenodd" clip-rule="evenodd" d="M124.35 88.9C124.35 89.55 124.7 89.75 125.25 89.75C125.5 89.75 125.75 89.7 126 89.55V90.2C125.75 90.35 125.45 90.4 125.05 90.4C124.2 90.4 123.6 90 123.6 88.95V85.8H122.85V85.1H123.6V83.55H124.4V85.1H126.05V85.8H124.4V88.9H124.35Z" fill="#BA2E25"/>
<path fill-rule="evenodd" clip-rule="evenodd" d="M129.85 85.2V85.85H128.2V90.35H127.4V85.85H126.7V85.2H127.4V84.75C127.4 83.6 128 83 129 83C129.35 83 129.6 83.05 129.85 83.15V83.8C129.55 83.7 129.35 83.65 129.1 83.65C128.5 83.65 128.2 84 128.2 84.75V85.15H129.85V85.2Z" fill="#BA2E25"/>
<path fill-rule="evenodd" clip-rule="evenodd" d="M132.85 90.5C131.3 90.5 130.15 89.25 130.15 87.8C130.15 86.3 131.3 85.05 132.9 85.05C134.45 85.05 135.6 86.3 135.6 87.75C135.6 89.25 134.45 90.5 132.85 90.5ZM132.85 85.75C131.7 85.75 130.95 86.65 130.95 87.75C130.95 88.85 131.8 89.8 132.9 89.8C134.05 89.8 134.8 88.9 134.8 87.8C134.8 86.65 133.95 85.75 132.85 85.75Z" fill="#BA2E25"/>
<path fill-rule="evenodd" clip-rule="evenodd" d="M137.5 90.35H136.7V85.15H137.5V86.5C137.9 85.65 138.65 85 139.65 85.05V85.9H139.6C138.45 85.9 137.55 86.7 137.55 88.3V90.35H137.5Z" fill="#BA2E25"/>
<path fill-rule="evenodd" clip-rule="evenodd" d="M146.55 85.05C147.75 85.05 148.5 85.85 148.5 87.15V90.35H147.7V87.3C147.7 86.3 147.2 85.75 146.35 85.75C145.55 85.75 144.9 86.35 144.9 87.35V90.35H144.15V87.3C144.15 86.3 143.65 85.75 142.8 85.75C141.95 85.75 141.35 86.45 141.35 87.4V90.35H140.55V85.15H141.35V86.05C141.7 85.55 142.15 85.05 143.05 85.05C143.9 85.05 144.45 85.5 144.75 86.1C145.1 85.5 145.65 85.05 146.55 85.05Z" fill="#BA2E25"/>
<path fill-rule="evenodd" clip-rule="evenodd" d="M53.2 80.35C50.6 80.35 47.95 79.45 45.85 77.6L48.1 74.9C49.65 76.2 51.3 77 53.25 77C54.8 77 55.75 76.4 55.75 75.4V75.35C55.75 74.4 55.15 73.9 52.25 73.15C48.75 72.25 46.5 71.3 46.5 67.9V67.85C46.5 64.75 49 62.65 52.55 62.65C55.05 62.65 57.2 63.45 58.95 64.85L57 67.7C55.45 66.65 53.95 66 52.5 66C51.05 66 50.3 66.65 50.3 67.5V67.55C50.3 68.7 51.05 69.05 54.05 69.8C57.55 70.7 59.55 71.95 59.55 74.95V75C59.55 78.45 56.95 80.35 53.2 80.35Z" fill="#F05A28"/>
<path fill-rule="evenodd" clip-rule="evenodd" d="M68.35 80.1H61.6V62.9H68.35C73.8 62.9 77.55 66.6 77.55 71.45V71.5C77.55 76.35 73.8 80.1 68.35 80.1ZM73.55 71.5C73.55 68.45 71.45 66.3 68.35 66.3H65.4V76.7H68.35C71.5 76.7 73.55 74.6 73.55 71.5Z" fill="#F05A28"/>
<path fill-rule="evenodd" clip-rule="evenodd" d="M88 80.4C82.6 80.4 78.9 76.65 78.9 71.55V71.5C78.9 66.6 82.75 62.6 87.95 62.6C91.05 62.6 92.95 63.45 94.75 64.95L92.35 67.85C91 66.75 89.85 66.1 87.85 66.1C85.1 66.1 82.9 68.55 82.9 71.45V71.5C82.9 74.65 85.05 76.95 88.15 76.95C89.55 76.95 90.75 76.6 91.75 75.9V73.5H87.9V70.25H95.4V77.75C93.6 79.2 91.15 80.4 88 80.4Z" fill="#F05A28"/>
<path fill-rule="evenodd" clip-rule="evenodd" d="M32.95 59.15L31.7 60.55C34.3 63.2 35.7 66.75 35.7 70.45C35.7 78.3 29.3 84.7 21.4 84.7C13.5 84.7 7.1 78.3 7.1 70.45C7.1 66.7 8.55 63.2 11.15 60.5L9.9 59.1C6.9 62.15 5.25 66.15 5.25 70.45C5.25 74.75 6.95 78.8 10 81.85C13.05 84.9 17.1 86.6 21.45 86.6C25.8 86.6 29.85 84.9 32.9 81.85C35.95 78.8 37.65 74.75 37.65 70.45C37.55 66.2 35.9 62.2 32.95 59.15Z" fill="#F05A28"/>
</svg>
