<svg width="150" height="150" viewBox="0 0 150 150" fill="none" xmlns="http://www.w3.org/2000/svg">
<rect width="150" height="150" fill="white"/>
<g clip-path="url(#clip0)">
<path d="M146.384 146.384H3.15784V3.1579H146.384V146.384ZM102.963 27.7026L93.3552 64.0816C89.7078 50.2105 86.3605 37.6658 85.7999 35.6053C84.3394 30.2763 80.7868 27.7105 75.5368 27.7105H65.7394L56.1552 64.1053L46.5789 27.7026L25.0894 30.2053C25.0894 30.2053 36.9315 75.1421 39.0473 83.2974C40.4289 88.5158 43.192 92.0447 48.4657 93.4737C53.921 94.9579 65.1552 98.2974 65.1552 98.2974L74.7552 61.7921C77.6684 72.8447 79.8947 80.9842 80.7631 84.1816C82.0657 88.9184 85.1999 91.9974 90.6631 93.6C98.0447 95.7711 106.508 98.2974 106.508 98.2974L124.453 30.0632L102.963 27.7026ZM86.0131 114.055C82.6184 114.055 80.6131 115.761 79.8157 118.058C79.1447 115.271 76.6026 114.055 73.9184 114.055C70.5394 114.055 67.9736 116.061 67.3973 119.187V109.737H62.8499V126.789H67.3973V122.116C67.9657 125.408 70.4605 127.105 73.7763 127.105C76.6184 127.105 78.9631 125.692 79.8315 123.158C80.621 125.439 82.6342 127.105 86.0131 127.105C90.5605 127.105 92.6052 124.026 92.6052 120.584C92.6052 117.142 90.5526 114.055 86.0131 114.055ZM75.7499 121.863C75.7355 122.363 75.524 122.837 75.1617 123.181C74.7994 123.526 74.3156 123.713 73.8157 123.703C72.3473 123.703 71.8105 122.558 71.8105 120.545C71.8105 119.037 72.1815 117.387 73.9105 117.387C74.9842 117.387 75.6315 118.105 75.6315 119.345H79.4842C79.358 120.166 79.358 121.002 79.4842 121.824L75.7499 121.863ZM86.0131 123.703C84.221 123.703 83.9605 121.887 83.9605 120.545C83.9605 119.203 84.221 117.387 86.0131 117.387C87.8052 117.387 88.0657 119.179 88.0657 120.545C88.0657 121.911 87.7973 123.703 86.0131 123.703ZM119.171 124.113C117.679 124.113 116.866 123.087 116.747 121.603H125.676C125.676 116.803 123.576 114.055 118.918 114.055C117.489 114.006 116.086 114.45 114.945 115.313C113.803 116.175 112.993 117.403 112.65 118.792V118.263C112.65 116.258 111.6 114.079 108.521 114.079C107.88 114.044 107.238 114.138 106.633 114.355C106.028 114.572 105.473 114.908 105 115.342C104.935 115.41 104.875 115.481 104.818 115.555C104.589 115.8 104.463 115.966 104.376 116.061C104.074 115.457 103.608 114.952 103.031 114.601C102.454 114.251 101.79 114.07 101.116 114.079C100.341 114.028 99.5668 114.185 98.873 114.534C98.1791 114.882 97.5907 115.409 97.1684 116.061H97.0973V114.387H92.6052V126.782H97.1526V120.071C97.1526 118.761 97.5473 117.782 98.7315 117.782C100.2 117.782 100.31 118.903 100.31 120.071V126.782H104.882V120.071C104.882 118.761 105.276 117.782 106.46 117.782C107.905 117.782 108.039 118.903 108.039 120.071V126.782H112.587V122.542C113.376 125.471 115.839 127.097 119.06 127.097C121.863 127.097 124.382 125.882 125.337 123.253H121.105C120.867 123.54 120.564 123.768 120.221 123.916C119.878 124.064 119.504 124.129 119.132 124.105L119.171 124.113ZM119.124 117.008C119.415 116.997 119.706 117.046 119.977 117.153C120.249 117.26 120.495 117.422 120.701 117.629C120.906 117.836 121.067 118.084 121.172 118.356C121.276 118.628 121.324 118.919 121.31 119.211H116.771C116.96 117.774 117.782 117.016 119.084 117.016L119.124 117.008ZM57.0078 118.326C56.2184 115.571 54.1499 114.047 50.692 114.047C49.5132 114.008 48.3473 114.303 47.3289 114.898C46.3105 115.493 45.4812 116.364 44.9368 117.411L45.8842 114.355H41.0526L39.3552 122.068H39.2605L37.6263 114.355H33.3552L31.7763 122.068H31.7052L29.8894 114.355H25.1526L28.9263 126.75H33.6157L35.4315 119.084H35.5263L37.2947 126.75H41.9842L44.2105 119.597C44.1614 119.929 44.135 120.264 44.1315 120.6C44.1315 124.729 46.9815 127.074 50.8499 127.074C53.5105 127.074 55.9105 125.968 56.9684 123.6V126.758H61.5157V109.737H56.9684L57.0078 118.326ZM50.8894 117.008C51.1777 117.002 51.4641 117.056 51.7308 117.165C51.9976 117.275 52.2391 117.437 52.4404 117.644C52.6416 117.85 52.7984 118.096 52.901 118.365C53.0036 118.635 53.0498 118.922 53.0368 119.211H48.4894C48.7263 117.774 49.5394 117.016 50.8421 117.016L50.8894 117.008ZM52.8947 123.221C52.6587 123.516 52.3558 123.75 52.0111 123.903C51.6664 124.057 51.29 124.126 50.9131 124.105C49.4289 124.105 48.6157 123.079 48.4894 121.595H56.9684V123.221H52.8947Z" fill="#1D1D1B"/>
</g>
<defs>
<clipPath id="clip0">
<rect width="143.226" height="143.226" fill="white" transform="translate(3.15784 3.1579)"/>
</clipPath>
</defs>
</svg>
